NotoSansMeroitic-Regular.ufo
<glyph name="u10980" format="2">
  <advance width="690"/>
  <unicode hex="10980"/>
  <outline>
    <contour>
      <point x="275" y="725" type="curve" smooth="yes"/>
      <point x="275" y="696"/>
      <point x="287" y="668"/>
      <point x="306" y="648" type="curve"/>
      <point x="269" y="646"/>
      <point x="233" y="645"/>
      <point x="195" y="645" type="curve"/>
      <point x="178" y="656"/>
      <point x="147" y="713"/>
      <point x="111" y="810" type="curve" smooth="yes"/>
      <point x="105" y="826"/>
      <point x="94" y="829"/>
      <point x="83" y="829" type="curve" smooth="yes"/>
      <point x="67" y="829"/>
      <point x="50" y="817"/>
      <point x="50" y="803" type="curve" smooth="yes"/>
      <point x="50" y="795"/>
      <point x="51" y="790"/>
      <point x="54" y="779" type="curve" smooth="yes"/>
      <point x="72" y="720"/>
      <point x="117" y="610"/>
      <point x="152" y="589" type="curve"/>
      <point x="157" y="589"/>
      <point x="166" y="588"/>
      <point x="171" y="588" type="curve" smooth="yes"/>
      <point x="205" y="588"/>
      <point x="240" y="589"/>
      <point x="276" y="591" type="curve"/>
      <point x="293" y="220" type="line"/>
      <point x="236" y="236" type="line" smooth="yes"/>
      <point x="211" y="243"/>
      <point x="190" y="246"/>
      <point x="179" y="246" type="curve" smooth="yes"/>
      <point x="166" y="246"/>
      <point x="161" y="239"/>
      <point x="156" y="220" type="curve" smooth="yes"/>
      <point x="147" y="184"/>
      <point x="132" y="152"/>
      <point x="117" y="125" type="curve" smooth="yes"/>
      <point x="90" y="78"/>
      <point x="62" y="44"/>
      <point x="62" y="16" type="curve" smooth="yes"/>
      <point x="62" y="0"/>
      <point x="80" y="-14"/>
      <point x="105" y="-14" type="curve" smooth="yes"/>
      <point x="139" y="-14"/>
      <point x="195" y="-6"/>
      <point x="286" y="-6" type="curve" smooth="yes"/>
      <point x="350" y="-6"/>
      <point x="456" y="-8"/>
      <point x="576" y="-8" type="curve" smooth="yes"/>
      <point x="608" y="-8"/>
      <point x="624" y="9"/>
      <point x="624" y="25" type="curve" smooth="yes"/>
      <point x="624" y="39"/>
      <point x="612" y="50"/>
      <point x="589" y="50" type="curve" smooth="yes"/>
      <point x="555" y="50"/>
      <point x="525" y="51"/>
      <point x="497" y="52" type="curve"/>
      <point x="475" y="172" type="line"/>
      <point x="453" y="177" type="line"/>
      <point x="476" y="265"/>
      <point x="504" y="490"/>
      <point x="512" y="583" type="curve"/>
      <point x="538" y="579"/>
      <point x="561" y="573"/>
      <point x="577" y="568" type="curve"/>
      <point x="577" y="519"/>
      <point x="568" y="451"/>
      <point x="560" y="405" type="curve" smooth="yes"/>
      <point x="558" y="394"/>
      <point x="557" y="388"/>
      <point x="557" y="383" type="curve" smooth="yes"/>
      <point x="557" y="369"/>
      <point x="570" y="364"/>
      <point x="583" y="364" type="curve" smooth="yes"/>
      <point x="598" y="364"/>
      <point x="614" y="372"/>
      <point x="617" y="385" type="curve" smooth="yes"/>
      <point x="627" y="450"/>
      <point x="640" y="562"/>
      <point x="640" y="603" type="curve"/>
      <point x="611" y="625"/>
      <point x="533" y="638"/>
      <point x="471" y="644" type="curve"/>
      <point x="492" y="665"/>
      <point x="505" y="694"/>
      <point x="505" y="725" type="curve" smooth="yes"/>
      <point x="505" y="788"/>
      <point x="453" y="840"/>
      <point x="392" y="840" type="curve" smooth="yes"/>
      <point x="330" y="840"/>
      <point x="275" y="788"/>
    </contour>
    <contour>
      <point x="382" y="595" type="curve" smooth="yes"/>
      <point x="405" y="595"/>
      <point x="430" y="593"/>
      <point x="455" y="591" type="curve"/>
      <point x="448" y="501"/>
      <point x="421" y="282"/>
      <point x="399" y="192" type="curve"/>
      <point x="350" y="205" type="line"/>
      <point x="336" y="594" type="line"/>
      <point x="351" y="595"/>
      <point x="367" y="595"/>
    </contour>
    <contour>
      <point x="295" y="53"/>
      <point x="217" y="51"/>
      <point x="131" y="45" type="curve"/>
      <point x="164" y="90"/>
      <point x="198" y="129"/>
      <point x="208" y="188" type="curve"/>
      <point x="422" y="125" type="line"/>
      <point x="436" y="52" type="line"/>
    </contour>
    <contour>
      <point x="329" y="724" type="curve" smooth="yes"/>
      <point x="329" y="760"/>
      <point x="355" y="786"/>
      <point x="389" y="786" type="curve" smooth="yes"/>
      <point x="425" y="786"/>
      <point x="451" y="760"/>
      <point x="451" y="724" type="curve" smooth="yes"/>
      <point x="451" y="690"/>
      <point x="425" y="664"/>
      <point x="389" y="664" type="curve" smooth="yes"/>
      <point x="355" y="664"/>
      <point x="329" y="690"/>
    </contour>
  </outline>
</glyph>
<glyph name="u10981" format="2">
  <advance width="473"/>
  <unicode hex="10981"/>
  <outline>
    <contour>
      <point x="423" y="267" type="curve" smooth="yes"/>
      <point x="423" y="298"/>
      <point x="405" y="350"/>
      <point x="387" y="388" type="curve" smooth="yes"/>
      <point x="346" y="476" type="line" smooth="yes"/>
      <point x="330" y="511"/>
      <point x="312" y="556"/>
      <point x="312" y="574" type="curve" smooth="yes"/>
      <point x="312" y="592"/>
      <point x="325" y="612"/>
      <point x="336" y="630" type="curve" smooth="yes"/>
      <point x="349" y="651"/>
      <point x="362" y="675"/>
      <point x="362" y="715" type="curve" smooth="yes"/>
      <point x="362" y="769"/>
      <point x="323" y="830"/>
      <point x="237" y="830" type="curve" smooth="yes"/>
      <point x="154" y="830"/>
      <point x="100" y="774"/>
      <point x="100" y="652" type="curve" smooth="yes"/>
      <point x="100" y="12" type="line" smooth="yes"/>
      <point x="100" y="-4"/>
      <point x="115" y="-12"/>
      <point x="130" y="-12" type="curve" smooth="yes"/>
      <point x="145" y="-12"/>
      <point x="160" y="-4"/>
      <point x="160" y="12" type="curve" smooth="yes"/>
      <point x="160" y="75" type="line"/>
      <point x="201" y="132"/>
      <point x="259" y="159"/>
      <point x="310" y="180" type="curve" smooth="yes"/>
      <point x="371" y="205"/>
      <point x="423" y="220"/>
    </contour>
    <contour>
      <point x="160" y="153" type="curve"/>
      <point x="160" y="641" type="line" smooth="yes"/>
      <point x="160" y="735"/>
      <point x="186" y="770"/>
      <point x="237" y="770" type="curve" smooth="yes"/>
      <point x="283" y="770"/>
      <point x="302" y="743"/>
      <point x="302" y="704" type="curve" smooth="yes"/>
      <point x="302" y="678"/>
      <point x="291" y="660"/>
      <point x="279" y="642" type="curve" smooth="yes"/>
      <point x="267" y="623"/>
      <point x="255" y="604"/>
      <point x="255" y="572" type="curve" smooth="yes"/>
      <point x="255" y="545"/>
      <point x="265" y="512"/>
      <point x="291" y="457" type="curve" smooth="yes"/>
      <point x="329" y="376" type="line" smooth="yes"/>
      <point x="350" y="332"/>
      <point x="363" y="299"/>
      <point x="363" y="286" type="curve" smooth="yes"/>
      <point x="363" y="271"/>
      <point x="328" y="255"/>
      <point x="299" y="244" type="curve" smooth="yes"/>
      <point x="247" y="224"/>
      <point x="197" y="195"/>
    </contour>
  </outline>
</glyph>
<glyph name="u10982" format="2">
  <advance width="690"/>
  <unicode hex="10982"/>
  <outline>
    <contour>
      <point x="583" y="364" type="curve" smooth="yes"/>
      <point x="598" y="364"/>
      <point x="615" y="373"/>
      <point x="617" y="385" type="curve" smooth="yes"/>
      <point x="627" y="450"/>
      <point x="640" y="562"/>
      <point x="640" y="603" type="curve"/>
      <point x="610" y="625"/>
      <point x="531" y="638"/>
      <point x="468" y="644" type="curve"/>
      <point x="489" y="665"/>
      <point x="502" y="694"/>
      <point x="502" y="725" type="curve" smooth="yes"/>
      <point x="502" y="788"/>
      <point x="450" y="840"/>
      <point x="389" y="840" type="curve" smooth="yes"/>
      <point x="327" y="840"/>
      <point x="272" y="788"/>
      <point x="272" y="725" type="curve" smooth="yes"/>
      <point x="272" y="696"/>
      <point x="284" y="669"/>
      <point x="304" y="648" type="curve"/>
      <point x="267" y="646"/>
      <point x="232" y="645"/>
      <point x="195" y="645" type="curve"/>
      <point x="178" y="656"/>
      <point x="147" y="713"/>
      <point x="111" y="810" type="curve" smooth="yes"/>
      <point x="105" y="826"/>
      <point x="94" y="829"/>
      <point x="83" y="829" type="curve" smooth="yes"/>
      <point x="67" y="829"/>
      <point x="50" y="817"/>
      <point x="50" y="799" type="curve" smooth="yes"/>
      <point x="50" y="795"/>
      <point x="51" y="790"/>
      <point x="55" y="778" type="curve" smooth="yes"/>
      <point x="77" y="720"/>
      <point x="122" y="610"/>
      <point x="152" y="589" type="curve"/>
      <point x="157" y="588"/>
      <point x="166" y="587"/>
      <point x="171" y="587" type="curve" smooth="yes"/>
      <point x="204" y="587"/>
      <point x="239" y="590"/>
      <point x="275" y="591" type="curve"/>
      <point x="275" y="289" type="line"/>
      <point x="277" y="285"/>
      <point x="281" y="282"/>
      <point x="287" y="279" type="curve"/>
      <point x="184" y="58" type="line"/>
      <point x="111" y="58" type="line" smooth="yes"/>
      <point x="96" y="58"/>
      <point x="88" y="43"/>
      <point x="88" y="28" type="curve" smooth="yes"/>
      <point x="88" y="14"/>
      <point x="95" y="0"/>
      <point x="111" y="0" type="curve" smooth="yes"/>
      <point x="195" y="0" type="line" smooth="yes"/>
      <point x="210" y="0"/>
      <point x="228" y="12"/>
      <point x="253" y="68" type="curve" smooth="yes"/>
      <point x="344" y="269" type="line"/>
      <point x="361" y="269" type="line" smooth="yes"/>
      <point x="371" y="269"/>
      <point x="383" y="270"/>
      <point x="394" y="271" type="curve"/>
      <point x="453" y="58" type="line"/>
      <point x="381" y="58" type="line" smooth="yes"/>
      <point x="367" y="58"/>
      <point x="359" y="42"/>
      <point x="359" y="27" type="curve" smooth="yes"/>
      <point x="359" y="13"/>
      <point x="366" y="0"/>
      <point x="381" y="0" type="curve" smooth="yes"/>
      <point x="492" y="0" type="line" smooth="yes"/>
      <point x="506" y="0"/>
      <point x="511" y="32"/>
      <point x="511" y="49" type="curve" smooth="yes"/>
      <point x="511" y="59"/>
      <point x="511" y="70"/>
      <point x="507" y="83" type="curve" smooth="yes"/>
      <point x="450" y="289" type="line"/>
      <point x="471" y="337"/>
      <point x="493" y="497"/>
      <point x="501" y="585" type="curve"/>
      <point x="532" y="580"/>
      <point x="559" y="574"/>
      <point x="577" y="568" type="curve"/>
      <point x="577" y="519"/>
      <point x="569" y="449"/>
      <point x="559" y="395" type="curve" smooth="yes"/>
      <point x="558" y="392"/>
      <point x="557" y="386"/>
      <point x="557" y="384" type="curve" smooth="yes"/>
      <point x="557" y="370"/>
      <point x="570" y="364"/>
    </contour>
    <contour>
      <point x="395" y="328" type="curve"/>
      <point x="382" y="326"/>
      <point x="374" y="324"/>
      <point x="359" y="324" type="curve" smooth="yes"/>
      <point x="344" y="324"/>
      <point x="338" y="326"/>
      <point x="335" y="329" type="curve"/>
      <point x="335" y="594" type="line"/>
      <point x="351" y="595"/>
      <point x="366" y="595"/>
      <point x="382" y="595" type="curve" smooth="yes"/>
      <point x="402" y="595"/>
      <point x="424" y="594"/>
      <point x="445" y="592" type="curve"/>
      <point x="438" y="511"/>
      <point x="417" y="383"/>
    </contour>
    <contour>
      <point x="326" y="724" type="curve" smooth="yes"/>
      <point x="326" y="760"/>
      <point x="352" y="786"/>
      <point x="386" y="786" type="curve" smooth="yes"/>
      <point x="422" y="786"/>
      <point x="448" y="760"/>
      <point x="448" y="724" type="curve" smooth="yes"/>
      <point x="448" y="690"/>
      <point x="422" y="664"/>
      <point x="386" y="664" type="curve" smooth="yes"/>
      <point x="352" y="664"/>
      <point x="326" y="690"/>
    </contour>
  </outline>
</glyph>
<glyph name="u10985" format="2">
  <advance width="618"/>
  <unicode hex="10985"/>
  <outline>
    <contour>
      <point x="458" y="494" type="curve" smooth="yes"/>
      <point x="458" y="12" type="line" smooth="yes"/>
      <point x="458" y="-4"/>
      <point x="473" y="-12"/>
      <point x="488" y="-12" type="curve" smooth="yes"/>
      <point x="503" y="-12"/>
      <point x="518" y="-4"/>
      <point x="518" y="12" type="curve" smooth="yes"/>
      <point x="518" y="504" type="line" smooth="yes"/>
      <point x="518" y="708"/>
      <point x="487" y="830"/>
      <point x="339" y="830" type="curve" smooth="yes"/>
      <point x="206" y="830"/>
      <point x="164" y="747"/>
      <point x="156" y="599" type="curve"/>
      <point x="104" y="651" type="line" smooth="yes"/>
      <point x="97" y="658"/>
      <point x="91" y="660"/>
      <point x="85" y="660" type="curve" smooth="yes"/>
      <point x="70" y="660"/>
      <point x="58" y="647"/>
      <point x="58" y="633" type="curve" smooth="yes"/>
      <point x="58" y="628"/>
      <point x="59" y="624"/>
      <point x="63" y="620" type="curve" smooth="yes"/>
      <point x="97" y="586"/>
      <point x="126" y="556"/>
      <point x="151" y="529" type="curve"/>
      <point x="72" y="435"/>
      <point x="50" y="376"/>
      <point x="50" y="315" type="curve" smooth="yes"/>
      <point x="50" y="228"/>
      <point x="112" y="176"/>
      <point x="185" y="176" type="curve" smooth="yes"/>
      <point x="258" y="176"/>
      <point x="319" y="229"/>
      <point x="319" y="313" type="curve" smooth="yes"/>
      <point x="319" y="376"/>
      <point x="297" y="435"/>
      <point x="218" y="529" type="curve"/>
      <point x="242" y="556"/>
      <point x="272" y="586"/>
      <point x="306" y="620" type="curve" smooth="yes"/>
      <point x="310" y="624"/>
      <point x="311" y="628"/>
      <point x="311" y="633" type="curve" smooth="yes"/>
      <point x="311" y="647"/>
      <point x="299" y="660"/>
      <point x="284" y="660" type="curve" smooth="yes"/>
      <point x="278" y="660"/>
      <point x="272" y="658"/>
      <point x="264" y="650" type="curve" smooth="yes"/>
      <point x="247" y="634"/>
      <point x="230" y="617"/>
      <point x="215" y="600" type="curve"/>
      <point x="219" y="712"/>
      <point x="238" y="770"/>
      <point x="339" y="770" type="curve" smooth="yes"/>
      <point x="442" y="770"/>
      <point x="458" y="674"/>
    </contour>
    <contour>
      <point x="184" y="491" type="curve"/>
      <point x="235" y="429"/>
      <point x="259" y="379"/>
      <point x="259" y="318" type="curve" smooth="yes"/>
      <point x="259" y="265"/>
      <point x="234" y="232"/>
      <point x="186" y="232" type="curve" smooth="yes"/>
      <point x="135" y="232"/>
      <point x="110" y="264"/>
      <point x="110" y="318" type="curve" smooth="yes"/>
      <point x="110" y="379"/>
      <point x="133" y="429"/>
    </contour>
  </outline>
</glyph>
<glyph name="u10988" format="2">
  <advance width="976"/>
  <unicode hex="10988"/>
  <outline>
    <contour>
      <point x="281" y="0" type="curve" smooth="yes"/>
      <point x="695" y="0" type="line" smooth="yes"/>
      <point x="849" y="0"/>
      <point x="926" y="115"/>
      <point x="926" y="236" type="curve" smooth="yes"/>
      <point x="926" y="254" type="line" smooth="yes"/>
      <point x="926" y="375"/>
      <point x="849" y="490"/>
      <point x="695" y="490" type="curve" smooth="yes"/>
      <point x="281" y="490" type="line" smooth="yes"/>
      <point x="127" y="490"/>
      <point x="50" y="375"/>
      <point x="50" y="254" type="curve" smooth="yes"/>
      <point x="50" y="236" type="line" smooth="yes"/>
      <point x="50" y="115"/>
      <point x="127" y="0"/>
    </contour>
    <contour>
      <point x="611" y="432" type="line"/>
      <point x="672" y="432" type="line" smooth="yes"/>
      <point x="801" y="432"/>
      <point x="856" y="369"/>
      <point x="860" y="272" type="curve"/>
      <point x="611" y="272" type="line"/>
    </contour>
    <contour>
      <point x="304" y="432" type="curve"/>
      <point x="365" y="432" type="line"/>
      <point x="365" y="272" type="line"/>
      <point x="115" y="272" type="line"/>
      <point x="120" y="369"/>
      <point x="175" y="432"/>
    </contour>
    <contour>
      <point x="672" y="58" type="curve"/>
      <point x="611" y="58" type="line"/>
      <point x="611" y="214" type="line"/>
      <point x="860" y="214" type="line"/>
      <point x="854" y="119"/>
      <point x="799" y="58"/>
    </contour>
    <contour>
      <point x="115" y="214" type="curve"/>
      <point x="365" y="214" type="line"/>
      <point x="365" y="58" type="line"/>
      <point x="304" y="58" type="line" smooth="yes"/>
      <point x="177" y="58"/>
      <point x="121" y="119"/>
    </contour>
    <contour>
      <point x="425" y="272" type="line"/>
      <point x="425" y="432" type="line"/>
      <point x="551" y="432" type="line"/>
      <point x="551" y="272" type="line"/>
    </contour>
    <contour>
      <point x="425" y="58" type="line"/>
      <point x="425" y="214" type="line"/>
      <point x="551" y="214" type="line"/>
      <point x="551" y="58" type="line"/>
    </contour>
  </outline>
</glyph>
<glyph name="u1098B" format="2">
  <advance width="1185"/>
  <unicode hex="1098B"/>
  <outline>
    <contour>
      <point x="718" y="256" type="line"/>
      <point x="810" y="156" type="line"/>
      <point x="823" y="142"/>
      <point x="832" y="133"/>
      <point x="843" y="133" type="curve" smooth="yes"/>
      <point x="852" y="133"/>
      <point x="863" y="140"/>
      <point x="878" y="156" type="curve" smooth="yes"/>
      <point x="968" y="256" type="line"/>
      <point x="1087" y="125" type="line" smooth="yes"/>
      <point x="1093" y="118"/>
      <point x="1100" y="115"/>
      <point x="1107" y="115" type="curve" smooth="yes"/>
      <point x="1119" y="115"/>
      <point x="1135" y="124"/>
      <point x="1135" y="138" type="curve" smooth="yes"/>
      <point x="1135" y="147"/>
      <point x="1131" y="158"/>
      <point x="1119" y="171" type="curve" smooth="yes"/>
      <point x="996" y="305" type="line" smooth="yes"/>
      <point x="985" y="317"/>
      <point x="977" y="321"/>
      <point x="969" y="321" type="curve" smooth="yes"/>
      <point x="959" y="321"/>
      <point x="951" y="314"/>
      <point x="942" y="305" type="curve" smooth="yes"/>
      <point x="844" y="201" type="line"/>
      <point x="746" y="305" type="line" smooth="yes"/>
      <point x="735" y="317"/>
      <point x="727" y="321"/>
      <point x="719" y="321" type="curve" smooth="yes"/>
      <point x="709" y="321"/>
      <point x="701" y="314"/>
      <point x="692" y="305" type="curve" smooth="yes"/>
      <point x="594" y="201" type="line"/>
      <point x="494" y="305" type="line" smooth="yes"/>
      <point x="485" y="314"/>
      <point x="477" y="321"/>
      <point x="467" y="321" type="curve" smooth="yes"/>
      <point x="459" y="321"/>
      <point x="451" y="317"/>
      <point x="440" y="305" type="curve" smooth="yes"/>
      <point x="344" y="201" type="line"/>
      <point x="244" y="305" type="line" smooth="yes"/>
      <point x="235" y="314"/>
      <point x="227" y="321"/>
      <point x="217" y="321" type="curve" smooth="yes"/>
      <point x="209" y="321"/>
      <point x="201" y="317"/>
      <point x="190" y="305" type="curve" smooth="yes"/>
      <point x="66" y="171" type="line" smooth="yes"/>
      <point x="54" y="158"/>
      <point x="50" y="147"/>
      <point x="50" y="138" type="curve" smooth="yes"/>
      <point x="50" y="124"/>
      <point x="67" y="115"/>
      <point x="79" y="115" type="curve" smooth="yes"/>
      <point x="86" y="115"/>
      <point x="93" y="118"/>
      <point x="99" y="125" type="curve" smooth="yes"/>
      <point x="218" y="256" type="line"/>
      <point x="310" y="156" type="line" smooth="yes"/>
      <point x="323" y="142"/>
      <point x="332" y="133"/>
      <point x="343" y="133" type="curve" smooth="yes"/>
      <point x="352" y="133"/>
      <point x="363" y="140"/>
      <point x="378" y="156" type="curve" smooth="yes"/>
      <point x="468" y="256" type="line"/>
      <point x="560" y="156" type="line" smooth="yes"/>
      <point x="573" y="142"/>
      <point x="582" y="133"/>
      <point x="593" y="133" type="curve" smooth="yes"/>
      <point x="602" y="133"/>
      <point x="613" y="140"/>
      <point x="628" y="156" type="curve" smooth="yes"/>
    </contour>
  </outline>
</glyph>
<glyph name="u1098C" format="2">
  <advance width="882"/>
  <unicode hex="1098C"/>
  <outline>
    <contour>
      <point x="295" y="403" type="curve"/>
      <point x="295" y="642" type="line" smooth="yes"/>
      <point x="295" y="754"/>
      <point x="273" y="830"/>
      <point x="176" y="830" type="curve" smooth="yes"/>
      <point x="101" y="830"/>
      <point x="69" y="789"/>
      <point x="55" y="758" type="curve" smooth="yes"/>
      <point x="52" y="752"/>
      <point x="49" y="745"/>
      <point x="49" y="739" type="curve" smooth="yes"/>
      <point x="49" y="730"/>
      <point x="70" y="712"/>
      <point x="86" y="712" type="curve" smooth="yes"/>
      <point x="95" y="712"/>
      <point x="100" y="718"/>
      <point x="105" y="728" type="curve" smooth="yes"/>
      <point x="115" y="748"/>
      <point x="128" y="770"/>
      <point x="166" y="770" type="curve" smooth="yes"/>
      <point x="225" y="770"/>
      <point x="235" y="715"/>
      <point x="235" y="639" type="curve" smooth="yes"/>
      <point x="235" y="407" type="line"/>
      <point x="219" y="415"/>
      <point x="202" y="419"/>
      <point x="183" y="419" type="curve" smooth="yes"/>
      <point x="161" y="419"/>
      <point x="144" y="413"/>
      <point x="124" y="398" type="curve" smooth="yes"/>
      <point x="110" y="387"/>
      <point x="105" y="375"/>
      <point x="105" y="366" type="curve" smooth="yes"/>
      <point x="105" y="353"/>
      <point x="115" y="344"/>
      <point x="127" y="344" type="curve" smooth="yes"/>
      <point x="130" y="344"/>
      <point x="133" y="345"/>
      <point x="136" y="346" type="curve" smooth="yes"/>
      <point x="154" y="355"/>
      <point x="168" y="363"/>
      <point x="184" y="363" type="curve" smooth="yes"/>
      <point x="202" y="363"/>
      <point x="219" y="358"/>
      <point x="235" y="349" type="curve"/>
      <point x="235" y="293" type="line"/>
      <point x="220" y="299"/>
      <point x="204" y="303"/>
      <point x="188" y="303" type="curve" smooth="yes"/>
      <point x="157" y="303"/>
      <point x="136" y="295"/>
      <point x="115" y="283" type="curve" smooth="yes"/>
      <point x="102" y="276"/>
      <point x="96" y="263"/>
      <point x="96" y="251" type="curve" smooth="yes"/>
      <point x="96" y="239"/>
      <point x="102" y="227"/>
      <point x="113" y="227" type="curve" smooth="yes"/>
      <point x="119" y="227"/>
      <point x="122" y="229"/>
      <point x="128" y="233" type="curve" smooth="yes"/>
      <point x="143" y="243"/>
      <point x="163" y="249"/>
      <point x="185" y="249" type="curve" smooth="yes"/>
      <point x="202" y="249"/>
      <point x="219" y="244"/>
      <point x="235" y="236" type="curve"/>
      <point x="235" y="12" type="line" smooth="yes"/>
      <point x="235" y="-4"/>
      <point x="250" y="-12"/>
      <point x="265" y="-12" type="curve" smooth="yes"/>
      <point x="280" y="-12"/>
      <point x="295" y="-4"/>
      <point x="295" y="12" type="curve" smooth="yes"/>
      <point x="295" y="231" type="line"/>
      <point x="312" y="242"/>
      <point x="332" y="249"/>
      <point x="353" y="249" type="curve" smooth="yes"/>
      <point x="375" y="249"/>
      <point x="395" y="243"/>
      <point x="407" y="235" type="curve" smooth="yes"/>
      <point x="416" y="229"/>
      <point x="419" y="227"/>
      <point x="425" y="227" type="curve" smooth="yes"/>
      <point x="436" y="227"/>
      <point x="442" y="239"/>
      <point x="442" y="251" type="curve" smooth="yes"/>
      <point x="442" y="263"/>
      <point x="436" y="276"/>
      <point x="423" y="283" type="curve" smooth="yes"/>
      <point x="402" y="295"/>
      <point x="381" y="303"/>
      <point x="350" y="303" type="curve" smooth="yes"/>
      <point x="330" y="303"/>
      <point x="312" y="298"/>
      <point x="295" y="290" type="curve"/>
      <point x="295" y="343" type="line"/>
      <point x="312" y="356"/>
      <point x="333" y="363"/>
      <point x="354" y="363" type="curve" smooth="yes"/>
      <point x="370" y="363"/>
      <point x="384" y="355"/>
      <point x="402" y="346" type="curve" smooth="yes"/>
      <point x="405" y="345"/>
      <point x="408" y="344"/>
      <point x="411" y="344" type="curve" smooth="yes"/>
      <point x="423" y="344"/>
      <point x="433" y="353"/>
      <point x="433" y="366" type="curve" smooth="yes"/>
      <point x="433" y="375"/>
      <point x="428" y="387"/>
      <point x="414" y="398" type="curve" smooth="yes"/>
      <point x="394" y="413"/>
      <point x="377" y="419"/>
      <point x="355" y="419" type="curve" smooth="yes"/>
      <point x="332" y="419"/>
      <point x="312" y="413"/>
    </contour>
    <contour>
      <point x="685" y="403" type="curve"/>
      <point x="685" y="642" type="line" smooth="yes"/>
      <point x="685" y="754"/>
      <point x="663" y="830"/>
      <point x="566" y="830" type="curve" smooth="yes"/>
      <point x="491" y="830"/>
      <point x="460" y="788"/>
      <point x="445" y="758" type="curve" smooth="yes"/>
      <point x="442" y="752"/>
      <point x="439" y="745"/>
      <point x="439" y="739" type="curve" smooth="yes"/>
      <point x="439" y="730"/>
      <point x="460" y="712"/>
      <point x="476" y="712" type="curve" smooth="yes"/>
      <point x="485" y="712"/>
      <point x="490" y="718"/>
      <point x="495" y="728" type="curve" smooth="yes"/>
      <point x="505" y="748"/>
      <point x="518" y="770"/>
      <point x="556" y="770" type="curve" smooth="yes"/>
      <point x="615" y="770"/>
      <point x="625" y="715"/>
      <point x="625" y="639" type="curve" smooth="yes"/>
      <point x="625" y="407" type="line"/>
      <point x="609" y="415"/>
      <point x="592" y="419"/>
      <point x="573" y="419" type="curve" smooth="yes"/>
      <point x="551" y="419"/>
      <point x="534" y="413"/>
      <point x="514" y="398" type="curve" smooth="yes"/>
      <point x="500" y="387"/>
      <point x="495" y="375"/>
      <point x="495" y="366" type="curve" smooth="yes"/>
      <point x="495" y="353"/>
      <point x="505" y="344"/>
      <point x="517" y="344" type="curve" smooth="yes"/>
      <point x="520" y="344"/>
      <point x="523" y="345"/>
      <point x="526" y="346" type="curve" smooth="yes"/>
      <point x="545" y="352"/>
      <point x="558" y="363"/>
      <point x="574" y="363" type="curve" smooth="yes"/>
      <point x="592" y="363"/>
      <point x="609" y="358"/>
      <point x="625" y="349" type="curve"/>
      <point x="625" y="293" type="line"/>
      <point x="610" y="299"/>
      <point x="594" y="303"/>
      <point x="578" y="303" type="curve" smooth="yes"/>
      <point x="547" y="303"/>
      <point x="526" y="294"/>
      <point x="505" y="283" type="curve" smooth="yes"/>
      <point x="492" y="276"/>
      <point x="486" y="263"/>
      <point x="486" y="251" type="curve" smooth="yes"/>
      <point x="486" y="239"/>
      <point x="492" y="227"/>
      <point x="503" y="227" type="curve" smooth="yes"/>
      <point x="509" y="227"/>
      <point x="512" y="229"/>
      <point x="518" y="233" type="curve" smooth="yes"/>
      <point x="533" y="243"/>
      <point x="553" y="249"/>
      <point x="575" y="249" type="curve" smooth="yes"/>
      <point x="592" y="249"/>
      <point x="609" y="244"/>
      <point x="625" y="236" type="curve"/>
      <point x="625" y="12" type="line" smooth="yes"/>
      <point x="625" y="-4"/>
      <point x="640" y="-12"/>
      <point x="655" y="-12" type="curve" smooth="yes"/>
      <point x="670" y="-12"/>
      <point x="685" y="-4"/>
      <point x="685" y="12" type="curve" smooth="yes"/>
      <point x="685" y="231" type="line"/>
      <point x="702" y="242"/>
      <point x="722" y="249"/>
      <point x="743" y="249" type="curve" smooth="yes"/>
      <point x="765" y="249"/>
      <point x="785" y="243"/>
      <point x="797" y="235" type="curve" smooth="yes"/>
      <point x="806" y="229"/>
      <point x="809" y="227"/>
      <point x="815" y="227" type="curve" smooth="yes"/>
      <point x="826" y="227"/>
      <point x="832" y="239"/>
      <point x="832" y="251" type="curve" smooth="yes"/>
      <point x="832" y="263"/>
      <point x="826" y="276"/>
      <point x="813" y="283" type="curve" smooth="yes"/>
      <point x="792" y="294"/>
      <point x="771" y="303"/>
      <point x="740" y="303" type="curve" smooth="yes"/>
      <point x="720" y="303"/>
      <point x="702" y="298"/>
      <point x="685" y="290" type="curve"/>
      <point x="685" y="343" type="line"/>
      <point x="702" y="356"/>
      <point x="723" y="363"/>
      <point x="744" y="363" type="curve" smooth="yes"/>
      <point x="760" y="363"/>
      <point x="773" y="352"/>
      <point x="792" y="346" type="curve" smooth="yes"/>
      <point x="795" y="345"/>
      <point x="798" y="344"/>
      <point x="801" y="344" type="curve" smooth="yes"/>
      <point x="813" y="344"/>
      <point x="823" y="353"/>
      <point x="823" y="366" type="curve" smooth="yes"/>
      <point x="823" y="375"/>
      <point x="818" y="387"/>
      <point x="804" y="398" type="curve" smooth="yes"/>
      <point x="784" y="413"/>
      <point x="767" y="419"/>
      <point x="745" y="419" type="curve" smooth="yes"/>
      <point x="722" y="419"/>
      <point x="702" y="413"/>
    </contour>
  </outline>
</glyph>
<glyph name="u1098D" format="2">
  <advance width="707"/>
  <unicode hex="1098D"/>
  <outline>
    <contour>
      <point x="327" y="401" type="curve" smooth="yes"/>
      <point x="327" y="507"/>
      <point x="297" y="609"/>
      <point x="229" y="690" type="curve" smooth="yes"/>
      <point x="204" y="720"/>
      <point x="158" y="753"/>
      <point x="110" y="753" type="curve" smooth="yes"/>
      <point x="85" y="753"/>
      <point x="57" y="737"/>
      <point x="57" y="699" type="curve" smooth="yes"/>
      <point x="57" y="664"/>
      <point x="79" y="635"/>
      <point x="101" y="610" type="curve" smooth="yes"/>
      <point x="123" y="586"/>
      <point x="146" y="563"/>
      <point x="146" y="540" type="curve" smooth="yes"/>
      <point x="146" y="526"/>
      <point x="134" y="519"/>
      <point x="114" y="509" type="curve" smooth="yes"/>
      <point x="92" y="498"/>
      <point x="75" y="484"/>
      <point x="75" y="464" type="curve" smooth="yes"/>
      <point x="75" y="449"/>
      <point x="82" y="438"/>
      <point x="93" y="428" type="curve" smooth="yes"/>
      <point x="112" y="411"/>
      <point x="128" y="400"/>
      <point x="128" y="394" type="curve" smooth="yes"/>
      <point x="128" y="388"/>
      <point x="108" y="383"/>
      <point x="87" y="373" type="curve" smooth="yes"/>
      <point x="67" y="364"/>
      <point x="50" y="353"/>
      <point x="50" y="332" type="curve" smooth="yes"/>
      <point x="50" y="294"/>
      <point x="86" y="261"/>
      <point x="122" y="229" type="curve" smooth="yes"/>
      <point x="156" y="199"/>
      <point x="188" y="170"/>
      <point x="188" y="137" type="curve" smooth="yes"/>
      <point x="188" y="120"/>
      <point x="179" y="101"/>
      <point x="168" y="83" type="curve" smooth="yes"/>
      <point x="153" y="58"/>
      <point x="136" y="38"/>
      <point x="125" y="22" type="curve" smooth="yes"/>
      <point x="120" y="15"/>
      <point x="118" y="12"/>
      <point x="118" y="6" type="curve" smooth="yes"/>
      <point x="118" y="-6"/>
      <point x="141" y="-22"/>
      <point x="160" y="-22" type="curve" smooth="yes"/>
      <point x="163" y="-22"/>
      <point x="165" y="-21"/>
      <point x="167" y="-19" type="curve" smooth="yes"/>
      <point x="251" y="100"/>
      <point x="327" y="248"/>
    </contour>
    <contour>
      <point x="271" y="402" type="curve" smooth="yes"/>
      <point x="271" y="332"/>
      <point x="252" y="260"/>
      <point x="224" y="194" type="curve"/>
      <point x="209" y="218"/>
      <point x="184" y="241"/>
      <point x="162" y="261" type="curve" smooth="yes"/>
      <point x="133" y="288"/>
      <point x="107" y="309"/>
      <point x="107" y="325" type="curve" smooth="yes"/>
      <point x="107" y="336"/>
      <point x="130" y="343"/>
      <point x="151" y="352" type="curve" smooth="yes"/>
      <point x="170" y="360"/>
      <point x="188" y="370"/>
      <point x="188" y="383" type="curve" smooth="yes"/>
      <point x="188" y="395"/>
      <point x="177" y="411"/>
      <point x="155" y="430" type="curve" smooth="yes"/>
      <point x="141" y="442"/>
      <point x="130" y="452"/>
      <point x="130" y="457" type="curve" smooth="yes"/>
      <point x="130" y="464"/>
      <point x="149" y="474"/>
      <point x="168" y="485" type="curve" smooth="yes"/>
      <point x="186" y="496"/>
      <point x="202" y="512"/>
      <point x="202" y="534" type="curve" smooth="yes"/>
      <point x="202" y="566"/>
      <point x="179" y="598"/>
      <point x="156" y="626" type="curve" smooth="yes"/>
      <point x="133" y="653"/>
      <point x="111" y="677"/>
      <point x="111" y="693" type="curve" smooth="yes"/>
      <point x="111" y="696"/>
      <point x="111" y="702"/>
      <point x="117" y="702" type="curve" smooth="yes"/>
      <point x="140" y="701"/>
      <point x="178" y="668"/>
      <point x="197" y="643" type="curve" smooth="yes"/>
      <point x="245" y="580"/>
      <point x="271" y="482"/>
    </contour>
    <contour>
      <point x="380" y="401" type="curve" smooth="yes"/>
      <point x="380" y="248"/>
      <point x="437" y="84"/>
      <point x="540" y="-19" type="curve" smooth="yes"/>
      <point x="542" y="-21"/>
      <point x="544" y="-22"/>
      <point x="547" y="-22" type="curve" smooth="yes"/>
      <point x="566" y="-22"/>
      <point x="589" y="-6"/>
      <point x="589" y="6" type="curve" smooth="yes"/>
      <point x="589" y="12"/>
      <point x="587" y="15"/>
      <point x="582" y="22" type="curve" smooth="yes"/>
      <point x="571" y="38"/>
      <point x="555" y="58"/>
      <point x="539" y="83" type="curve" smooth="yes"/>
      <point x="527" y="101"/>
      <point x="519" y="120"/>
      <point x="519" y="137" type="curve" smooth="yes"/>
      <point x="519" y="170"/>
      <point x="551" y="199"/>
      <point x="585" y="229" type="curve" smooth="yes"/>
      <point x="621" y="260"/>
      <point x="657" y="294"/>
      <point x="657" y="332" type="curve" smooth="yes"/>
      <point x="657" y="353"/>
      <point x="639" y="365"/>
      <point x="620" y="373" type="curve" smooth="yes"/>
      <point x="599" y="382"/>
      <point x="579" y="388"/>
      <point x="579" y="394" type="curve" smooth="yes"/>
      <point x="579" y="400"/>
      <point x="595" y="411"/>
      <point x="614" y="428" type="curve" smooth="yes"/>
      <point x="625" y="438"/>
      <point x="632" y="449"/>
      <point x="632" y="464" type="curve" smooth="yes"/>
      <point x="632" y="484"/>
      <point x="615" y="498"/>
      <point x="593" y="509" type="curve" smooth="yes"/>
      <point x="573" y="519"/>
      <point x="561" y="526"/>
      <point x="561" y="540" type="curve" smooth="yes"/>
      <point x="561" y="563"/>
      <point x="583" y="585"/>
      <point x="606" y="610" type="curve" smooth="yes"/>
      <point x="629" y="635"/>
      <point x="650" y="664"/>
      <point x="650" y="699" type="curve" smooth="yes"/>
      <point x="650" y="737"/>
      <point x="622" y="753"/>
      <point x="597" y="753" type="curve" smooth="yes"/>
      <point x="549" y="753"/>
      <point x="503" y="720"/>
      <point x="478" y="690" type="curve" smooth="yes"/>
      <point x="410" y="609"/>
      <point x="380" y="507"/>
    </contour>
    <contour>
      <point x="436" y="402" type="curve" smooth="yes"/>
      <point x="436" y="482"/>
      <point x="462" y="580"/>
      <point x="510" y="643" type="curve" smooth="yes"/>
      <point x="529" y="668"/>
      <point x="567" y="702"/>
      <point x="590" y="702" type="curve" smooth="yes"/>
      <point x="596" y="702"/>
      <point x="596" y="696"/>
      <point x="596" y="693" type="curve" smooth="yes"/>
      <point x="596" y="677"/>
      <point x="574" y="653"/>
      <point x="551" y="626" type="curve" smooth="yes"/>
      <point x="528" y="598"/>
      <point x="505" y="566"/>
      <point x="505" y="534" type="curve" smooth="yes"/>
      <point x="505" y="512"/>
      <point x="520" y="497"/>
      <point x="539" y="485" type="curve" smooth="yes"/>
      <point x="558" y="473"/>
      <point x="577" y="464"/>
      <point x="577" y="457" type="curve" smooth="yes"/>
      <point x="577" y="452"/>
      <point x="566" y="442"/>
      <point x="552" y="430" type="curve" smooth="yes"/>
      <point x="530" y="411"/>
      <point x="519" y="395"/>
      <point x="519" y="383" type="curve" smooth="yes"/>
      <point x="519" y="370"/>
      <point x="537" y="360"/>
      <point x="556" y="352" type="curve" smooth="yes"/>
      <point x="577" y="343"/>
      <point x="600" y="336"/>
      <point x="600" y="325" type="curve" smooth="yes"/>
      <point x="600" y="309"/>
      <point x="574" y="287"/>
      <point x="545" y="261" type="curve" smooth="yes"/>
      <point x="522" y="241"/>
      <point x="498" y="218"/>
      <point x="483" y="194" type="curve"/>
      <point x="455" y="260"/>
      <point x="436" y="332"/>
    </contour>
  </outline>
</glyph>
<glyph name="u1098E" format="2">
  <advance width="947"/>
  <unicode hex="1098E"/>
  <outline>
    <contour>
      <point x="897" y="78" type="curve" smooth="yes"/>
      <point x="897" y="207" type="line" smooth="yes"/>
      <point x="897" y="249"/>
      <point x="887" y="285"/>
      <point x="841" y="285" type="curve" smooth="yes"/>
      <point x="283" y="285" type="line" smooth="yes"/>
      <point x="237" y="285"/>
      <point x="227" y="249"/>
      <point x="227" y="207" type="curve" smooth="yes"/>
      <point x="227" y="78" type="line" smooth="yes"/>
      <point x="227" y="36"/>
      <point x="237" y="0"/>
      <point x="283" y="0" type="curve" smooth="yes"/>
      <point x="841" y="0" type="line" smooth="yes"/>
      <point x="887" y="0"/>
      <point x="897" y="36"/>
    </contour>
    <contour>
      <point x="287" y="103" type="curve" smooth="yes"/>
      <point x="287" y="182" type="line" smooth="yes"/>
      <point x="287" y="222"/>
      <point x="295" y="227"/>
      <point x="320" y="227" type="curve" smooth="yes"/>
      <point x="804" y="227" type="line" smooth="yes"/>
      <point x="829" y="227"/>
      <point x="837" y="222"/>
      <point x="837" y="182" type="curve" smooth="yes"/>
      <point x="837" y="103" type="line" smooth="yes"/>
      <point x="837" y="63"/>
      <point x="829" y="58"/>
      <point x="804" y="58" type="curve" smooth="yes"/>
      <point x="320" y="58" type="line" smooth="yes"/>
      <point x="295" y="58"/>
      <point x="287" y="63"/>
    </contour>
    <contour>
      <point x="50" y="143" type="curve" smooth="yes"/>
      <point x="50" y="112"/>
      <point x="74" y="88"/>
      <point x="105" y="88" type="curve" smooth="yes"/>
      <point x="136" y="88"/>
      <point x="160" y="112"/>
      <point x="160" y="143" type="curve" smooth="yes"/>
      <point x="160" y="174"/>
      <point x="136" y="198"/>
      <point x="105" y="198" type="curve" smooth="yes"/>
      <point x="74" y="198"/>
      <point x="50" y="174"/>
    </contour>
  </outline>
</glyph>
<glyph name="u10990" format="2">
  <advance width="1528"/>
  <unicode hex="10990"/>
  <outline>
    <contour>
      <point x="1182" y="263" type="curve" smooth="yes"/>
      <point x="1153" y="239"/>
      <point x="1126" y="215"/>
      <point x="1113" y="186" type="curve"/>
      <point x="983" y="109"/>
      <point x="831" y="62"/>
      <point x="703" y="62" type="curve" smooth="yes"/>
      <point x="685" y="62" type="line"/>
      <point x="700" y="92"/>
      <point x="705" y="131"/>
      <point x="705" y="171" type="curve" smooth="yes"/>
      <point x="705" y="197"/>
      <point x="703" y="210"/>
      <point x="703" y="222" type="curve" smooth="yes"/>
      <point x="703" y="240"/>
      <point x="711" y="255"/>
      <point x="711" y="269" type="curve" smooth="yes"/>
      <point x="711" y="283"/>
      <point x="696" y="294"/>
      <point x="681" y="294" type="curve" smooth="yes"/>
      <point x="670" y="294"/>
      <point x="659" y="289"/>
      <point x="652" y="275" type="curve" smooth="yes"/>
      <point x="643" y="257"/>
      <point x="643" y="241"/>
      <point x="643" y="218" type="curve" smooth="yes"/>
      <point x="643" y="200"/>
      <point x="644" y="175"/>
      <point x="644" y="157" type="curve" smooth="yes"/>
      <point x="644" y="102"/>
      <point x="634" y="58"/>
      <point x="554" y="58" type="curve" smooth="yes"/>
      <point x="77" y="58" type="line" smooth="yes"/>
      <point x="59" y="58"/>
      <point x="50" y="43"/>
      <point x="50" y="28" type="curve" smooth="yes"/>
      <point x="50" y="14"/>
      <point x="58" y="0"/>
      <point x="77" y="0" type="curve" smooth="yes"/>
      <point x="577" y="0" type="line" smooth="yes"/>
      <point x="599" y="0"/>
      <point x="616" y="4"/>
      <point x="632" y="10" type="curve"/>
      <point x="654" y="8"/>
      <point x="684" y="6"/>
      <point x="703" y="6" type="curve" smooth="yes"/>
      <point x="841" y="6"/>
      <point x="989" y="54"/>
      <point x="1108" y="119" type="curve"/>
      <point x="1113" y="95"/>
      <point x="1126" y="74"/>
      <point x="1142" y="58" type="curve"/>
      <point x="1042" y="58" type="line" smooth="yes"/>
      <point x="1022" y="58"/>
      <point x="1012" y="43"/>
      <point x="1012" y="29" type="curve" smooth="yes"/>
      <point x="1012" y="14"/>
      <point x="1022" y="0"/>
      <point x="1042" y="0" type="curve" smooth="yes"/>
      <point x="1328" y="0" type="line" smooth="yes"/>
      <point x="1428" y="0"/>
      <point x="1478" y="65"/>
      <point x="1478" y="145" type="curve" smooth="yes"/>
      <point x="1478" y="249"/>
      <point x="1416" y="366"/>
      <point x="1305" y="398" type="curve"/>
      <point x="1322" y="417"/>
      <point x="1346" y="433"/>
      <point x="1372" y="433" type="curve" smooth="yes"/>
      <point x="1382" y="433"/>
      <point x="1399" y="425"/>
      <point x="1410" y="425" type="curve" smooth="yes"/>
      <point x="1428" y="425"/>
      <point x="1435" y="442"/>
      <point x="1435" y="455" type="curve" smooth="yes"/>
      <point x="1435" y="463"/>
      <point x="1435" y="473"/>
      <point x="1420" y="479" type="curve" smooth="yes"/>
      <point x="1409" y="483"/>
      <point x="1388" y="487"/>
      <point x="1368" y="487" type="curve" smooth="yes"/>
      <point x="1326" y="487"/>
      <point x="1286" y="470"/>
      <point x="1251" y="405" type="curve"/>
      <point x="1213" y="405"/>
      <point x="1051" y="386"/>
      <point x="968" y="386" type="curve" smooth="yes"/>
      <point x="831" y="386"/>
      <point x="766" y="404"/>
      <point x="717" y="451" type="curve" smooth="yes"/>
      <point x="683" y="484"/>
      <point x="661" y="524"/>
      <point x="609" y="554" type="curve" smooth="yes"/>
      <point x="555" y="585"/>
      <point x="518" y="610"/>
      <point x="518" y="650" type="curve" smooth="yes"/>
      <point x="518" y="656"/>
      <point x="520" y="662"/>
      <point x="520" y="669" type="curve" smooth="yes"/>
      <point x="520" y="672"/>
      <point x="519" y="676"/>
      <point x="518" y="679" type="curve"/>
      <point x="494" y="689" type="line"/>
      <point x="463" y="679"/>
      <point x="427" y="647"/>
      <point x="406" y="627" type="curve" smooth="yes"/>
      <point x="304" y="526" type="line" smooth="yes"/>
      <point x="275" y="498"/>
      <point x="222" y="466"/>
      <point x="222" y="428" type="curve" smooth="yes"/>
      <point x="222" y="378"/>
      <point x="259" y="317"/>
      <point x="298" y="317" type="curve" smooth="yes"/>
      <point x="332" y="317"/>
      <point x="361" y="343"/>
      <point x="394" y="343" type="curve" smooth="yes"/>
      <point x="426" y="343"/>
      <point x="438" y="322"/>
      <point x="458" y="288" type="curve" smooth="yes"/>
      <point x="478" y="253"/>
      <point x="487" y="237"/>
      <point x="487" y="213" type="curve" smooth="yes"/>
      <point x="487" y="174"/>
      <point x="470" y="157"/>
      <point x="425" y="157" type="curve" smooth="yes"/>
      <point x="167" y="157" type="line" smooth="yes"/>
      <point x="149" y="157"/>
      <point x="139" y="141"/>
      <point x="139" y="126" type="curve" smooth="yes"/>
      <point x="139" y="112"/>
      <point x="147" y="99"/>
      <point x="167" y="99" type="curve" smooth="yes"/>
      <point x="443" y="99" type="line" smooth="yes"/>
      <point x="520" y="99"/>
      <point x="553" y="166"/>
      <point x="553" y="210" type="curve" smooth="yes"/>
      <point x="553" y="232"/>
      <point x="540" y="271"/>
      <point x="522" y="306" type="curve" smooth="yes"/>
      <point x="490" y="368"/>
      <point x="453" y="404"/>
      <point x="406" y="404" type="curve" smooth="yes"/>
      <point x="376" y="404"/>
      <point x="347" y="377"/>
      <point x="322" y="377" type="curve" smooth="yes"/>
      <point x="295" y="377"/>
      <point x="282" y="405"/>
      <point x="282" y="427" type="curve" smooth="yes"/>
      <point x="282" y="441"/>
      <point x="310" y="460"/>
      <point x="326" y="475" type="curve" smooth="yes"/>
      <point x="434" y="576" type="line" smooth="yes"/>
      <point x="449" y="590"/>
      <point x="465" y="605"/>
      <point x="478" y="615" type="curve"/>
      <point x="478" y="558"/>
      <point x="539" y="533"/>
      <point x="588" y="500" type="curve" smooth="yes"/>
      <point x="620" y="478"/>
      <point x="646" y="451"/>
      <point x="669" y="420" type="curve" smooth="yes"/>
      <point x="718" y="352"/>
      <point x="799" y="326"/>
      <point x="972" y="326" type="curve" smooth="yes"/>
      <point x="1066" y="326"/>
      <point x="1146" y="345"/>
      <point x="1263" y="345" type="curve" smooth="yes"/>
      <point x="1355" y="345"/>
      <point x="1414" y="227"/>
      <point x="1414" y="145" type="curve" smooth="yes"/>
      <point x="1414" y="101"/>
      <point x="1394" y="58"/>
      <point x="1331" y="58" type="curve" smooth="yes"/>
      <point x="1283" y="58" type="line" smooth="yes"/>
      <point x="1229" y="58"/>
      <point x="1168" y="77"/>
      <point x="1168" y="149" type="curve" smooth="yes"/>
      <point x="1168" y="181"/>
      <point x="1184" y="195"/>
      <point x="1221" y="226" type="curve" smooth="yes"/>
      <point x="1231" y="234"/>
      <point x="1231" y="243"/>
      <point x="1231" y="247" type="curve" smooth="yes"/>
      <point x="1231" y="269"/>
      <point x="1213" y="272"/>
      <point x="1205" y="272" type="curve" smooth="yes"/>
      <point x="1195" y="272"/>
      <point x="1189" y="269"/>
    </contour>
  </outline>
</glyph>
<glyph name="u10992" format="2">
  <advance width="746"/>
  <unicode hex="10992"/>
  <outline>
    <contour>
      <point x="613" y="720" type="curve"/>
      <point x="133" y="720" type="line" smooth="yes"/>
      <point x="87" y="720"/>
      <point x="86" y="697"/>
      <point x="86" y="673" type="curve" smooth="yes"/>
      <point x="86" y="598" type="line" smooth="yes"/>
      <point x="86" y="579"/>
      <point x="96" y="555"/>
      <point x="125" y="555" type="curve" smooth="yes"/>
      <point x="172" y="555" type="line" smooth="yes"/>
      <point x="199" y="555"/>
      <point x="204" y="547"/>
      <point x="204" y="522" type="curve" smooth="yes"/>
      <point x="204" y="492" type="line" smooth="yes"/>
      <point x="204" y="467"/>
      <point x="197" y="459"/>
      <point x="172" y="459" type="curve" smooth="yes"/>
      <point x="105" y="459" type="line" smooth="yes"/>
      <point x="54" y="459"/>
      <point x="50" y="420"/>
      <point x="50" y="399" type="curve" smooth="yes"/>
      <point x="50" y="356"/>
      <point x="63" y="323"/>
      <point x="72" y="302" type="curve" smooth="yes"/>
      <point x="172" y="78" type="line" smooth="yes"/>
      <point x="190" y="37"/>
      <point x="220" y="0"/>
      <point x="262" y="0" type="curve" smooth="yes"/>
      <point x="484" y="0" type="line" smooth="yes"/>
      <point x="526" y="0"/>
      <point x="556" y="37"/>
      <point x="574" y="78" type="curve" smooth="yes"/>
      <point x="674" y="302" type="line" smooth="yes"/>
      <point x="683" y="323"/>
      <point x="696" y="356"/>
      <point x="696" y="399" type="curve" smooth="yes"/>
      <point x="696" y="420"/>
      <point x="692" y="459"/>
      <point x="641" y="459" type="curve" smooth="yes"/>
      <point x="574" y="459" type="line" smooth="yes"/>
      <point x="549" y="459"/>
      <point x="542" y="467"/>
      <point x="542" y="492" type="curve" smooth="yes"/>
      <point x="542" y="522" type="line" smooth="yes"/>
      <point x="542" y="547"/>
      <point x="547" y="555"/>
      <point x="574" y="555" type="curve" smooth="yes"/>
      <point x="621" y="555" type="line" smooth="yes"/>
      <point x="650" y="555"/>
      <point x="660" y="579"/>
      <point x="660" y="598" type="curve" smooth="yes"/>
      <point x="660" y="673" type="line" smooth="yes"/>
      <point x="660" y="697"/>
      <point x="659" y="720"/>
    </contour>
    <contour>
      <point x="170" y="662" type="curve"/>
      <point x="576" y="662" type="line" smooth="yes"/>
      <point x="591" y="662"/>
      <point x="600" y="660"/>
      <point x="600" y="650" type="curve" smooth="yes"/>
      <point x="600" y="631" type="line" smooth="yes"/>
      <point x="600" y="621"/>
      <point x="598" y="613"/>
      <point x="584" y="613" type="curve" smooth="yes"/>
      <point x="534" y="613" type="line" smooth="yes"/>
      <point x="495" y="613"/>
      <point x="482" y="593"/>
      <point x="482" y="551" type="curve" smooth="yes"/>
      <point x="482" y="475" type="line" smooth="yes"/>
      <point x="482" y="429"/>
      <point x="505" y="401"/>
      <point x="547" y="401" type="curve" smooth="yes"/>
      <point x="599" y="401" type="line" smooth="yes"/>
      <point x="622" y="401"/>
      <point x="631" y="395"/>
      <point x="631" y="375" type="curve" smooth="yes"/>
      <point x="631" y="353"/>
      <point x="617" y="320"/>
      <point x="602" y="288" type="curve" smooth="yes"/>
      <point x="515" y="100" type="line" smooth="yes"/>
      <point x="505" y="78"/>
      <point x="492" y="58"/>
      <point x="457" y="58" type="curve" smooth="yes"/>
      <point x="286" y="58" type="line" smooth="yes"/>
      <point x="254" y="58"/>
      <point x="242" y="76"/>
      <point x="231" y="100" type="curve" smooth="yes"/>
      <point x="144" y="288" type="line" smooth="yes"/>
      <point x="129" y="320"/>
      <point x="115" y="353"/>
      <point x="115" y="374" type="curve" smooth="yes"/>
      <point x="115" y="395"/>
      <point x="124" y="401"/>
      <point x="147" y="401" type="curve" smooth="yes"/>
      <point x="199" y="401" type="line" smooth="yes"/>
      <point x="241" y="401"/>
      <point x="264" y="429"/>
      <point x="264" y="475" type="curve" smooth="yes"/>
      <point x="264" y="551" type="line" smooth="yes"/>
      <point x="264" y="593"/>
      <point x="251" y="613"/>
      <point x="212" y="613" type="curve" smooth="yes"/>
      <point x="162" y="613" type="line" smooth="yes"/>
      <point x="148" y="613"/>
      <point x="146" y="621"/>
      <point x="146" y="631" type="curve" smooth="yes"/>
      <point x="146" y="650" type="line" smooth="yes"/>
      <point x="146" y="660"/>
      <point x="155" y="662"/>
    </contour>
  </outline>
</glyph>
<glyph name="u10996" format="2">
  <advance width="982"/>
  <unicode hex="10996"/>
  <outline>
    <contour>
      <point x="885" y="195" type="curve" smooth="yes"/>
      <point x="867" y="203"/>
      <point x="838" y="218"/>
      <point x="815" y="232" type="curve"/>
      <point x="846" y="239"/>
      <point x="874" y="248"/>
      <point x="897" y="258" type="curve" smooth="yes"/>
      <point x="920" y="268"/>
      <point x="932" y="280"/>
      <point x="932" y="292" type="curve" smooth="yes"/>
      <point x="932" y="302"/>
      <point x="923" y="312"/>
      <point x="903" y="319" type="curve" smooth="yes"/>
      <point x="857" y="335"/>
      <point x="778" y="383"/>
      <point x="689" y="432" type="curve" smooth="yes"/>
      <point x="576" y="494"/>
      <point x="448" y="559"/>
      <point x="348" y="569" type="curve"/>
      <point x="381" y="604"/>
      <point x="406" y="647"/>
      <point x="406" y="712" type="curve" smooth="yes"/>
      <point x="406" y="794"/>
      <point x="354" y="840"/>
      <point x="287" y="840" type="curve" smooth="yes"/>
      <point x="219" y="840"/>
      <point x="170" y="797"/>
      <point x="170" y="725" type="curve" smooth="yes"/>
      <point x="170" y="720"/>
      <point x="172" y="710"/>
      <point x="172" y="705" type="curve"/>
      <point x="134" y="655"/>
      <point x="50" y="659"/>
      <point x="50" y="631" type="curve" smooth="yes"/>
      <point x="50" y="616"/>
      <point x="59" y="598"/>
      <point x="70" y="598" type="curve" smooth="yes"/>
      <point x="99" y="598"/>
      <point x="165" y="615"/>
      <point x="205" y="635" type="curve"/>
      <point x="220" y="620"/>
      <point x="254" y="610"/>
      <point x="280" y="610" type="curve" smooth="yes"/>
      <point x="290" y="610"/>
      <point x="299" y="611"/>
      <point x="308" y="613" type="curve"/>
      <point x="249" y="541"/>
      <point x="139" y="499"/>
      <point x="139" y="396" type="curve" smooth="yes"/>
      <point x="139" y="293"/>
      <point x="211" y="228"/>
      <point x="306" y="187" type="curve"/>
      <point x="254" y="58" type="line"/>
      <point x="181" y="58" type="line" smooth="yes"/>
      <point x="166" y="58"/>
      <point x="158" y="43"/>
      <point x="158" y="28" type="curve" smooth="yes"/>
      <point x="158" y="14"/>
      <point x="165" y="0"/>
      <point x="181" y="0" type="curve" smooth="yes"/>
      <point x="265" y="0" type="line" smooth="yes"/>
      <point x="281" y="0"/>
      <point x="303" y="14"/>
      <point x="324" y="71" type="curve" smooth="yes"/>
      <point x="360" y="167" type="line"/>
      <point x="386" y="159"/>
      <point x="412" y="151"/>
      <point x="438" y="146" type="curve"/>
      <point x="463" y="58" type="line"/>
      <point x="391" y="58" type="line" smooth="yes"/>
      <point x="377" y="58"/>
      <point x="369" y="42"/>
      <point x="369" y="27" type="curve" smooth="yes"/>
      <point x="369" y="13"/>
      <point x="376" y="0"/>
      <point x="391" y="0" type="curve" smooth="yes"/>
      <point x="502" y="0" type="line" smooth="yes"/>
      <point x="516" y="0"/>
      <point x="521" y="32"/>
      <point x="521" y="49" type="curve" smooth="yes"/>
      <point x="521" y="59"/>
      <point x="520" y="74"/>
      <point x="516" y="87" type="curve" smooth="yes"/>
      <point x="503" y="134" type="line"/>
      <point x="582" y="122"/>
      <point x="656" y="120"/>
      <point x="702" y="120" type="curve" smooth="yes"/>
      <point x="761" y="120"/>
      <point x="902" y="136"/>
      <point x="902" y="178" type="curve" smooth="yes"/>
      <point x="902" y="183"/>
      <point x="898" y="189"/>
    </contour>
    <contour>
      <point x="806" y="191" type="curve"/>
      <point x="786" y="186"/>
      <point x="731" y="180"/>
      <point x="701" y="180" type="curve" smooth="yes"/>
      <point x="482" y="180"/>
      <point x="198" y="235"/>
      <point x="198" y="383" type="curve" smooth="yes"/>
      <point x="198" y="442"/>
      <point x="238" y="477"/>
      <point x="284" y="514" type="curve"/>
      <point x="297" y="514" type="line" smooth="yes"/>
      <point x="409" y="514"/>
      <point x="524" y="457"/>
      <point x="641" y="395" type="curve" smooth="yes"/>
      <point x="703" y="362"/>
      <point x="765" y="327"/>
      <point x="828" y="298" type="curve"/>
      <point x="781" y="280"/>
      <point x="730" y="275"/>
      <point x="673" y="275" type="curve" smooth="yes"/>
      <point x="540" y="275"/>
      <point x="449" y="333"/>
      <point x="411" y="373" type="curve" smooth="yes"/>
      <point x="402" y="382"/>
      <point x="393" y="385"/>
      <point x="388" y="385" type="curve" smooth="yes"/>
      <point x="371" y="385"/>
      <point x="354" y="362"/>
      <point x="354" y="352" type="curve" smooth="yes"/>
      <point x="354" y="348"/>
      <point x="356" y="342"/>
      <point x="361" y="336" type="curve" smooth="yes"/>
      <point x="418" y="270"/>
      <point x="547" y="215"/>
      <point x="671" y="215" type="curve" smooth="yes"/>
      <point x="695" y="215"/>
      <point x="722" y="217"/>
      <point x="750" y="220" type="curve"/>
      <point x="770" y="208"/>
      <point x="792" y="197"/>
    </contour>
    <contour>
      <point x="289" y="664" type="curve" smooth="yes"/>
      <point x="254" y="664"/>
      <point x="224" y="688"/>
      <point x="224" y="727" type="curve" smooth="yes"/>
      <point x="224" y="761"/>
      <point x="253" y="786"/>
      <point x="284" y="786" type="curve" smooth="yes"/>
      <point x="317" y="786"/>
      <point x="345" y="768"/>
      <point x="345" y="709" type="curve" smooth="yes"/>
      <point x="345" y="698"/>
      <point x="344" y="689"/>
      <point x="342" y="679" type="curve"/>
      <point x="326" y="670"/>
      <point x="312" y="664"/>
    </contour>
  </outline>
</glyph>
<glyph name="u10997" format="2">
  <advance width="512"/>
  <unicode hex="10997"/>
  <outline>
    <contour>
      <point x="257" y="748" type="curve" smooth="yes"/>
      <point x="213" y="748"/>
      <point x="193" y="711"/>
      <point x="155" y="528" type="curve" smooth="yes"/>
      <point x="53" y="39" type="line" smooth="yes"/>
      <point x="51" y="32"/>
      <point x="50" y="26"/>
      <point x="50" y="17" type="curve" smooth="yes"/>
      <point x="50" y="8"/>
      <point x="53" y="0"/>
      <point x="67" y="0" type="curve" smooth="yes"/>
      <point x="448" y="0" type="line" smooth="yes"/>
      <point x="460" y="0"/>
      <point x="464" y="6"/>
      <point x="464" y="17" type="curve" smooth="yes"/>
      <point x="464" y="24"/>
      <point x="462" y="34"/>
      <point x="461" y="39" type="curve" smooth="yes"/>
      <point x="355" y="533" type="line" smooth="yes"/>
      <point x="316" y="713"/>
      <point x="296" y="748"/>
    </contour>
    <contour>
      <point x="297" y="529" type="curve" smooth="yes"/>
      <point x="393" y="58" type="line"/>
      <point x="118" y="58" type="line"/>
      <point x="214" y="529" type="line" smooth="yes"/>
      <point x="242" y="665"/>
      <point x="245" y="681"/>
      <point x="257" y="681" type="curve" smooth="yes"/>
      <point x="266" y="681"/>
      <point x="269" y="666"/>
    </contour>
  </outline>
</glyph>
<glyph name="u10998" format="2">
  <advance width="1053"/>
  <unicode hex="10998"/>
  <outline>
    <contour>
      <point x="50" y="460" type="curve" smooth="yes"/>
      <point x="50" y="405"/>
      <point x="100" y="356"/>
      <point x="156" y="356" type="curve" smooth="yes"/>
      <point x="205" y="356"/>
      <point x="247" y="393"/>
      <point x="257" y="440" type="curve"/>
      <point x="739" y="440" type="line" smooth="yes"/>
      <point x="753" y="440"/>
      <point x="767" y="439"/>
      <point x="780" y="437" type="curve"/>
      <point x="646" y="303" type="line" smooth="yes"/>
      <point x="632" y="289"/>
      <point x="627" y="277"/>
      <point x="627" y="265" type="curve" smooth="yes"/>
      <point x="627" y="248"/>
      <point x="638" y="233"/>
      <point x="655" y="216" type="curve" smooth="yes"/>
      <point x="779" y="92" type="line"/>
      <point x="766" y="90"/>
      <point x="753" y="90"/>
      <point x="739" y="90" type="curve" smooth="yes"/>
      <point x="257" y="90" type="line"/>
      <point x="247" y="138"/>
      <point x="205" y="174"/>
      <point x="156" y="174" type="curve" smooth="yes"/>
      <point x="100" y="174"/>
      <point x="50" y="127"/>
      <point x="50" y="69" type="curve" smooth="yes"/>
      <point x="50" y="14"/>
      <point x="100" y="-35"/>
      <point x="156" y="-35" type="curve" smooth="yes"/>
      <point x="199" y="-35"/>
      <point x="236" y="-6"/>
      <point x="252" y="32" type="curve"/>
      <point x="772" y="32" type="line" smooth="yes"/>
      <point x="926" y="32"/>
      <point x="1003" y="145"/>
      <point x="1003" y="266" type="curve" smooth="yes"/>
      <point x="1003" y="386"/>
      <point x="925" y="498"/>
      <point x="772" y="498" type="curve" smooth="yes"/>
      <point x="252" y="498" type="line"/>
      <point x="237" y="537"/>
      <point x="199" y="565"/>
      <point x="156" y="565" type="curve" smooth="yes"/>
      <point x="100" y="565"/>
      <point x="50" y="518"/>
    </contour>
    <contour>
      <point x="938" y="342"/>
      <point x="938" y="262" type="curve" smooth="yes"/>
      <point x="938" y="188"/>
      <point x="906" y="134"/>
      <point x="841" y="107" type="curve"/>
      <point x="717" y="232" type="line" smooth="yes"/>
      <point x="702" y="247"/>
      <point x="695" y="256"/>
      <point x="695" y="265" type="curve" smooth="yes"/>
      <point x="695" y="272"/>
      <point x="700" y="279"/>
      <point x="708" y="287" type="curve" smooth="yes"/>
      <point x="843" y="422" type="line"/>
      <point x="907" y="395"/>
    </contour>
    <contour>
      <point x="104" y="69" type="curve" smooth="yes"/>
      <point x="104" y="99"/>
      <point x="127" y="122"/>
      <point x="156" y="122" type="curve" smooth="yes"/>
      <point x="186" y="122"/>
      <point x="209" y="99"/>
      <point x="209" y="69" type="curve" smooth="yes"/>
      <point x="209" y="40"/>
      <point x="186" y="17"/>
      <point x="156" y="17" type="curve" smooth="yes"/>
      <point x="127" y="17"/>
      <point x="104" y="40"/>
    </contour>
    <contour>
      <point x="104" y="460" type="curve" smooth="yes"/>
      <point x="104" y="490"/>
      <point x="127" y="513"/>
      <point x="156" y="513" type="curve" smooth="yes"/>
      <point x="186" y="513"/>
      <point x="209" y="490"/>
      <point x="209" y="460" type="curve" smooth="yes"/>
      <point x="209" y="431"/>
      <point x="186" y="408"/>
      <point x="156" y="408" type="curve" smooth="yes"/>
      <point x="127" y="408"/>
      <point x="104" y="431"/>
    </contour>
  </outline>
</glyph>
<glyph name="u10999" format="2">
  <advance width="1506"/>
  <unicode hex="10999"/>
  <outline>
    <contour>
      <point x="189" y="154" type="curve"/>
      <point x="1317" y="154" type="line" smooth="yes"/>
      <point x="1433" y="154"/>
      <point x="1456" y="240"/>
      <point x="1456" y="282" type="curve" smooth="yes"/>
      <point x="1456" y="311" type="line" smooth="yes"/>
      <point x="1456" y="353"/>
      <point x="1433" y="439"/>
      <point x="1317" y="439" type="curve" smooth="yes"/>
      <point x="189" y="439" type="line" smooth="yes"/>
      <point x="73" y="439"/>
      <point x="50" y="353"/>
      <point x="50" y="311" type="curve" smooth="yes"/>
      <point x="50" y="282" type="line" smooth="yes"/>
      <point x="50" y="240"/>
      <point x="73" y="154"/>
    </contour>
    <contour>
      <point x="217" y="381" type="curve" smooth="yes"/>
      <point x="1289" y="381" type="line" smooth="yes"/>
      <point x="1374" y="381"/>
      <point x="1396" y="344"/>
      <point x="1396" y="304" type="curve" smooth="yes"/>
      <point x="1396" y="289" type="line" smooth="yes"/>
      <point x="1396" y="249"/>
      <point x="1374" y="212"/>
      <point x="1289" y="212" type="curve" smooth="yes"/>
      <point x="217" y="212" type="line" smooth="yes"/>
      <point x="132" y="212"/>
      <point x="110" y="249"/>
      <point x="110" y="289" type="curve" smooth="yes"/>
      <point x="110" y="304" type="line" smooth="yes"/>
      <point x="110" y="344"/>
      <point x="132" y="381"/>
    </contour>
  </outline>
</glyph>
<glyph name="u1099A" format="2">
  <advance width="920"/>
  <unicode hex="1099A"/>
  <outline>
    <contour>
      <point x="143" y="579" type="curve"/>
      <point x="777" y="579" type="line" smooth="yes"/>
      <point x="792" y="579"/>
      <point x="800" y="593"/>
      <point x="800" y="608" type="curve" smooth="yes"/>
      <point x="800" y="622"/>
      <point x="792" y="637"/>
      <point x="777" y="637" type="curve" smooth="yes"/>
      <point x="143" y="637" type="line" smooth="yes"/>
      <point x="128" y="637"/>
      <point x="120" y="622"/>
      <point x="120" y="608" type="curve" smooth="yes"/>
      <point x="120" y="593"/>
      <point x="128" y="579"/>
    </contour>
    <contour>
      <point x="460" y="103" type="curve"/>
      <point x="460" y="293" type="line" smooth="yes"/>
      <point x="460" y="307"/>
      <point x="445" y="314"/>
      <point x="430" y="314" type="curve" smooth="yes"/>
      <point x="415" y="314"/>
      <point x="400" y="307"/>
      <point x="400" y="293" type="curve" smooth="yes"/>
      <point x="400" y="78" type="line" smooth="yes"/>
      <point x="400" y="36"/>
      <point x="410" y="0"/>
      <point x="456" y="0" type="curve" smooth="yes"/>
      <point x="764" y="0" type="line" smooth="yes"/>
      <point x="810" y="0"/>
      <point x="820" y="36"/>
      <point x="820" y="78" type="curve" smooth="yes"/>
      <point x="820" y="417" type="line" smooth="yes"/>
      <point x="820" y="459"/>
      <point x="810" y="495"/>
      <point x="764" y="495" type="curve" smooth="yes"/>
      <point x="156" y="495" type="line" smooth="yes"/>
      <point x="110" y="495"/>
      <point x="100" y="459"/>
      <point x="100" y="417" type="curve" smooth="yes"/>
      <point x="100" y="9" type="line" smooth="yes"/>
      <point x="100" y="-5"/>
      <point x="115" y="-12"/>
      <point x="130" y="-12" type="curve" smooth="yes"/>
      <point x="145" y="-12"/>
      <point x="160" y="-5"/>
      <point x="160" y="9" type="curve" smooth="yes"/>
      <point x="160" y="392" type="line" smooth="yes"/>
      <point x="160" y="432"/>
      <point x="168" y="437"/>
      <point x="193" y="437" type="curve" smooth="yes"/>
      <point x="727" y="437" type="line" smooth="yes"/>
      <point x="752" y="437"/>
      <point x="760" y="432"/>
      <point x="760" y="392" type="curve" smooth="yes"/>
      <point x="760" y="103" type="line" smooth="yes"/>
      <point x="760" y="63"/>
      <point x="752" y="58"/>
      <point x="727" y="58" type="curve" smooth="yes"/>
      <point x="493" y="58" type="line" smooth="yes"/>
      <point x="468" y="58"/>
      <point x="460" y="63"/>
    </contour>
  </outline>
</glyph>
<glyph name="u1099B" format="2">
  <advance width="795"/>
  <unicode hex="1099B"/>
  <outline>
    <contour>
      <point x="193" y="437" type="curve"/>
      <point x="672" y="437" type="line" smooth="yes"/>
      <point x="687" y="437"/>
      <point x="695" y="451"/>
      <point x="695" y="466" type="curve" smooth="yes"/>
      <point x="695" y="480"/>
      <point x="687" y="495"/>
      <point x="672" y="495" type="curve" smooth="yes"/>
      <point x="156" y="495" type="line" smooth="yes"/>
      <point x="110" y="495"/>
      <point x="100" y="459"/>
      <point x="100" y="417" type="curve" smooth="yes"/>
      <point x="100" y="78" type="line" smooth="yes"/>
      <point x="100" y="36"/>
      <point x="110" y="0"/>
      <point x="156" y="0" type="curve" smooth="yes"/>
      <point x="634" y="0" type="line" smooth="yes"/>
      <point x="680" y="0"/>
      <point x="690" y="36"/>
      <point x="690" y="78" type="curve" smooth="yes"/>
      <point x="690" y="227" type="line" smooth="yes"/>
      <point x="690" y="269"/>
      <point x="680" y="305"/>
      <point x="634" y="305" type="curve" smooth="yes"/>
      <point x="391" y="305" type="line" smooth="yes"/>
      <point x="376" y="305"/>
      <point x="368" y="290"/>
      <point x="368" y="276" type="curve" smooth="yes"/>
      <point x="368" y="261"/>
      <point x="376" y="247"/>
      <point x="391" y="247" type="curve" smooth="yes"/>
      <point x="597" y="247" type="line" smooth="yes"/>
      <point x="622" y="247"/>
      <point x="630" y="242"/>
      <point x="630" y="202" type="curve" smooth="yes"/>
      <point x="630" y="103" type="line" smooth="yes"/>
      <point x="630" y="63"/>
      <point x="622" y="58"/>
      <point x="597" y="58" type="curve" smooth="yes"/>
      <point x="193" y="58" type="line" smooth="yes"/>
      <point x="168" y="58"/>
      <point x="160" y="63"/>
      <point x="160" y="103" type="curve" smooth="yes"/>
      <point x="160" y="392" type="line" smooth="yes"/>
      <point x="160" y="432"/>
      <point x="168" y="437"/>
    </contour>
  </outline>
</glyph>
<glyph name="u1099F" format="2">
  <advance width="839"/>
  <unicode hex="1099F"/>
  <outline>
    <contour>
      <point x="575" y="641" type="curve" smooth="yes"/>
      <point x="575" y="734"/>
      <point x="510" y="792"/>
      <point x="421" y="792" type="curve" smooth="yes"/>
      <point x="329" y="792"/>
      <point x="264" y="735"/>
      <point x="264" y="641" type="curve" smooth="yes"/>
      <point x="264" y="590"/>
      <point x="298" y="505"/>
      <point x="333" y="447" type="curve"/>
      <point x="308" y="460"/>
      <point x="232" y="500"/>
      <point x="117" y="561" type="curve" smooth="yes"/>
      <point x="103" y="568"/>
      <point x="91" y="575"/>
      <point x="79" y="575" type="curve" smooth="yes"/>
      <point x="63" y="575"/>
      <point x="50" y="565"/>
      <point x="50" y="538" type="curve" smooth="yes"/>
      <point x="50" y="225" type="line" smooth="yes"/>
      <point x="50" y="208"/>
      <point x="60" y="194"/>
      <point x="79" y="194" type="curve" smooth="yes"/>
      <point x="93" y="194"/>
      <point x="105" y="200"/>
      <point x="117" y="207" type="curve" smooth="yes"/>
      <point x="339" y="325" type="line"/>
      <point x="347" y="316"/>
      <point x="357" y="308"/>
      <point x="367" y="301" type="curve"/>
      <point x="244" y="67" type="line" smooth="yes"/>
      <point x="238" y="55"/>
      <point x="231" y="43"/>
      <point x="231" y="29" type="curve" smooth="yes"/>
      <point x="231" y="10"/>
      <point x="245" y="0"/>
      <point x="262" y="0" type="curve" smooth="yes"/>
      <point x="575" y="0" type="line" smooth="yes"/>
      <point x="602" y="0"/>
      <point x="612" y="13"/>
      <point x="612" y="29" type="curve" smooth="yes"/>
      <point x="612" y="41"/>
      <point x="606" y="51"/>
      <point x="599" y="65" type="curve" smooth="yes"/>
      <point x="475" y="302" type="line"/>
      <point x="485" y="308"/>
      <point x="493" y="316"/>
      <point x="500" y="325" type="curve"/>
      <point x="722" y="207" type="line" smooth="yes"/>
      <point x="734" y="200"/>
      <point x="746" y="194"/>
      <point x="760" y="194" type="curve" smooth="yes"/>
      <point x="779" y="194"/>
      <point x="789" y="208"/>
      <point x="789" y="225" type="curve" smooth="yes"/>
      <point x="789" y="538" type="line" smooth="yes"/>
      <point x="789" y="565"/>
      <point x="776" y="575"/>
      <point x="760" y="575" type="curve" smooth="yes"/>
      <point x="748" y="575"/>
      <point x="736" y="568"/>
      <point x="722" y="561" type="curve" smooth="yes"/>
      <point x="507" y="447" type="line"/>
      <point x="542" y="506"/>
      <point x="575" y="590"/>
    </contour>
    <contour>
      <point x="328" y="629" type="curve" smooth="yes"/>
      <point x="328" y="703"/>
      <point x="365" y="733"/>
      <point x="418" y="733" type="curve" smooth="yes"/>
      <point x="473" y="733"/>
      <point x="511" y="704"/>
      <point x="511" y="629" type="curve" smooth="yes"/>
      <point x="511" y="583"/>
      <point x="488" y="530"/>
      <point x="462" y="486" type="curve"/>
      <point x="449" y="492"/>
      <point x="435" y="495"/>
      <point x="421" y="495" type="curve" smooth="yes"/>
      <point x="405" y="495"/>
      <point x="390" y="491"/>
      <point x="376" y="485" type="curve"/>
      <point x="352" y="528"/>
      <point x="328" y="583"/>
    </contour>
    <contour>
      <point x="423" y="286" type="line"/>
      <point x="540" y="58" type="line"/>
      <point x="305" y="58" type="line"/>
      <point x="419" y="286" type="line"/>
    </contour>
    <contour>
      <point x="315" y="397" type="line"/>
      <point x="315" y="390" type="line" smooth="yes"/>
      <point x="315" y="384"/>
      <point x="316" y="378"/>
      <point x="317" y="372" type="curve"/>
      <point x="110" y="268" type="line"/>
      <point x="110" y="503" type="line"/>
    </contour>
    <contour>
      <point x="524" y="384" type="curve" smooth="yes"/>
      <point x="524" y="389"/>
      <point x="523" y="394"/>
      <point x="522" y="397" type="curve"/>
      <point x="729" y="503" type="line"/>
      <point x="729" y="268" type="line"/>
      <point x="522" y="372" type="line"/>
      <point x="523" y="376"/>
      <point x="524" y="380"/>
    </contour>
    <contour>
      <point x="369" y="390" type="curve" smooth="yes"/>
      <point x="369" y="420"/>
      <point x="392" y="443"/>
      <point x="421" y="443" type="curve" smooth="yes"/>
      <point x="451" y="443"/>
      <point x="474" y="420"/>
      <point x="474" y="390" type="curve" smooth="yes"/>
      <point x="474" y="361"/>
      <point x="451" y="338"/>
      <point x="421" y="338" type="curve" smooth="yes"/>
      <point x="392" y="338"/>
      <point x="369" y="361"/>
    </contour>
  </outline>
</glyph>
<glyph name="u109A0" format="2">
  <advance width="871"/>
  <unicode hex="109A0"/>
  <outline>
    <contour>
      <point x="85" y="-20" type="curve" smooth="yes"/>
      <point x="274" y="-20"/>
      <point x="392" y="73"/>
      <point x="392" y="250" type="curve" smooth="yes"/>
      <point x="392" y="265"/>
      <point x="388" y="315"/>
      <point x="371" y="330" type="curve"/>
      <point x="292" y="336" type="line" smooth="yes"/>
      <point x="191" y="344"/>
      <point x="145" y="390"/>
      <point x="145" y="455" type="curve" smooth="yes"/>
      <point x="145" y="520"/>
      <point x="201" y="562"/>
      <point x="283" y="562" type="curve" smooth="yes"/>
      <point x="349" y="562"/>
      <point x="361" y="555"/>
      <point x="381" y="552" type="curve" smooth="yes"/>
      <point x="386" y="551"/>
      <point x="391" y="550"/>
      <point x="395" y="550" type="curve" smooth="yes"/>
      <point x="413" y="550"/>
      <point x="425" y="571"/>
      <point x="425" y="589" type="curve" smooth="yes"/>
      <point x="425" y="602"/>
      <point x="419" y="613"/>
      <point x="407" y="615" type="curve" smooth="yes"/>
      <point x="391" y="618"/>
      <point x="343" y="630"/>
      <point x="274" y="630" type="curve" smooth="yes"/>
      <point x="143" y="630"/>
      <point x="73" y="555"/>
      <point x="73" y="452" type="curve" smooth="yes"/>
      <point x="73" y="310"/>
      <point x="201" y="277"/>
      <point x="318" y="268" type="curve"/>
      <point x="319" y="257"/>
      <point x="320" y="246"/>
      <point x="320" y="236" type="curve" smooth="yes"/>
      <point x="320" y="82"/>
      <point x="188" y="48"/>
      <point x="85" y="48" type="curve" smooth="yes"/>
      <point x="59" y="48"/>
      <point x="44" y="52"/>
      <point x="28" y="52" type="curve" smooth="yes"/>
      <point x="12" y="52"/>
      <point x="10" y="34"/>
      <point x="10" y="10" type="curve" smooth="yes"/>
      <point x="10" y="-16"/>
      <point x="27" y="-20"/>
    </contour>
    <contour>
      <point x="872" y="-30" type="curve" smooth="yes"/>
      <point x="784" y="-30"/>
      <point x="733" y="-14"/>
      <point x="694" y="5" type="curve" smooth="yes"/>
      <point x="643" y="30"/>
      <point x="612" y="62"/>
      <point x="541" y="68" type="curve"/>
      <point x="660" y="163"/>
      <point x="795" y="293"/>
      <point x="795" y="455" type="curve" smooth="yes"/>
      <point x="795" y="550"/>
      <point x="746" y="630"/>
      <point x="627" y="630" type="curve" smooth="yes"/>
      <point x="574" y="630"/>
      <point x="530" y="613"/>
      <point x="503" y="596" type="curve" smooth="yes"/>
      <point x="495" y="591"/>
      <point x="492" y="584"/>
      <point x="492" y="575" type="curve" smooth="yes"/>
      <point x="492" y="557"/>
      <point x="507" y="535"/>
      <point x="523" y="535" type="curve" smooth="yes"/>
      <point x="526" y="535"/>
      <point x="529" y="536"/>
      <point x="532" y="538" type="curve" smooth="yes"/>
      <point x="558" y="553"/>
      <point x="585" y="562"/>
      <point x="621" y="562" type="curve" smooth="yes"/>
      <point x="701" y="562"/>
      <point x="723" y="515"/>
      <point x="723" y="455" type="curve" smooth="yes"/>
      <point x="723" y="285"/>
      <point x="542" y="147"/>
      <point x="477" y="85" type="curve" smooth="yes"/>
      <point x="458" y="67"/>
      <point x="449" y="55"/>
      <point x="449" y="41" type="curve" smooth="yes"/>
      <point x="449" y="32"/>
      <point x="450" y="10"/>
      <point x="463" y="10" type="curve" smooth="yes"/>
      <point x="470" y="10"/>
      <point x="474" y="11"/>
      <point x="480" y="11" type="curve" smooth="yes"/>
      <point x="577" y="11"/>
      <point x="617" y="-19"/>
      <point x="664" y="-48" type="curve" smooth="yes"/>
      <point x="707" y="-74"/>
      <point x="755" y="-98"/>
      <point x="854" y="-98" type="curve" smooth="yes"/>
      <point x="880" y="-98"/>
      <point x="891" y="-78"/>
      <point x="891" y="-59" type="curve" smooth="yes"/>
      <point x="891" y="-44"/>
      <point x="884" y="-30"/>
    </contour>
  </outline>
</glyph>
<glyph name="u109A1" format="2">
  <advance width="455"/>
  <unicode hex="109A1"/>
  <outline>
    <contour>
      <point x="85" y="-20" type="curve" smooth="yes"/>
      <point x="274" y="-20"/>
      <point x="392" y="73"/>
      <point x="392" y="250" type="curve" smooth="yes"/>
      <point x="392" y="265"/>
      <point x="388" y="315"/>
      <point x="371" y="330" type="curve"/>
      <point x="292" y="336" type="line" smooth="yes"/>
      <point x="191" y="344"/>
      <point x="145" y="390"/>
      <point x="145" y="455" type="curve" smooth="yes"/>
      <point x="145" y="520"/>
      <point x="201" y="562"/>
      <point x="283" y="562" type="curve" smooth="yes"/>
      <point x="349" y="562"/>
      <point x="361" y="555"/>
      <point x="381" y="552" type="curve" smooth="yes"/>
      <point x="386" y="551"/>
      <point x="391" y="550"/>
      <point x="395" y="550" type="curve" smooth="yes"/>
      <point x="413" y="550"/>
      <point x="425" y="571"/>
      <point x="425" y="589" type="curve" smooth="yes"/>
      <point x="425" y="602"/>
      <point x="419" y="613"/>
      <point x="407" y="615" type="curve" smooth="yes"/>
      <point x="391" y="618"/>
      <point x="343" y="630"/>
      <point x="274" y="630" type="curve" smooth="yes"/>
      <point x="143" y="630"/>
      <point x="73" y="555"/>
      <point x="73" y="452" type="curve" smooth="yes"/>
      <point x="73" y="310"/>
      <point x="201" y="277"/>
      <point x="318" y="268" type="curve"/>
      <point x="319" y="257"/>
      <point x="320" y="246"/>
      <point x="320" y="236" type="curve" smooth="yes"/>
      <point x="320" y="82"/>
      <point x="188" y="48"/>
      <point x="85" y="48" type="curve" smooth="yes"/>
      <point x="59" y="48"/>
      <point x="44" y="52"/>
      <point x="28" y="52" type="curve" smooth="yes"/>
      <point x="12" y="52"/>
      <point x="10" y="34"/>
      <point x="10" y="10" type="curve" smooth="yes"/>
      <point x="10" y="-16"/>
      <point x="27" y="-20"/>
    </contour>
  </outline>
</glyph>
<glyph name="u109A4" format="2">
  <advance width="698"/>
  <unicode hex="109A4"/>
  <outline>
    <contour>
      <point x="136" y="70" type="curve" smooth="yes"/>
      <point x="240" y="544" type="line" smooth="yes"/>
      <point x="244" y="560"/>
      <point x="248" y="577"/>
      <point x="248" y="591" type="curve" smooth="yes"/>
      <point x="248" y="608"/>
      <point x="242" y="618"/>
      <point x="222" y="618" type="curve" smooth="yes"/>
      <point x="184" y="618"/>
      <point x="184" y="603"/>
      <point x="172" y="548" type="curve" smooth="yes"/>
      <point x="68" y="74" type="line" smooth="yes"/>
      <point x="64" y="58"/>
      <point x="60" y="41"/>
      <point x="60" y="27" type="curve" smooth="yes"/>
      <point x="60" y="10"/>
      <point x="66" y="0"/>
      <point x="86" y="0" type="curve" smooth="yes"/>
      <point x="124" y="0"/>
      <point x="123" y="13"/>
    </contour>
    <contour>
      <point x="536" y="70" type="curve" smooth="yes"/>
      <point x="640" y="544" type="line" smooth="yes"/>
      <point x="644" y="560"/>
      <point x="648" y="577"/>
      <point x="648" y="591" type="curve" smooth="yes"/>
      <point x="648" y="608"/>
      <point x="642" y="618"/>
      <point x="622" y="618" type="curve" smooth="yes"/>
      <point x="584" y="618"/>
      <point x="584" y="603"/>
      <point x="572" y="548" type="curve" smooth="yes"/>
      <point x="468" y="74" type="line" smooth="yes"/>
      <point x="464" y="58"/>
      <point x="460" y="41"/>
      <point x="460" y="27" type="curve" smooth="yes"/>
      <point x="460" y="10"/>
      <point x="466" y="0"/>
      <point x="486" y="0" type="curve" smooth="yes"/>
      <point x="524" y="0"/>
      <point x="523" y="13"/>
    </contour>
    <contour>
      <point x="336" y="70" type="curve" smooth="yes"/>
      <point x="440" y="544" type="line" smooth="yes"/>
      <point x="444" y="560"/>
      <point x="448" y="577"/>
      <point x="448" y="591" type="curve" smooth="yes"/>
      <point x="448" y="608"/>
      <point x="442" y="618"/>
      <point x="422" y="618" type="curve" smooth="yes"/>
      <point x="384" y="618"/>
      <point x="384" y="603"/>
      <point x="372" y="548" type="curve" smooth="yes"/>
      <point x="268" y="74" type="line" smooth="yes"/>
      <point x="264" y="58"/>
      <point x="260" y="41"/>
      <point x="260" y="27" type="curve" smooth="yes"/>
      <point x="260" y="10"/>
      <point x="266" y="0"/>
      <point x="286" y="0" type="curve" smooth="yes"/>
      <point x="324" y="0"/>
      <point x="323" y="13"/>
    </contour>
    <contour>
      <point x="136" y="69" type="curve" smooth="yes"/>
      <point x="240" y="544" type="line" smooth="yes"/>
      <point x="244" y="560"/>
      <point x="248" y="577"/>
      <point x="248" y="591" type="curve" smooth="yes"/>
      <point x="248" y="608"/>
      <point x="242" y="618"/>
      <point x="222" y="618" type="curve" smooth="yes"/>
      <point x="217" y="618"/>
      <point x="210" y="618"/>
      <point x="203" y="616" type="curve" smooth="yes"/>
      <point x="187" y="612"/>
      <point x="184" y="602"/>
      <point x="172" y="549" type="curve" smooth="yes"/>
      <point x="68" y="74" type="line" smooth="yes"/>
      <point x="64" y="58"/>
      <point x="60" y="41"/>
      <point x="60" y="27" type="curve" smooth="yes"/>
      <point x="60" y="10"/>
      <point x="66" y="0"/>
      <point x="86" y="0" type="curve" smooth="yes"/>
      <point x="91" y="0"/>
      <point x="98" y="0"/>
      <point x="105" y="2" type="curve" smooth="yes"/>
      <point x="121" y="6"/>
      <point x="124" y="16"/>
    </contour>
    <contour>
      <point x="336" y="69" type="curve" smooth="yes"/>
      <point x="440" y="544" type="line" smooth="yes"/>
      <point x="444" y="560"/>
      <point x="448" y="577"/>
      <point x="448" y="591" type="curve" smooth="yes"/>
      <point x="448" y="608"/>
      <point x="442" y="618"/>
      <point x="422" y="618" type="curve" smooth="yes"/>
      <point x="417" y="618"/>
      <point x="410" y="618"/>
      <point x="403" y="616" type="curve" smooth="yes"/>
      <point x="387" y="612"/>
      <point x="384" y="602"/>
      <point x="372" y="549" type="curve" smooth="yes"/>
      <point x="268" y="74" type="line" smooth="yes"/>
      <point x="264" y="58"/>
      <point x="260" y="41"/>
      <point x="260" y="27" type="curve" smooth="yes"/>
      <point x="260" y="10"/>
      <point x="266" y="0"/>
      <point x="286" y="0" type="curve" smooth="yes"/>
      <point x="291" y="0"/>
      <point x="298" y="0"/>
      <point x="305" y="2" type="curve" smooth="yes"/>
      <point x="321" y="6"/>
      <point x="324" y="16"/>
    </contour>
    <contour>
      <point x="536" y="69" type="curve" smooth="yes"/>
      <point x="640" y="544" type="line" smooth="yes"/>
      <point x="644" y="560"/>
      <point x="648" y="577"/>
      <point x="648" y="591" type="curve" smooth="yes"/>
      <point x="648" y="608"/>
      <point x="642" y="618"/>
      <point x="622" y="618" type="curve" smooth="yes"/>
      <point x="617" y="618"/>
      <point x="610" y="618"/>
      <point x="603" y="616" type="curve" smooth="yes"/>
      <point x="587" y="612"/>
      <point x="584" y="602"/>
      <point x="572" y="549" type="curve" smooth="yes"/>
      <point x="468" y="74" type="line" smooth="yes"/>
      <point x="464" y="58"/>
      <point x="460" y="41"/>
      <point x="460" y="27" type="curve" smooth="yes"/>
      <point x="460" y="10"/>
      <point x="466" y="0"/>
      <point x="486" y="0" type="curve" smooth="yes"/>
      <point x="491" y="0"/>
      <point x="498" y="0"/>
      <point x="505" y="2" type="curve" smooth="yes"/>
      <point x="521" y="6"/>
      <point x="524" y="16"/>
    </contour>
  </outline>
</glyph>
<glyph name="u109A6" format="2">
  <advance width="479"/>
  <unicode hex="109A6"/>
  <outline>
    <contour>
      <point x="104" y="106" type="curve"/>
      <point x="193" y="506" type="line" smooth="yes"/>
      <point x="197" y="522"/>
      <point x="201" y="539"/>
      <point x="201" y="553" type="curve" smooth="yes"/>
      <point x="201" y="570"/>
      <point x="195" y="580"/>
      <point x="175" y="580" type="curve" smooth="yes"/>
      <point x="170" y="580"/>
      <point x="163" y="580"/>
      <point x="156" y="578" type="curve" smooth="yes"/>
      <point x="140" y="574"/>
      <point x="137" y="564"/>
      <point x="125" y="511" type="curve" smooth="yes"/>
      <point x="28" y="74" type="line" smooth="yes"/>
      <point x="24" y="58"/>
      <point x="20" y="41"/>
      <point x="20" y="27" type="curve" smooth="yes"/>
      <point x="20" y="10"/>
      <point x="26" y="0"/>
      <point x="46" y="0" type="curve" smooth="yes"/>
      <point x="61" y="0"/>
      <point x="73" y="2"/>
      <point x="79" y="11" type="curve" smooth="yes"/>
      <point x="92" y="30"/>
      <point x="109" y="42"/>
      <point x="128" y="53" type="curve" smooth="yes"/>
      <point x="195" y="92"/>
      <point x="292" y="115"/>
      <point x="384" y="318" type="curve" smooth="yes"/>
      <point x="419" y="395"/>
      <point x="469" y="521"/>
      <point x="469" y="561" type="curve" smooth="yes"/>
      <point x="469" y="573"/>
      <point x="459" y="580"/>
      <point x="439" y="580" type="curve" smooth="yes"/>
      <point x="409" y="580"/>
      <point x="403" y="563"/>
      <point x="395" y="537" type="curve" smooth="yes"/>
      <point x="382" y="495"/>
      <point x="353" y="417"/>
      <point x="321" y="339" type="curve" smooth="yes"/>
      <point x="263" y="198"/>
      <point x="204" y="164"/>
      <point x="149" y="134" type="curve" smooth="yes"/>
      <point x="134" y="126"/>
      <point x="119" y="117"/>
    </contour>
  </outline>
</glyph>
<glyph name="u109A7" format="2">
  <advance width="432"/>
  <unicode hex="109A7"/>
  <outline>
    <contour>
      <point x="433" y="-25" type="curve" smooth="yes"/>
      <point x="357" y="-25"/>
      <point x="303" y="6"/>
      <point x="251" y="39" type="curve" smooth="yes"/>
      <point x="213" y="63"/>
      <point x="176" y="89"/>
      <point x="133" y="106" type="curve"/>
      <point x="218" y="160"/>
      <point x="276" y="255"/>
      <point x="276" y="335" type="curve" smooth="yes"/>
      <point x="276" y="393"/>
      <point x="243" y="445"/>
      <point x="180" y="471" type="curve"/>
      <point x="242" y="502"/>
      <point x="311" y="548"/>
      <point x="353" y="607" type="curve" smooth="yes"/>
      <point x="357" y="612"/>
      <point x="361" y="620"/>
      <point x="361" y="624" type="curve" smooth="yes"/>
      <point x="361" y="646"/>
      <point x="345" y="660"/>
      <point x="319" y="660" type="curve" smooth="yes"/>
      <point x="313" y="660"/>
      <point x="303" y="651"/>
      <point x="298" y="646" type="curve" smooth="yes"/>
      <point x="233" y="572"/>
      <point x="138" y="519"/>
      <point x="72" y="491" type="curve"/>
      <point x="60" y="488"/>
      <point x="54" y="474"/>
      <point x="54" y="460" type="curve" smooth="yes"/>
      <point x="54" y="438"/>
      <point x="62" y="429"/>
      <point x="72" y="429" type="curve" smooth="yes"/>
      <point x="161" y="429"/>
      <point x="204" y="392"/>
      <point x="204" y="334" type="curve" smooth="yes"/>
      <point x="204" y="241"/>
      <point x="125" y="177"/>
      <point x="47" y="138" type="curve" smooth="yes"/>
      <point x="30" y="130"/>
      <point x="20" y="119"/>
      <point x="20" y="104" type="curve" smooth="yes"/>
      <point x="20" y="99"/>
      <point x="20" y="69"/>
      <point x="40" y="69" type="curve"/>
      <point x="103" y="60"/>
      <point x="156" y="23"/>
      <point x="211" y="-14" type="curve" smooth="yes"/>
      <point x="271" y="-54"/>
      <point x="334" y="-93"/>
      <point x="415" y="-93" type="curve" smooth="yes"/>
      <point x="441" y="-93"/>
      <point x="452" y="-73"/>
      <point x="452" y="-54" type="curve" smooth="yes"/>
      <point x="452" y="-39"/>
      <point x="445" y="-25"/>
    </contour>
  </outline>
</glyph>
<glyph name="u109A8" format="2">
  <advance width="374"/>
  <unicode hex="109A8"/>
  <outline>
    <contour>
      <point x="252" y="487" type="curve" smooth="yes"/>
      <point x="252" y="442"/>
      <point x="248" y="396"/>
      <point x="241" y="350" type="curve"/>
      <point x="165" y="371" type="line" smooth="yes"/>
      <point x="160" y="372"/>
      <point x="155" y="373"/>
      <point x="151" y="373" type="curve" smooth="yes"/>
      <point x="125" y="373"/>
      <point x="117" y="349"/>
      <point x="117" y="331" type="curve" smooth="yes"/>
      <point x="117" y="321"/>
      <point x="123" y="312"/>
      <point x="140" y="307" type="curve" smooth="yes"/>
      <point x="228" y="283" type="line"/>
      <point x="197" y="158"/>
      <point x="136" y="46"/>
      <point x="36" y="-3" type="curve" smooth="yes"/>
      <point x="25" y="-8"/>
      <point x="20" y="-18"/>
      <point x="20" y="-30" type="curve" smooth="yes"/>
      <point x="20" y="-49"/>
      <point x="32" y="-71"/>
      <point x="49" y="-71" type="curve" smooth="yes"/>
      <point x="56" y="-71"/>
      <point x="73" y="-61"/>
      <point x="83" y="-55" type="curve" smooth="yes"/>
      <point x="250" y="47"/>
      <point x="324" y="265"/>
      <point x="324" y="481" type="curve" smooth="yes"/>
      <point x="324" y="540"/>
      <point x="321" y="591"/>
      <point x="310" y="634" type="curve" smooth="yes"/>
      <point x="306" y="649"/>
      <point x="286" y="659"/>
      <point x="269" y="659" type="curve" smooth="yes"/>
      <point x="251" y="659"/>
      <point x="240" y="653"/>
      <point x="240" y="643" type="curve" smooth="yes"/>
      <point x="240" y="631"/>
      <point x="252" y="555"/>
    </contour>
  </outline>
</glyph>
<glyph name="u109AB" format="2">
  <advance width="686"/>
  <unicode hex="109AB"/>
  <outline>
    <contour>
      <point x="335" y="481" type="curve" smooth="yes"/>
      <point x="307" y="352"/>
      <point x="311" y="259"/>
      <point x="196" y="259" type="curve" smooth="yes"/>
      <point x="147" y="259"/>
      <point x="123" y="298"/>
      <point x="123" y="360" type="curve" smooth="yes"/>
      <point x="123" y="398"/>
      <point x="128" y="427"/>
      <point x="137" y="455" type="curve" smooth="yes"/>
      <point x="141" y="469"/>
      <point x="145" y="487"/>
      <point x="145" y="492" type="curve" smooth="yes"/>
      <point x="145" y="514"/>
      <point x="120" y="516"/>
      <point x="109" y="516" type="curve" smooth="yes"/>
      <point x="98" y="516"/>
      <point x="79" y="511"/>
      <point x="71" y="485" type="curve" smooth="yes"/>
      <point x="59" y="447"/>
      <point x="50" y="404"/>
      <point x="50" y="351" type="curve" smooth="yes"/>
      <point x="50" y="262"/>
      <point x="82" y="190"/>
      <point x="191" y="190" type="curve" smooth="yes"/>
      <point x="261" y="190"/>
      <point x="306" y="219"/>
      <point x="336" y="262" type="curve"/>
      <point x="359" y="215"/>
      <point x="404" y="189"/>
      <point x="468" y="189" type="curve" smooth="yes"/>
      <point x="594" y="189"/>
      <point x="633" y="284"/>
      <point x="652" y="397" type="curve" smooth="yes"/>
      <point x="654" y="411"/>
      <point x="666" y="468"/>
      <point x="666" y="490" type="curve" smooth="yes"/>
      <point x="666" y="502"/>
      <point x="658" y="516"/>
      <point x="641" y="516" type="curve" smooth="yes"/>
      <point x="600" y="516"/>
      <point x="594" y="498"/>
      <point x="590" y="475" type="curve" smooth="yes"/>
      <point x="568" y="343"/>
      <point x="554" y="258"/>
      <point x="468" y="258" type="curve" smooth="yes"/>
      <point x="405" y="258"/>
      <point x="388" y="301"/>
      <point x="388" y="350" type="curve" smooth="yes"/>
      <point x="388" y="397"/>
      <point x="396" y="432"/>
      <point x="405" y="474" type="curve" smooth="yes"/>
      <point x="406" y="478"/>
      <point x="409" y="491"/>
      <point x="409" y="496" type="curve" smooth="yes"/>
      <point x="409" y="508"/>
      <point x="401" y="516"/>
      <point x="368" y="516" type="curve" smooth="yes"/>
      <point x="346" y="516"/>
      <point x="340" y="506"/>
    </contour>
  </outline>
</glyph>
<glyph name="u109AD" format="2">
  <advance width="670"/>
  <unicode hex="109AD"/>
  <outline>
    <contour>
      <point x="546" y="466"/>
      <point x="444" y="439"/>
      <point x="254" y="439" type="curve" smooth="yes"/>
      <point x="114" y="439"/>
      <point x="68" y="448"/>
      <point x="52" y="448" type="curve" smooth="yes"/>
      <point x="35" y="448"/>
      <point x="30" y="427"/>
      <point x="30" y="398" type="curve" smooth="yes"/>
      <point x="30" y="382" type="line" smooth="yes"/>
      <point x="36" y="115"/>
      <point x="114" y="0"/>
      <point x="360" y="0" type="curve" smooth="yes"/>
      <point x="458" y="0"/>
      <point x="569" y="29"/>
      <point x="640" y="54" type="curve" smooth="yes"/>
      <point x="654" y="59"/>
      <point x="660" y="75"/>
      <point x="660" y="91" type="curve" smooth="yes"/>
      <point x="660" y="108"/>
      <point x="653" y="122"/>
      <point x="642" y="122" type="curve" smooth="yes"/>
      <point x="627" y="122"/>
      <point x="501" y="68"/>
      <point x="359" y="68" type="curve" smooth="yes"/>
      <point x="177" y="68"/>
      <point x="100" y="148"/>
      <point x="94" y="376" type="curve"/>
      <point x="139" y="373"/>
      <point x="194" y="371"/>
      <point x="255" y="371" type="curve" smooth="yes"/>
      <point x="369" y="371"/>
      <point x="506" y="387"/>
      <point x="562" y="401" type="curve" smooth="yes"/>
      <point x="575" y="404"/>
      <point x="576" y="422"/>
      <point x="576" y="432" type="curve" smooth="yes"/>
      <point x="576" y="450"/>
      <point x="569" y="466"/>
      <point x="554" y="466" type="curve" smooth="yes"/>
    </contour>
  </outline>
</glyph>
<glyph name="u109AE" format="2">
  <advance width="383"/>
  <unicode hex="109AE"/>
  <outline>
    <contour>
      <point x="-25" y="-140" type="curve" smooth="yes"/>
      <point x="62" y="-140"/>
      <point x="110" y="-91"/>
      <point x="161" y="-42" type="curve" smooth="yes"/>
      <point x="206" y="1"/>
      <point x="253" y="44"/>
      <point x="331" y="55" type="curve" smooth="yes"/>
      <point x="339" y="56"/>
      <point x="343" y="72"/>
      <point x="343" y="84" type="curve" smooth="yes"/>
      <point x="343" y="106"/>
      <point x="333" y="116"/>
      <point x="316" y="120" type="curve" smooth="yes"/>
      <point x="228" y="141"/>
      <point x="162" y="217"/>
      <point x="162" y="320" type="curve" smooth="yes"/>
      <point x="162" y="382"/>
      <point x="215" y="429"/>
      <point x="304" y="429" type="curve" smooth="yes"/>
      <point x="314" y="429"/>
      <point x="322" y="442"/>
      <point x="322" y="456" type="curve" smooth="yes"/>
      <point x="322" y="470"/>
      <point x="317" y="480"/>
      <point x="299" y="490" type="curve" smooth="yes"/>
      <point x="226" y="530"/>
      <point x="183" y="583"/>
      <point x="149" y="642" type="curve" smooth="yes"/>
      <point x="138" y="660"/>
      <point x="135" y="680"/>
      <point x="114" y="680" type="curve" smooth="yes"/>
      <point x="98" y="680"/>
      <point x="72" y="670"/>
      <point x="72" y="649" type="curve" smooth="yes"/>
      <point x="72" y="634"/>
      <point x="81" y="621"/>
      <point x="87" y="611" type="curve" smooth="yes"/>
      <point x="116" y="561"/>
      <point x="164" y="510"/>
      <point x="211" y="476" type="curve"/>
      <point x="132" y="448"/>
      <point x="90" y="394"/>
      <point x="90" y="313" type="curve" smooth="yes"/>
      <point x="90" y="205"/>
      <point x="144" y="135"/>
      <point x="221" y="88" type="curve"/>
      <point x="181" y="65"/>
      <point x="147" y="33"/>
      <point x="113" y="4" type="curve" smooth="yes"/>
      <point x="70" y="-33"/>
      <point x="27" y="-66"/>
      <point x="-35" y="-74" type="curve" smooth="yes"/>
      <point x="-52" y="-76"/>
      <point x="-60" y="-91"/>
      <point x="-60" y="-105" type="curve" smooth="yes"/>
      <point x="-60" y="-123"/>
      <point x="-48" y="-140"/>
    </contour>
  </outline>
</glyph>
<glyph name="u109B0" format="2">
  <advance width="450"/>
  <unicode hex="109B0"/>
  <outline>
    <contour>
      <point x="307" y="65" type="curve" smooth="yes"/>
      <point x="414" y="552" type="line" smooth="yes"/>
      <point x="418" y="572"/>
      <point x="420" y="587"/>
      <point x="420" y="600" type="curve" smooth="yes"/>
      <point x="420" y="644"/>
      <point x="390" y="649"/>
      <point x="288" y="649" type="curve" smooth="yes"/>
      <point x="193" y="649"/>
      <point x="127" y="643"/>
      <point x="98" y="609" type="curve" smooth="yes"/>
      <point x="60" y="565"/>
      <point x="40" y="454"/>
      <point x="40" y="399" type="curve" smooth="yes"/>
      <point x="40" y="366"/>
      <point x="46" y="329"/>
      <point x="75" y="312" type="curve" smooth="yes"/>
      <point x="98" y="299"/>
      <point x="142" y="297"/>
      <point x="180" y="297" type="curve" smooth="yes"/>
      <point x="234" y="297"/>
      <point x="277" y="304"/>
      <point x="290" y="305" type="curve"/>
      <point x="240" y="78" type="line" smooth="yes"/>
      <point x="236" y="62"/>
      <point x="232" y="41"/>
      <point x="232" y="27" type="curve" smooth="yes"/>
      <point x="232" y="10"/>
      <point x="238" y="0"/>
      <point x="253" y="0" type="curve" smooth="yes"/>
      <point x="295" y="0"/>
      <point x="295" y="12"/>
    </contour>
    <contour>
      <point x="349" y="580" type="curve"/>
      <point x="306" y="379" type="line"/>
      <point x="268" y="371"/>
      <point x="238" y="366"/>
      <point x="193" y="366" type="curve" smooth="yes"/>
      <point x="169" y="366"/>
      <point x="141" y="368"/>
      <point x="127" y="373" type="curve" smooth="yes"/>
      <point x="118" y="376"/>
      <point x="112" y="386"/>
      <point x="112" y="401" type="curve" smooth="yes"/>
      <point x="112" y="427"/>
      <point x="132" y="545"/>
      <point x="153" y="562" type="curve" smooth="yes"/>
      <point x="173" y="578"/>
      <point x="200" y="581"/>
      <point x="270" y="581" type="curve" smooth="yes"/>
      <point x="298" y="581"/>
      <point x="326" y="580"/>
    </contour>
  </outline>
</glyph>
<glyph name="u109B1" format="2">
  <advance width="908"/>
  <unicode hex="109B1"/>
  <outline>
    <contour>
      <point x="746" y="70" type="curve" smooth="yes"/>
      <point x="850" y="544" type="line" smooth="yes"/>
      <point x="854" y="560"/>
      <point x="858" y="577"/>
      <point x="858" y="591" type="curve" smooth="yes"/>
      <point x="858" y="608"/>
      <point x="852" y="618"/>
      <point x="832" y="618" type="curve" smooth="yes"/>
      <point x="794" y="618"/>
      <point x="794" y="603"/>
      <point x="782" y="548" type="curve" smooth="yes"/>
      <point x="678" y="74" type="line" smooth="yes"/>
      <point x="674" y="58"/>
      <point x="670" y="41"/>
      <point x="670" y="27" type="curve" smooth="yes"/>
      <point x="670" y="10"/>
      <point x="676" y="0"/>
      <point x="696" y="0" type="curve" smooth="yes"/>
      <point x="734" y="0"/>
      <point x="733" y="13"/>
    </contour>
    <contour>
      <point x="546" y="70" type="curve" smooth="yes"/>
      <point x="650" y="544" type="line" smooth="yes"/>
      <point x="654" y="560"/>
      <point x="658" y="577"/>
      <point x="658" y="591" type="curve" smooth="yes"/>
      <point x="658" y="608"/>
      <point x="652" y="618"/>
      <point x="632" y="618" type="curve" smooth="yes"/>
      <point x="594" y="618"/>
      <point x="594" y="603"/>
      <point x="582" y="548" type="curve" smooth="yes"/>
      <point x="478" y="74" type="line" smooth="yes"/>
      <point x="474" y="58"/>
      <point x="470" y="41"/>
      <point x="470" y="27" type="curve" smooth="yes"/>
      <point x="470" y="10"/>
      <point x="476" y="0"/>
      <point x="496" y="0" type="curve" smooth="yes"/>
      <point x="534" y="0"/>
      <point x="533" y="13"/>
    </contour>
    <contour>
      <point x="178" y="82" type="curve"/>
      <point x="146" y="179"/>
      <point x="119" y="327"/>
      <point x="104" y="465" type="curve" smooth="yes"/>
      <point x="102" y="479"/>
      <point x="83" y="485"/>
      <point x="70" y="485" type="curve" smooth="yes"/>
      <point x="50" y="485"/>
      <point x="30" y="472"/>
      <point x="30" y="457" type="curve" smooth="yes"/>
      <point x="30" y="454"/>
      <point x="31" y="440"/>
      <point x="32" y="436" type="curve" smooth="yes"/>
      <point x="51" y="303"/>
      <point x="62" y="228"/>
      <point x="98" y="85" type="curve" smooth="yes"/>
      <point x="111" y="35"/>
      <point x="129" y="-5"/>
      <point x="152" y="-5" type="curve" smooth="yes"/>
      <point x="166" y="-5"/>
      <point x="185" y="2"/>
      <point x="208" y="20" type="curve" smooth="yes"/>
      <point x="235" y="41"/>
      <point x="258" y="66"/>
      <point x="280" y="92" type="curve" smooth="yes"/>
      <point x="403" y="237"/>
      <point x="468" y="455"/>
      <point x="518" y="639" type="curve" smooth="yes"/>
      <point x="519" y="642"/>
      <point x="522" y="655"/>
      <point x="522" y="657" type="curve" smooth="yes"/>
      <point x="522" y="669"/>
      <point x="506" y="676"/>
      <point x="489" y="676" type="curve" smooth="yes"/>
      <point x="470" y="676"/>
      <point x="452" y="668"/>
      <point x="447" y="649" type="curve" smooth="yes"/>
      <point x="385" y="397"/>
      <point x="293" y="171"/>
    </contour>
  </outline>
</glyph>
<glyph name="u109B3" format="2">
  <advance width="514"/>
  <unicode hex="109B3"/>
  <outline>
    <contour>
      <point x="392" y="487" type="curve" smooth="yes"/>
      <point x="392" y="442"/>
      <point x="388" y="396"/>
      <point x="381" y="350" type="curve"/>
      <point x="305" y="371" type="line" smooth="yes"/>
      <point x="300" y="372"/>
      <point x="295" y="373"/>
      <point x="291" y="373" type="curve" smooth="yes"/>
      <point x="265" y="373"/>
      <point x="257" y="349"/>
      <point x="257" y="331" type="curve" smooth="yes"/>
      <point x="257" y="321"/>
      <point x="264" y="312"/>
      <point x="281" y="307" type="curve" smooth="yes"/>
      <point x="368" y="283" type="line"/>
      <point x="337" y="158"/>
      <point x="277" y="43"/>
      <point x="176" y="-3" type="curve" smooth="yes"/>
      <point x="165" y="-8"/>
      <point x="160" y="-18"/>
      <point x="160" y="-30" type="curve" smooth="yes"/>
      <point x="160" y="-49"/>
      <point x="172" y="-71"/>
      <point x="189" y="-71" type="curve" smooth="yes"/>
      <point x="195" y="-71"/>
      <point x="213" y="-61"/>
      <point x="223" y="-55" type="curve" smooth="yes"/>
      <point x="391" y="46"/>
      <point x="464" y="265"/>
      <point x="464" y="481" type="curve" smooth="yes"/>
      <point x="464" y="540"/>
      <point x="464" y="582"/>
      <point x="450" y="634" type="curve" smooth="yes"/>
      <point x="446" y="649"/>
      <point x="426" y="659"/>
      <point x="409" y="659" type="curve" smooth="yes"/>
      <point x="391" y="659"/>
      <point x="380" y="653"/>
      <point x="380" y="643" type="curve" smooth="yes"/>
      <point x="380" y="631"/>
      <point x="392" y="555"/>
    </contour>
    <contour>
      <point x="136" y="70" type="curve" smooth="yes"/>
      <point x="240" y="544" type="line" smooth="yes"/>
      <point x="244" y="560"/>
      <point x="248" y="577"/>
      <point x="248" y="591" type="curve" smooth="yes"/>
      <point x="248" y="608"/>
      <point x="242" y="618"/>
      <point x="222" y="618" type="curve" smooth="yes"/>
      <point x="184" y="618"/>
      <point x="184" y="603"/>
      <point x="172" y="548" type="curve" smooth="yes"/>
      <point x="68" y="74" type="line" smooth="yes"/>
      <point x="64" y="58"/>
      <point x="60" y="41"/>
      <point x="60" y="27" type="curve" smooth="yes"/>
      <point x="60" y="10"/>
      <point x="66" y="0"/>
      <point x="86" y="0" type="curve" smooth="yes"/>
      <point x="124" y="0"/>
      <point x="123" y="13"/>
    </contour>
  </outline>
</glyph>
<glyph name="u109B4" format="2">
  <advance width="429"/>
  <unicode hex="109B4"/>
  <outline>
    <contour>
      <point x="376" y="408" type="curve" smooth="yes"/>
      <point x="349" y="408"/>
      <point x="264" y="384"/>
      <point x="141" y="376" type="curve"/>
      <point x="166" y="458"/>
      <point x="197" y="591"/>
      <point x="197" y="601" type="curve" smooth="yes"/>
      <point x="197" y="622"/>
      <point x="185" y="628"/>
      <point x="162" y="628" type="curve" smooth="yes"/>
      <point x="136" y="628"/>
      <point x="128" y="604"/>
      <point x="126" y="592" type="curve" smooth="yes"/>
      <point x="110" y="495"/>
      <point x="76" y="390"/>
      <point x="61" y="355" type="curve" smooth="yes"/>
      <point x="59" y="349"/>
      <point x="57" y="342"/>
      <point x="57" y="335" type="curve" smooth="yes"/>
      <point x="57" y="320"/>
      <point x="64" y="305"/>
      <point x="81" y="305" type="curve" smooth="yes"/>
      <point x="149" y="305"/>
      <point x="258" y="323"/>
      <point x="336" y="339" type="curve"/>
      <point x="313" y="220"/>
      <point x="238" y="35"/>
      <point x="52" y="-91" type="curve" smooth="yes"/>
      <point x="32" y="-104"/>
      <point x="17" y="-114"/>
      <point x="17" y="-138" type="curve" smooth="yes"/>
      <point x="17" y="-146"/>
      <point x="22" y="-163"/>
      <point x="49" y="-163" type="curve" smooth="yes"/>
      <point x="66" y="-163"/>
      <point x="94" y="-144"/>
      <point x="107" y="-134" type="curve" smooth="yes"/>
      <point x="329" y="35"/>
      <point x="399" y="263"/>
      <point x="399" y="373" type="curve" smooth="yes"/>
      <point x="399" y="393"/>
      <point x="390" y="408"/>
    </contour>
    <contour>
      <point x="191" y="202" type="curve" smooth="yes"/>
      <point x="191" y="240"/>
      <point x="167" y="253"/>
      <point x="140" y="253" type="curve" smooth="yes"/>
      <point x="98" y="253"/>
      <point x="79" y="217"/>
      <point x="79" y="181" type="curve" smooth="yes"/>
      <point x="79" y="146"/>
      <point x="100" y="131"/>
      <point x="128" y="131" type="curve" smooth="yes"/>
      <point x="160" y="131"/>
      <point x="191" y="151"/>
    </contour>
  </outline>
</glyph>
<glyph name="u109B6" format="2">
  <advance width="775"/>
  <unicode hex="109B6"/>
  <outline>
    <contour>
      <point x="244" y="425" type="curve" smooth="yes"/>
      <point x="94" y="425"/>
      <point x="20" y="335"/>
      <point x="20" y="229" type="curve" smooth="yes"/>
      <point x="20" y="65"/>
      <point x="197" y="33"/>
      <point x="350" y="33" type="curve" smooth="yes"/>
      <point x="554" y="33"/>
      <point x="712" y="110"/>
      <point x="767" y="137" type="curve" smooth="yes"/>
      <point x="787" y="147"/>
      <point x="795" y="164"/>
      <point x="795" y="179" type="curve" smooth="yes"/>
      <point x="795" y="194"/>
      <point x="787" y="207"/>
      <point x="772" y="207" type="curve" smooth="yes"/>
      <point x="761" y="207"/>
      <point x="750" y="201"/>
      <point x="741" y="196" type="curve" smooth="yes"/>
      <point x="682" y="165"/>
      <point x="531" y="101"/>
      <point x="359" y="101" type="curve" smooth="yes"/>
      <point x="286" y="101"/>
      <point x="92" y="101"/>
      <point x="92" y="230" type="curve" smooth="yes"/>
      <point x="92" y="313"/>
      <point x="151" y="363"/>
      <point x="235" y="363" type="curve" smooth="yes"/>
      <point x="268" y="363"/>
      <point x="304" y="350"/>
      <point x="306" y="350" type="curve" smooth="yes"/>
      <point x="328" y="350"/>
      <point x="332" y="387"/>
      <point x="332" y="397" type="curve" smooth="yes"/>
      <point x="332" y="405"/>
      <point x="326" y="413"/>
      <point x="315" y="416" type="curve" smooth="yes"/>
      <point x="292" y="422"/>
      <point x="268" y="425"/>
    </contour>
    <contour>
      <point x="284" y="-90" type="curve" smooth="yes"/>
      <point x="284" y="-125"/>
      <point x="305" y="-140"/>
      <point x="333" y="-140" type="curve" smooth="yes"/>
      <point x="365" y="-140"/>
      <point x="396" y="-120"/>
      <point x="396" y="-69" type="curve" smooth="yes"/>
      <point x="396" y="-31"/>
      <point x="372" y="-18"/>
      <point x="345" y="-18" type="curve" smooth="yes"/>
      <point x="303" y="-18"/>
      <point x="284" y="-54"/>
    </contour>
  </outline>
</glyph>
<glyph name="u109BC" format="2">
  <advance width="1609"/>
  <unicode hex="109BC"/>
  <outline>
    <contour>
      <point x="150" y="560" type="curve" smooth="yes"/>
      <point x="150" y="529"/>
      <point x="174" y="505"/>
      <point x="205" y="505" type="curve" smooth="yes"/>
      <point x="237" y="505"/>
      <point x="262" y="529"/>
      <point x="262" y="560" type="curve" smooth="yes"/>
      <point x="262" y="591"/>
      <point x="237" y="615"/>
      <point x="205" y="615" type="curve" smooth="yes"/>
      <point x="174" y="615"/>
      <point x="150" y="591"/>
    </contour>
    <contour>
      <point x="449" y="560" type="curve" smooth="yes"/>
      <point x="449" y="529"/>
      <point x="474" y="505"/>
      <point x="505" y="505" type="curve" smooth="yes"/>
      <point x="536" y="505"/>
      <point x="561" y="529"/>
      <point x="561" y="560" type="curve" smooth="yes"/>
      <point x="561" y="591"/>
      <point x="536" y="615"/>
      <point x="505" y="615" type="curve" smooth="yes"/>
      <point x="474" y="615"/>
      <point x="449" y="591"/>
    </contour>
    <contour>
      <point x="749" y="560" type="curve" smooth="yes"/>
      <point x="749" y="529"/>
      <point x="773" y="505"/>
      <point x="804" y="505" type="curve" smooth="yes"/>
      <point x="836" y="505"/>
      <point x="861" y="529"/>
      <point x="861" y="560" type="curve" smooth="yes"/>
      <point x="861" y="591"/>
      <point x="836" y="615"/>
      <point x="804" y="615" type="curve" smooth="yes"/>
      <point x="773" y="615"/>
      <point x="749" y="591"/>
    </contour>
    <contour>
      <point x="1048" y="560" type="curve" smooth="yes"/>
      <point x="1048" y="529"/>
      <point x="1073" y="505"/>
      <point x="1104" y="505" type="curve" smooth="yes"/>
      <point x="1135" y="505"/>
      <point x="1160" y="529"/>
      <point x="1160" y="560" type="curve" smooth="yes"/>
      <point x="1160" y="591"/>
      <point x="1135" y="615"/>
      <point x="1104" y="615" type="curve" smooth="yes"/>
      <point x="1073" y="615"/>
      <point x="1048" y="591"/>
    </contour>
    <contour>
      <point x="749" y="307" type="curve" smooth="yes"/>
      <point x="749" y="276"/>
      <point x="773" y="251"/>
      <point x="804" y="251" type="curve" smooth="yes"/>
      <point x="836" y="251"/>
      <point x="861" y="276"/>
      <point x="861" y="307" type="curve" smooth="yes"/>
      <point x="861" y="338"/>
      <point x="836" y="363"/>
      <point x="804" y="363" type="curve" smooth="yes"/>
      <point x="773" y="363"/>
      <point x="749" y="338"/>
    </contour>
    <contour>
      <point x="1048" y="307" type="curve" smooth="yes"/>
      <point x="1048" y="276"/>
      <point x="1073" y="251"/>
      <point x="1104" y="251" type="curve" smooth="yes"/>
      <point x="1135" y="251"/>
      <point x="1160" y="276"/>
      <point x="1160" y="307" type="curve" smooth="yes"/>
      <point x="1160" y="338"/>
      <point x="1135" y="363"/>
      <point x="1104" y="363" type="curve" smooth="yes"/>
      <point x="1073" y="363"/>
      <point x="1048" y="338"/>
    </contour>
    <contour>
      <point x="749" y="55" type="curve" smooth="yes"/>
      <point x="749" y="24"/>
      <point x="773" y="-2"/>
      <point x="804" y="-2" type="curve" smooth="yes"/>
      <point x="836" y="-2"/>
      <point x="861" y="24"/>
      <point x="861" y="55" type="curve" smooth="yes"/>
      <point x="861" y="86"/>
      <point x="836" y="110"/>
      <point x="804" y="110" type="curve" smooth="yes"/>
      <point x="773" y="110"/>
      <point x="749" y="86"/>
    </contour>
    <contour>
      <point x="1048" y="55" type="curve" smooth="yes"/>
      <point x="1048" y="24"/>
      <point x="1073" y="-2"/>
      <point x="1104" y="-2" type="curve" smooth="yes"/>
      <point x="1135" y="-2"/>
      <point x="1160" y="24"/>
      <point x="1160" y="55" type="curve" smooth="yes"/>
      <point x="1160" y="86"/>
      <point x="1135" y="110"/>
      <point x="1104" y="110" type="curve" smooth="yes"/>
      <point x="1073" y="110"/>
      <point x="1048" y="86"/>
    </contour>
    <contour>
      <point x="1348" y="560" type="curve" smooth="yes"/>
      <point x="1348" y="529"/>
      <point x="1372" y="505"/>
      <point x="1403" y="505" type="curve" smooth="yes"/>
      <point x="1434" y="505"/>
      <point x="1459" y="529"/>
      <point x="1459" y="560" type="curve" smooth="yes"/>
      <point x="1459" y="591"/>
      <point x="1434" y="615"/>
      <point x="1403" y="615" type="curve" smooth="yes"/>
      <point x="1372" y="615"/>
      <point x="1348" y="591"/>
    </contour>
    <contour>
      <point x="1348" y="307" type="curve" smooth="yes"/>
      <point x="1348" y="276"/>
      <point x="1372" y="251"/>
      <point x="1403" y="251" type="curve" smooth="yes"/>
      <point x="1434" y="251"/>
      <point x="1459" y="276"/>
      <point x="1459" y="307" type="curve" smooth="yes"/>
      <point x="1459" y="338"/>
      <point x="1434" y="363"/>
      <point x="1403" y="363" type="curve" smooth="yes"/>
      <point x="1372" y="363"/>
      <point x="1348" y="338"/>
    </contour>
    <contour>
      <point x="1348" y="55" type="curve" smooth="yes"/>
      <point x="1348" y="24"/>
      <point x="1372" y="-2"/>
      <point x="1403" y="-2" type="curve" smooth="yes"/>
      <point x="1434" y="-2"/>
      <point x="1459" y="24"/>
      <point x="1459" y="55" type="curve" smooth="yes"/>
      <point x="1459" y="86"/>
      <point x="1434" y="110"/>
      <point x="1403" y="110" type="curve" smooth="yes"/>
      <point x="1372" y="110"/>
      <point x="1348" y="86"/>
    </contour>
  </outline>
</glyph>
<glyph name="u109C4" format="2">
  <advance width="505"/>
  <unicode hex="109C4"/>
  <outline>
    <contour>
      <point x="70" y="576" type="curve" smooth="yes"/>
      <point x="77" y="576"/>
      <point x="88" y="585"/>
      <point x="95" y="590" type="curve" smooth="yes"/>
      <point x="105" y="597"/>
      <point x="134" y="616"/>
      <point x="170" y="616" type="curve" smooth="yes"/>
      <point x="236" y="616"/>
      <point x="258" y="573"/>
      <point x="258" y="538" type="curve" smooth="yes"/>
      <point x="258" y="498"/>
      <point x="225" y="458"/>
      <point x="178" y="432" type="curve" smooth="yes"/>
      <point x="141" y="411"/>
      <point x="128" y="392"/>
      <point x="128" y="371" type="curve" smooth="yes"/>
      <point x="128" y="346"/>
      <point x="148" y="320"/>
      <point x="174" y="289" type="curve" smooth="yes"/>
      <point x="411" y="5" type="line" smooth="yes"/>
      <point x="421" y="-7"/>
      <point x="433" y="-12"/>
      <point x="443" y="-12" type="curve" smooth="yes"/>
      <point x="460" y="-12"/>
      <point x="475" y="2"/>
      <point x="475" y="20" type="curve" smooth="yes"/>
      <point x="475" y="29"/>
      <point x="472" y="39"/>
      <point x="463" y="49" type="curve" smooth="yes"/>
      <point x="200" y="365" type="line"/>
      <point x="293" y="421"/>
      <point x="330" y="482"/>
      <point x="330" y="538" type="curve" smooth="yes"/>
      <point x="330" y="630"/>
      <point x="269" y="684"/>
      <point x="167" y="684" type="curve" smooth="yes"/>
      <point x="118" y="684"/>
      <point x="67" y="664"/>
      <point x="39" y="623" type="curve" smooth="yes"/>
      <point x="34" y="616"/>
      <point x="30" y="610"/>
      <point x="30" y="606" type="curve" smooth="yes"/>
      <point x="30" y="596"/>
      <point x="50" y="576"/>
    </contour>
  </outline>
</glyph>
<glyph name="u109C5" format="2">
  <advance width="758"/>
  <unicode hex="109C5"/>
  <outline>
    <contour>
      <point x="222" y="240" type="curve"/>
      <point x="415" y="326" type="line" smooth="yes"/>
      <point x="429" y="332"/>
      <point x="434" y="343"/>
      <point x="434" y="355" type="curve" smooth="yes"/>
      <point x="434" y="373"/>
      <point x="422" y="390"/>
      <point x="408" y="390" type="curve" smooth="yes"/>
      <point x="397" y="390"/>
      <point x="392" y="387"/>
      <point x="387" y="385" type="curve" smooth="yes"/>
      <point x="116" y="264" type="line" smooth="yes"/>
      <point x="101" y="257"/>
      <point x="96" y="241"/>
      <point x="96" y="226" type="curve" smooth="yes"/>
      <point x="96" y="211"/>
      <point x="104" y="189"/>
      <point x="124" y="187" type="curve" smooth="yes"/>
      <point x="341" y="166"/>
      <point x="501" y="86"/>
      <point x="669" y="-35" type="curve" smooth="yes"/>
      <point x="678" y="-41"/>
      <point x="686" y="-44"/>
      <point x="693" y="-44" type="curve" smooth="yes"/>
      <point x="716" y="-44"/>
      <point x="728" y="-15"/>
      <point x="728" y="-3" type="curve" smooth="yes"/>
      <point x="728" y="4"/>
      <point x="723" y="12"/>
      <point x="712" y="20" type="curve" smooth="yes"/>
      <point x="567" y="128"/>
      <point x="407" y="209"/>
    </contour>
    <contour>
      <point x="82" y="318" type="curve" smooth="yes"/>
      <point x="353" y="438" type="line" smooth="yes"/>
      <point x="367" y="444"/>
      <point x="372" y="455"/>
      <point x="372" y="467" type="curve" smooth="yes"/>
      <point x="372" y="485"/>
      <point x="360" y="502"/>
      <point x="346" y="502" type="curve" smooth="yes"/>
      <point x="335" y="502"/>
      <point x="330" y="499"/>
      <point x="325" y="497" type="curve" smooth="yes"/>
      <point x="54" y="376" type="line" smooth="yes"/>
      <point x="42" y="371"/>
      <point x="37" y="359"/>
      <point x="37" y="348" type="curve" smooth="yes"/>
      <point x="37" y="331"/>
      <point x="47" y="314"/>
      <point x="66" y="314" type="curve" smooth="yes"/>
      <point x="71" y="314"/>
      <point x="76" y="315"/>
    </contour>
    <contour>
      <point x="75" y="436" type="curve" smooth="yes"/>
      <point x="271" y="521" type="line" smooth="yes"/>
      <point x="285" y="527"/>
      <point x="290" y="538"/>
      <point x="290" y="550" type="curve" smooth="yes"/>
      <point x="290" y="568"/>
      <point x="278" y="585"/>
      <point x="264" y="585" type="curve" smooth="yes"/>
      <point x="253" y="585"/>
      <point x="248" y="582"/>
      <point x="243" y="580" type="curve" smooth="yes"/>
      <point x="47" y="494" type="line" smooth="yes"/>
      <point x="35" y="489"/>
      <point x="30" y="477"/>
      <point x="30" y="466" type="curve" smooth="yes"/>
      <point x="30" y="449"/>
      <point x="40" y="432"/>
      <point x="59" y="432" type="curve" smooth="yes"/>
      <point x="64" y="432"/>
      <point x="69" y="433"/>
    </contour>
  </outline>
</glyph>
<glyph name="u109C7" format="2">
  <advance width="614"/>
  <unicode hex="109C7"/>
  <outline>
    <contour>
      <point x="533" y="554" type="curve" smooth="yes"/>
      <point x="516" y="554"/>
      <point x="504" y="547"/>
      <point x="504" y="535" type="curve" smooth="yes"/>
      <point x="504" y="520"/>
      <point x="512" y="489"/>
      <point x="512" y="468" type="curve" smooth="yes"/>
      <point x="512" y="419"/>
      <point x="493" y="386"/>
      <point x="462" y="354" type="curve" smooth="yes"/>
      <point x="160" y="43" type="line" smooth="yes"/>
      <point x="151" y="34"/>
      <point x="147" y="24"/>
      <point x="147" y="15" type="curve" smooth="yes"/>
      <point x="147" y="-3"/>
      <point x="163" y="-17"/>
      <point x="182" y="-17" type="curve" smooth="yes"/>
      <point x="191" y="-17"/>
      <point x="203" y="-13"/>
      <point x="219" y="3" type="curve" smooth="yes"/>
      <point x="538" y="339" type="line" smooth="yes"/>
      <point x="571" y="374"/>
      <point x="584" y="425"/>
      <point x="584" y="472" type="curve" smooth="yes"/>
      <point x="584" y="497"/>
      <point x="580" y="516"/>
      <point x="571" y="536" type="curve" smooth="yes"/>
      <point x="566" y="548"/>
      <point x="549" y="554"/>
    </contour>
    <contour>
      <point x="372" y="530" type="curve" smooth="yes"/>
      <point x="372" y="520" type="line" smooth="yes"/>
      <point x="372" y="471"/>
      <point x="353" y="438"/>
      <point x="322" y="406" type="curve" smooth="yes"/>
      <point x="43" y="117" type="line" smooth="yes"/>
      <point x="34" y="108"/>
      <point x="30" y="98"/>
      <point x="30" y="89" type="curve" smooth="yes"/>
      <point x="30" y="71"/>
      <point x="46" y="57"/>
      <point x="65" y="57" type="curve" smooth="yes"/>
      <point x="74" y="57"/>
      <point x="86" y="61"/>
      <point x="102" y="77" type="curve" smooth="yes"/>
      <point x="398" y="391" type="line" smooth="yes"/>
      <point x="428" y="423"/>
      <point x="444" y="469"/>
      <point x="444" y="530" type="curve" smooth="yes"/>
      <point x="444" y="548"/>
      <point x="425" y="554"/>
      <point x="409" y="554" type="curve" smooth="yes"/>
      <point x="385" y="554"/>
      <point x="372" y="546"/>
    </contour>
  </outline>
</glyph>
<glyph name="u109C9" format="2">
  <advance width="1290"/>
  <unicode hex="109C9"/>
  <outline>
    <contour>
      <point x="990" y="18" type="curve" smooth="yes"/>
      <point x="990" y="-5"/>
      <point x="1007" y="-17"/>
      <point x="1022" y="-17" type="curve" smooth="yes"/>
      <point x="1037" y="-17"/>
      <point x="1049" y="-5"/>
      <point x="1061" y="10" type="curve" smooth="yes"/>
      <point x="1194" y="183" type="line" smooth="yes"/>
      <point x="1212" y="206"/>
      <point x="1260" y="256"/>
      <point x="1260" y="292" type="curve" smooth="yes"/>
      <point x="1260" y="324"/>
      <point x="1238" y="330"/>
      <point x="1211" y="330" type="curve" smooth="yes"/>
      <point x="1197" y="330"/>
      <point x="1179" y="329"/>
      <point x="1166" y="328" type="curve" smooth="yes"/>
      <point x="58" y="252" type="line" smooth="yes"/>
      <point x="40" y="251"/>
      <point x="30" y="236"/>
      <point x="30" y="221" type="curve" smooth="yes"/>
      <point x="30" y="206"/>
      <point x="42" y="189"/>
      <point x="70" y="189" type="curve" smooth="yes"/>
      <point x="73" y="189"/>
      <point x="319" y="205"/>
      <point x="1169" y="262" type="curve"/>
      <point x="1008" y="52" type="line" smooth="yes"/>
      <point x="1000" y="42"/>
      <point x="990" y="29"/>
    </contour>
  </outline>
</glyph>
<glyph name="u109CA" format="2">
  <advance width="1331"/>
  <unicode hex="109CA"/>
  <outline>
    <contour>
      <point x="30" y="221" type="curve" smooth="yes"/>
      <point x="30" y="206"/>
      <point x="42" y="189"/>
      <point x="70" y="189" type="curve" smooth="yes"/>
      <point x="73" y="189"/>
      <point x="85" y="190"/>
      <point x="104" y="191" type="curve" smooth="yes"/>
      <point x="173" y="195"/>
      <point x="347" y="208"/>
      <point x="668" y="231" type="curve"/>
      <point x="528" y="52" type="line" smooth="yes"/>
      <point x="520" y="42"/>
      <point x="510" y="29"/>
      <point x="510" y="18" type="curve" smooth="yes"/>
      <point x="510" y="-5"/>
      <point x="522" y="-14"/>
      <point x="537" y="-14" type="curve" smooth="yes"/>
      <point x="552" y="-14"/>
      <point x="569" y="-5"/>
      <point x="581" y="10" type="curve" smooth="yes"/>
      <point x="757" y="237" type="line"/>
      <point x="1273" y="274" type="line" smooth="yes"/>
      <point x="1291" y="275"/>
      <point x="1301" y="290"/>
      <point x="1301" y="305" type="curve" smooth="yes"/>
      <point x="1301" y="320"/>
      <point x="1289" y="337"/>
      <point x="1261" y="337" type="curve" smooth="yes"/>
      <point x="1247" y="337"/>
      <point x="1000" y="319"/>
      <point x="58" y="252" type="curve" smooth="yes"/>
      <point x="40" y="251"/>
      <point x="30" y="236"/>
    </contour>
  </outline>
</glyph>
<glyph name="u109CC" format="2">
  <advance width="1495"/>
  <unicode hex="109CC"/>
  <outline>
    <contour>
      <point x="74" y="0" type="curve" smooth="yes"/>
      <point x="1428" y="0" type="line" smooth="yes"/>
      <point x="1456" y="0"/>
      <point x="1465" y="28"/>
      <point x="1465" y="36" type="curve" smooth="yes"/>
      <point x="1465" y="66"/>
      <point x="1439" y="68"/>
      <point x="1421" y="68" type="curve" smooth="yes"/>
      <point x="820" y="68" type="line"/>
      <point x="823" y="150"/>
      <point x="888" y="209"/>
      <point x="955" y="220" type="curve" smooth="yes"/>
      <point x="975" y="223"/>
      <point x="983" y="243"/>
      <point x="983" y="255" type="curve" smooth="yes"/>
      <point x="983" y="274"/>
      <point x="974" y="287"/>
      <point x="951" y="287" type="curve" smooth="yes"/>
      <point x="852" y="287"/>
      <point x="752" y="188"/>
      <point x="748" y="68" type="curve"/>
      <point x="743" y="188"/>
      <point x="644" y="287"/>
      <point x="545" y="287" type="curve" smooth="yes"/>
      <point x="523" y="287"/>
      <point x="513" y="274"/>
      <point x="513" y="255" type="curve" smooth="yes"/>
      <point x="513" y="243"/>
      <point x="520" y="224"/>
      <point x="541" y="220" type="curve" smooth="yes"/>
      <point x="608" y="208"/>
      <point x="672" y="150"/>
      <point x="676" y="68" type="curve"/>
      <point x="67" y="68" type="line" smooth="yes"/>
      <point x="39" y="68"/>
      <point x="30" y="40"/>
      <point x="30" y="32" type="curve" smooth="yes"/>
      <point x="30" y="2"/>
      <point x="56" y="0"/>
    </contour>
  </outline>
</glyph>
<glyph name="u109CD" format="2">
  <advance width="1282"/>
  <unicode hex="109CD"/>
  <outline>
    <contour>
      <point x="112" y="432" type="curve" smooth="yes"/>
      <point x="126" y="432"/>
      <point x="169" y="436"/>
      <point x="198" y="436" type="curve" smooth="yes"/>
      <point x="213" y="436"/>
      <point x="231" y="435"/>
      <point x="248" y="433" type="curve"/>
      <point x="169" y="349" type="line" smooth="yes"/>
      <point x="160" y="339"/>
      <point x="154" y="329"/>
      <point x="154" y="320" type="curve" smooth="yes"/>
      <point x="154" y="311"/>
      <point x="160" y="305"/>
      <point x="173" y="305" type="curve" smooth="yes"/>
      <point x="206" y="304"/>
      <point x="232" y="288"/>
      <point x="232" y="275" type="curve" smooth="yes"/>
      <point x="232" y="251"/>
      <point x="145" y="208"/>
      <point x="71" y="205" type="curve" smooth="yes"/>
      <point x="48" y="204"/>
      <point x="30" y="197"/>
      <point x="30" y="173" type="curve" smooth="yes"/>
      <point x="30" y="160"/>
      <point x="38" y="146"/>
      <point x="61" y="140" type="curve" smooth="yes"/>
      <point x="64" y="139"/>
      <point x="116" y="129"/>
      <point x="119" y="129" type="curve" smooth="yes"/>
      <point x="1140" y="-12" type="line"/>
      <point x="1050" y="-37"/>
      <point x="910" y="-43"/>
      <point x="813" y="-55" type="curve" smooth="yes"/>
      <point x="786" y="-58"/>
      <point x="773" y="-75"/>
      <point x="773" y="-91" type="curve" smooth="yes"/>
      <point x="773" y="-104"/>
      <point x="783" y="-115"/>
      <point x="804" y="-115" type="curve" smooth="yes"/>
      <point x="866" y="-115"/>
      <point x="1138" y="-75"/>
      <point x="1200" y="-57" type="curve" smooth="yes"/>
      <point x="1231" y="-48"/>
      <point x="1252" y="-25"/>
      <point x="1252" y="-1" type="curve" smooth="yes"/>
      <point x="1252" y="21"/>
      <point x="1229" y="37"/>
      <point x="1201" y="41" type="curve" smooth="yes"/>
      <point x="216" y="182" type="line"/>
      <point x="254" y="204"/>
      <point x="295" y="231"/>
      <point x="295" y="277" type="curve" smooth="yes"/>
      <point x="295" y="305"/>
      <point x="276" y="328"/>
      <point x="247" y="342" type="curve"/>
      <point x="284" y="373"/>
      <point x="329" y="415"/>
      <point x="329" y="446" type="curve" smooth="yes"/>
      <point x="329" y="472"/>
      <point x="312" y="487"/>
      <point x="273" y="492" type="curve" smooth="yes"/>
      <point x="249" y="495"/>
      <point x="224" y="497"/>
      <point x="199" y="497" type="curve" smooth="yes"/>
      <point x="172" y="497"/>
      <point x="129" y="493"/>
      <point x="115" y="490" type="curve" smooth="yes"/>
      <point x="101" y="487"/>
      <point x="91" y="479"/>
      <point x="91" y="460" type="curve" smooth="yes"/>
      <point x="91" y="441"/>
      <point x="98" y="432"/>
    </contour>
  </outline>
</glyph>
<glyph name="u109D5" format="2">
  <advance width="1552"/>
  <unicode hex="109D5"/>
  <outline>
    <contour>
      <point x="1063" y="381" type="curve" smooth="yes"/>
      <point x="1052" y="330"/>
      <point x="1035" y="275"/>
      <point x="970" y="275" type="curve" smooth="yes"/>
      <point x="940" y="275"/>
      <point x="921" y="292"/>
      <point x="921" y="327" type="curve" smooth="yes"/>
      <point x="921" y="348"/>
      <point x="927" y="369"/>
      <point x="927" y="384" type="curve" smooth="yes"/>
      <point x="927" y="395"/>
      <point x="919" y="400"/>
      <point x="904" y="400" type="curve" smooth="yes"/>
      <point x="882" y="400"/>
      <point x="872" y="387"/>
      <point x="868" y="378" type="curve" smooth="yes"/>
      <point x="860" y="357"/>
      <point x="857" y="334"/>
      <point x="857" y="313" type="curve" smooth="yes"/>
      <point x="857" y="263"/>
      <point x="884" y="217"/>
      <point x="965" y="217" type="curve" smooth="yes"/>
      <point x="1017" y="217"/>
      <point x="1049" y="231"/>
      <point x="1071" y="251" type="curve"/>
      <point x="1088" y="230"/>
      <point x="1116" y="217"/>
      <point x="1161" y="217" type="curve" smooth="yes"/>
      <point x="1213" y="217"/>
      <point x="1245" y="231"/>
      <point x="1267" y="251" type="curve"/>
      <point x="1284" y="230"/>
      <point x="1312" y="217"/>
      <point x="1357" y="217" type="curve" smooth="yes"/>
      <point x="1375" y="217"/>
      <point x="1390" y="218"/>
      <point x="1404" y="221" type="curve"/>
      <point x="1363" y="97"/>
      <point x="1230" y="65"/>
      <point x="1125" y="65" type="curve" smooth="yes"/>
      <point x="1014" y="65"/>
      <point x="908" y="69"/>
      <point x="799" y="74" type="curve" smooth="yes"/>
      <point x="674" y="80"/>
      <point x="546" y="86"/>
      <point x="404" y="86" type="curve" smooth="yes"/>
      <point x="273" y="86"/>
      <point x="156" y="62"/>
      <point x="45" y="3" type="curve" smooth="yes"/>
      <point x="35" y="-2"/>
      <point x="30" y="-15"/>
      <point x="30" y="-27" type="curve" smooth="yes"/>
      <point x="30" y="-43"/>
      <point x="39" y="-58"/>
      <point x="56" y="-58" type="curve" smooth="yes"/>
      <point x="61" y="-58"/>
      <point x="66" y="-57"/>
      <point x="72" y="-54" type="curve" smooth="yes"/>
      <point x="187" y="-2"/>
      <point x="283" y="18"/>
      <point x="403" y="18" type="curve" smooth="yes"/>
      <point x="530" y="18"/>
      <point x="655" y="12"/>
      <point x="778" y="7" type="curve" smooth="yes"/>
      <point x="896" y="2"/>
      <point x="1013" y="-3"/>
      <point x="1128" y="-3" type="curve" smooth="yes"/>
      <point x="1274" y="-3"/>
      <point x="1421" y="50"/>
      <point x="1469" y="198" type="curve" smooth="yes"/>
      <point x="1517" y="346" type="line" smooth="yes"/>
      <point x="1520" y="356"/>
      <point x="1522" y="365"/>
      <point x="1522" y="374" type="curve" smooth="yes"/>
      <point x="1522" y="389"/>
      <point x="1515" y="401"/>
      <point x="1491" y="401" type="curve" smooth="yes"/>
      <point x="1473" y="401"/>
      <point x="1460" y="389"/>
      <point x="1453" y="369" type="curve" smooth="yes"/>
      <point x="1435" y="315" type="line"/>
      <point x="1421" y="292"/>
      <point x="1398" y="275"/>
      <point x="1362" y="275" type="curve" smooth="yes"/>
      <point x="1332" y="275"/>
      <point x="1312" y="291"/>
      <point x="1312" y="323" type="curve" smooth="yes"/>
      <point x="1312" y="333"/>
      <point x="1313" y="340"/>
      <point x="1319" y="359" type="curve" smooth="yes"/>
      <point x="1321" y="364"/>
      <point x="1326" y="379"/>
      <point x="1326" y="384" type="curve" smooth="yes"/>
      <point x="1326" y="401"/>
      <point x="1310" y="401"/>
      <point x="1295" y="401" type="curve" smooth="yes"/>
      <point x="1264" y="401"/>
      <point x="1261" y="389"/>
      <point x="1259" y="381" type="curve" smooth="yes"/>
      <point x="1248" y="330"/>
      <point x="1231" y="275"/>
      <point x="1166" y="275" type="curve" smooth="yes"/>
      <point x="1136" y="275"/>
      <point x="1116" y="289"/>
      <point x="1116" y="324" type="curve" smooth="yes"/>
      <point x="1116" y="335"/>
      <point x="1125" y="362"/>
      <point x="1127" y="370" type="curve" smooth="yes"/>
      <point x="1129" y="377"/>
      <point x="1130" y="381"/>
      <point x="1130" y="384" type="curve" smooth="yes"/>
      <point x="1130" y="401"/>
      <point x="1114" y="401"/>
      <point x="1099" y="401" type="curve" smooth="yes"/>
      <point x="1068" y="401"/>
      <point x="1065" y="389"/>
    </contour>
  </outline>
</glyph>
<glyph name="u109D6" format="2">
  <advance width="1552"/>
  <unicode hex="109D6"/>
  <outline>
    <contour>
      <point x="1453" y="369" type="curve" smooth="yes"/>
      <point x="1404" y="221" type="line" smooth="yes"/>
      <point x="1363" y="97"/>
      <point x="1230" y="65"/>
      <point x="1125" y="65" type="curve" smooth="yes"/>
      <point x="994" y="65"/>
      <point x="871" y="71"/>
      <point x="742" y="77" type="curve" smooth="yes"/>
      <point x="635" y="82"/>
      <point x="524" y="86"/>
      <point x="404" y="86" type="curve" smooth="yes"/>
      <point x="273" y="86"/>
      <point x="156" y="62"/>
      <point x="45" y="3" type="curve" smooth="yes"/>
      <point x="35" y="-2"/>
      <point x="30" y="-15"/>
      <point x="30" y="-27" type="curve" smooth="yes"/>
      <point x="30" y="-43"/>
      <point x="39" y="-58"/>
      <point x="56" y="-58" type="curve" smooth="yes"/>
      <point x="61" y="-58"/>
      <point x="66" y="-57"/>
      <point x="72" y="-54" type="curve" smooth="yes"/>
      <point x="187" y="-2"/>
      <point x="283" y="18"/>
      <point x="403" y="18" type="curve" smooth="yes"/>
      <point x="514" y="18"/>
      <point x="624" y="14"/>
      <point x="733" y="9" type="curve" smooth="yes"/>
      <point x="867" y="3"/>
      <point x="999" y="-3"/>
      <point x="1128" y="-3" type="curve" smooth="yes"/>
      <point x="1274" y="-3"/>
      <point x="1421" y="50"/>
      <point x="1469" y="198" type="curve" smooth="yes"/>
      <point x="1517" y="346" type="line" smooth="yes"/>
      <point x="1520" y="356"/>
      <point x="1522" y="365"/>
      <point x="1522" y="374" type="curve" smooth="yes"/>
      <point x="1522" y="389"/>
      <point x="1515" y="401"/>
      <point x="1491" y="401" type="curve" smooth="yes"/>
      <point x="1473" y="401"/>
      <point x="1460" y="389"/>
    </contour>
    <contour>
      <point x="1205" y="166" type="curve" smooth="yes"/>
      <point x="1205" y="180"/>
      <point x="1193" y="192"/>
      <point x="1175" y="195" type="curve" smooth="yes"/>
      <point x="897" y="243" type="line"/>
      <point x="921" y="260"/>
      <point x="938" y="287"/>
      <point x="938" y="329" type="curve" smooth="yes"/>
      <point x="938" y="393"/>
      <point x="884" y="429"/>
      <point x="829" y="429" type="curve" smooth="yes"/>
      <point x="780" y="429"/>
      <point x="741" y="403"/>
      <point x="729" y="383" type="curve" smooth="yes"/>
      <point x="726" y="378"/>
      <point x="723" y="371"/>
      <point x="723" y="366" type="curve" smooth="yes"/>
      <point x="723" y="352"/>
      <point x="736" y="340"/>
      <point x="752" y="340" type="curve" smooth="yes"/>
      <point x="758" y="340"/>
      <point x="765" y="341"/>
      <point x="771" y="346" type="curve" smooth="yes"/>
      <point x="781" y="354"/>
      <point x="794" y="371"/>
      <point x="826" y="371" type="curve" smooth="yes"/>
      <point x="861" y="371"/>
      <point x="878" y="345"/>
      <point x="878" y="323" type="curve" smooth="yes"/>
      <point x="878" y="277"/>
      <point x="822" y="266"/>
      <point x="794" y="261" type="curve" smooth="yes"/>
      <point x="780" y="258"/>
      <point x="770" y="244"/>
      <point x="770" y="229" type="curve" smooth="yes"/>
      <point x="770" y="218"/>
      <point x="777" y="207"/>
      <point x="791" y="205" type="curve" smooth="yes"/>
      <point x="1161" y="143" type="line" smooth="yes"/>
      <point x="1164" y="142"/>
      <point x="1172" y="141"/>
      <point x="1175" y="141" type="curve" smooth="yes"/>
      <point x="1194" y="141"/>
      <point x="1205" y="153"/>
    </contour>
  </outline>
</glyph>
<glyph name="u109D8" format="2">
  <advance width="1552"/>
  <unicode hex="109D8"/>
  <outline>
    <contour>
      <point x="1453" y="369" type="curve" smooth="yes"/>
      <point x="1404" y="221" type="line" smooth="yes"/>
      <point x="1363" y="97"/>
      <point x="1230" y="65"/>
      <point x="1125" y="65" type="curve" smooth="yes"/>
      <point x="1009" y="65"/>
      <point x="898" y="70"/>
      <point x="785" y="75" type="curve" smooth="yes"/>
      <point x="664" y="80"/>
      <point x="541" y="86"/>
      <point x="404" y="86" type="curve" smooth="yes"/>
      <point x="273" y="86"/>
      <point x="156" y="62"/>
      <point x="45" y="3" type="curve" smooth="yes"/>
      <point x="35" y="-2"/>
      <point x="30" y="-15"/>
      <point x="30" y="-27" type="curve" smooth="yes"/>
      <point x="30" y="-43"/>
      <point x="39" y="-58"/>
      <point x="56" y="-58" type="curve" smooth="yes"/>
      <point x="61" y="-58"/>
      <point x="66" y="-57"/>
      <point x="72" y="-54" type="curve" smooth="yes"/>
      <point x="187" y="-2"/>
      <point x="283" y="18"/>
      <point x="403" y="18" type="curve" smooth="yes"/>
      <point x="525" y="18"/>
      <point x="646" y="13"/>
      <point x="765" y="8" type="curve" smooth="yes"/>
      <point x="888" y="3"/>
      <point x="1009" y="-3"/>
      <point x="1128" y="-3" type="curve" smooth="yes"/>
      <point x="1274" y="-3"/>
      <point x="1421" y="50"/>
      <point x="1469" y="198" type="curve" smooth="yes"/>
      <point x="1517" y="346" type="line" smooth="yes"/>
      <point x="1520" y="356"/>
      <point x="1522" y="365"/>
      <point x="1522" y="374" type="curve" smooth="yes"/>
      <point x="1522" y="389"/>
      <point x="1515" y="401"/>
      <point x="1491" y="401" type="curve" smooth="yes"/>
      <point x="1473" y="401"/>
      <point x="1460" y="389"/>
    </contour>
    <contour>
      <point x="795" y="261" type="curve" smooth="yes"/>
      <point x="781" y="259"/>
      <point x="770" y="244"/>
      <point x="770" y="229" type="curve" smooth="yes"/>
      <point x="770" y="218"/>
      <point x="777" y="207"/>
      <point x="791" y="205" type="curve" smooth="yes"/>
      <point x="1164" y="142" type="line" smooth="yes"/>
      <point x="1169" y="141"/>
      <point x="1174" y="140"/>
      <point x="1179" y="140" type="curve" smooth="yes"/>
      <point x="1196" y="140"/>
      <point x="1205" y="153"/>
      <point x="1205" y="166" type="curve" smooth="yes"/>
      <point x="1205" y="179"/>
      <point x="1195" y="192"/>
      <point x="1175" y="195" type="curve" smooth="yes"/>
      <point x="897" y="243" type="line"/>
      <point x="921" y="260"/>
      <point x="938" y="287"/>
      <point x="938" y="329" type="curve" smooth="yes"/>
      <point x="938" y="389"/>
      <point x="889" y="425"/>
      <point x="835" y="428" type="curve"/>
      <point x="853" y="464" type="line" smooth="yes"/>
      <point x="855" y="468"/>
      <point x="856" y="474"/>
      <point x="856" y="478" type="curve" smooth="yes"/>
      <point x="856" y="495"/>
      <point x="842" y="506"/>
      <point x="828" y="506" type="curve" smooth="yes"/>
      <point x="819" y="506"/>
      <point x="811" y="502"/>
      <point x="807" y="494" type="curve" smooth="yes"/>
      <point x="751" y="386"/>
      <point x="689" y="309"/>
      <point x="591" y="242" type="curve" smooth="yes"/>
      <point x="585" y="238"/>
      <point x="579" y="229"/>
      <point x="579" y="223" type="curve" smooth="yes"/>
      <point x="579" y="209"/>
      <point x="591" y="197"/>
      <point x="606" y="197" type="curve" smooth="yes"/>
      <point x="612" y="197"/>
      <point x="619" y="200"/>
      <point x="625" y="204" type="curve" smooth="yes"/>
      <point x="693" y="246"/>
      <point x="752" y="303"/>
      <point x="799" y="370" type="curve"/>
      <point x="803" y="370"/>
      <point x="808" y="371"/>
      <point x="813" y="371" type="curve" smooth="yes"/>
      <point x="861" y="371"/>
      <point x="878" y="345"/>
      <point x="878" y="323" type="curve" smooth="yes"/>
      <point x="878" y="277"/>
      <point x="823" y="265"/>
    </contour>
  </outline>
</glyph>
<glyph name="u109DC" format="2">
  <advance width="1502"/>
  <unicode hex="109DC"/>
  <outline>
    <contour>
      <point x="1285" y="299" type="curve" smooth="yes"/>
      <point x="1253" y="299" type="line"/>
      <point x="1254" y="323"/>
      <point x="1277" y="334"/>
      <point x="1314" y="340" type="curve" smooth="yes"/>
      <point x="1386" y="351"/>
      <point x="1441" y="372"/>
      <point x="1441" y="448" type="curve" smooth="yes"/>
      <point x="1441" y="548"/>
      <point x="1341" y="550"/>
      <point x="1268" y="550" type="curve" smooth="yes"/>
      <point x="1153" y="550" type="line" smooth="yes"/>
      <point x="1128" y="550"/>
      <point x="1122" y="533"/>
      <point x="1122" y="517" type="curve" smooth="yes"/>
      <point x="1122" y="506"/>
      <point x="1122" y="484"/>
      <point x="1154" y="484" type="curve" smooth="yes"/>
      <point x="1270" y="484" type="line" smooth="yes"/>
      <point x="1332" y="484"/>
      <point x="1369" y="472"/>
      <point x="1369" y="445" type="curve" smooth="yes"/>
      <point x="1369" y="413"/>
      <point x="1331" y="404"/>
      <point x="1293" y="396" type="curve" smooth="yes"/>
      <point x="1234" y="384"/>
      <point x="1189" y="375"/>
      <point x="1189" y="307" type="curve" smooth="yes"/>
      <point x="1189" y="247"/>
      <point x="1199" y="233"/>
      <point x="1214" y="233" type="curve" smooth="yes"/>
      <point x="1278" y="233" type="line"/>
      <point x="1329" y="233"/>
      <point x="1400" y="222"/>
      <point x="1400" y="166" type="curve" smooth="yes"/>
      <point x="1400" y="73"/>
      <point x="1210" y="65"/>
      <point x="1145" y="65" type="curve" smooth="yes"/>
      <point x="1041" y="65"/>
      <point x="938" y="68"/>
      <point x="832" y="73" type="curve" smooth="yes"/>
      <point x="695" y="79"/>
      <point x="554" y="86"/>
      <point x="404" y="86" type="curve" smooth="yes"/>
      <point x="273" y="86"/>
      <point x="156" y="62"/>
      <point x="45" y="3" type="curve" smooth="yes"/>
      <point x="35" y="-2"/>
      <point x="30" y="-15"/>
      <point x="30" y="-27" type="curve" smooth="yes"/>
      <point x="30" y="-43"/>
      <point x="39" y="-58"/>
      <point x="56" y="-58" type="curve" smooth="yes"/>
      <point x="61" y="-58"/>
      <point x="66" y="-57"/>
      <point x="72" y="-54" type="curve" smooth="yes"/>
      <point x="187" y="-2"/>
      <point x="283" y="18"/>
      <point x="403" y="18" type="curve" smooth="yes"/>
      <point x="540" y="18"/>
      <point x="680" y="12"/>
      <point x="819" y="6" type="curve" smooth="yes"/>
      <point x="861" y="4"/>
      <point x="903" y="2"/>
      <point x="944" y="1" type="curve"/>
      <point x="879" y="-179" type="line" smooth="yes"/>
      <point x="877" y="-185"/>
      <point x="876" y="-191"/>
      <point x="876" y="-196" type="curve" smooth="yes"/>
      <point x="876" y="-217"/>
      <point x="893" y="-230"/>
      <point x="910" y="-230" type="curve" smooth="yes"/>
      <point x="924" y="-230"/>
      <point x="937" y="-222"/>
      <point x="944" y="-203" type="curve" smooth="yes"/>
      <point x="1018" y="-1" type="line"/>
      <point x="1062" y="-2"/>
      <point x="1105" y="-3"/>
      <point x="1148" y="-3" type="curve" smooth="yes"/>
      <point x="1162" y="-3" type="line"/>
      <point x="1099" y="-179" type="line" smooth="yes"/>
      <point x="1097" y="-185"/>
      <point x="1096" y="-191"/>
      <point x="1096" y="-196" type="curve" smooth="yes"/>
      <point x="1096" y="-217"/>
      <point x="1113" y="-230"/>
      <point x="1130" y="-230" type="curve" smooth="yes"/>
      <point x="1144" y="-230"/>
      <point x="1157" y="-222"/>
      <point x="1164" y="-203" type="curve" smooth="yes"/>
      <point x="1238" y="0" type="line"/>
      <point x="1368" y="9"/>
      <point x="1472" y="46"/>
      <point x="1472" y="173" type="curve" smooth="yes"/>
      <point x="1472" y="264"/>
      <point x="1387" y="299"/>
    </contour>
  </outline>
</glyph>
<glyph name="u109DE" format="2">
  <advance width="1502"/>
  <unicode hex="109DE"/>
  <outline>
    <contour>
      <point x="1214" y="233" type="curve" smooth="yes"/>
      <point x="1278" y="233" type="line" smooth="yes"/>
      <point x="1329" y="233"/>
      <point x="1400" y="222"/>
      <point x="1400" y="166" type="curve" smooth="yes"/>
      <point x="1400" y="73"/>
      <point x="1210" y="65"/>
      <point x="1145" y="65" type="curve" smooth="yes"/>
      <point x="1030" y="65"/>
      <point x="915" y="70"/>
      <point x="797" y="75" type="curve" smooth="yes"/>
      <point x="671" y="80"/>
      <point x="541" y="86"/>
      <point x="404" y="86" type="curve" smooth="yes"/>
      <point x="273" y="86"/>
      <point x="156" y="62"/>
      <point x="45" y="3" type="curve" smooth="yes"/>
      <point x="35" y="-2"/>
      <point x="30" y="-15"/>
      <point x="30" y="-27" type="curve" smooth="yes"/>
      <point x="30" y="-43"/>
      <point x="39" y="-58"/>
      <point x="56" y="-58" type="curve" smooth="yes"/>
      <point x="61" y="-58"/>
      <point x="66" y="-57"/>
      <point x="72" y="-54" type="curve" smooth="yes"/>
      <point x="187" y="-2"/>
      <point x="283" y="18"/>
      <point x="403" y="18" type="curve" smooth="yes"/>
      <point x="438" y="18"/>
      <point x="474" y="17"/>
      <point x="510" y="17" type="curve"/>
      <point x="439" y="-179" type="line" smooth="yes"/>
      <point x="437" y="-185"/>
      <point x="436" y="-191"/>
      <point x="436" y="-196" type="curve" smooth="yes"/>
      <point x="436" y="-217"/>
      <point x="453" y="-230"/>
      <point x="470" y="-230" type="curve" smooth="yes"/>
      <point x="484" y="-230"/>
      <point x="497" y="-222"/>
      <point x="504" y="-203" type="curve" smooth="yes"/>
      <point x="584" y="15" type="line"/>
      <point x="727" y="10" type="line"/>
      <point x="659" y="-179" type="line" smooth="yes"/>
      <point x="657" y="-185"/>
      <point x="656" y="-191"/>
      <point x="656" y="-196" type="curve" smooth="yes"/>
      <point x="656" y="-217"/>
      <point x="673" y="-230"/>
      <point x="690" y="-230" type="curve" smooth="yes"/>
      <point x="704" y="-230"/>
      <point x="717" y="-222"/>
      <point x="724" y="-203" type="curve" smooth="yes"/>
      <point x="801" y="6" type="line"/>
      <point x="849" y="4"/>
      <point x="897" y="2"/>
      <point x="944" y="1" type="curve"/>
      <point x="879" y="-179" type="line" smooth="yes"/>
      <point x="877" y="-185"/>
      <point x="876" y="-191"/>
      <point x="876" y="-196" type="curve" smooth="yes"/>
      <point x="876" y="-217"/>
      <point x="893" y="-230"/>
      <point x="910" y="-230" type="curve" smooth="yes"/>
      <point x="924" y="-230"/>
      <point x="937" y="-222"/>
      <point x="944" y="-203" type="curve" smooth="yes"/>
      <point x="1018" y="-1" type="line"/>
      <point x="1062" y="-2"/>
      <point x="1105" y="-3"/>
      <point x="1148" y="-3" type="curve" smooth="yes"/>
      <point x="1162" y="-3" type="line"/>
      <point x="1099" y="-179" type="line" smooth="yes"/>
      <point x="1097" y="-185"/>
      <point x="1096" y="-191"/>
      <point x="1096" y="-196" type="curve" smooth="yes"/>
      <point x="1096" y="-217"/>
      <point x="1113" y="-230"/>
      <point x="1130" y="-230" type="curve" smooth="yes"/>
      <point x="1144" y="-230"/>
      <point x="1157" y="-222"/>
      <point x="1164" y="-203" type="curve" smooth="yes"/>
      <point x="1238" y="0" type="line"/>
      <point x="1368" y="9"/>
      <point x="1472" y="46"/>
      <point x="1472" y="173" type="curve" smooth="yes"/>
      <point x="1472" y="264"/>
      <point x="1387" y="299"/>
      <point x="1285" y="299" type="curve" smooth="yes"/>
      <point x="1253" y="299" type="line"/>
      <point x="1254" y="323"/>
      <point x="1277" y="334"/>
      <point x="1314" y="340" type="curve" smooth="yes"/>
      <point x="1386" y="351"/>
      <point x="1441" y="372"/>
      <point x="1441" y="448" type="curve" smooth="yes"/>
      <point x="1441" y="548"/>
      <point x="1341" y="550"/>
      <point x="1268" y="550" type="curve" smooth="yes"/>
      <point x="1153" y="550" type="line" smooth="yes"/>
      <point x="1128" y="550"/>
      <point x="1122" y="533"/>
      <point x="1122" y="517" type="curve" smooth="yes"/>
      <point x="1122" y="506"/>
      <point x="1122" y="484"/>
      <point x="1154" y="484" type="curve" smooth="yes"/>
      <point x="1270" y="484" type="line" smooth="yes"/>
      <point x="1332" y="484"/>
      <point x="1369" y="472"/>
      <point x="1369" y="445" type="curve" smooth="yes"/>
      <point x="1369" y="413"/>
      <point x="1331" y="404"/>
      <point x="1293" y="396" type="curve" smooth="yes"/>
      <point x="1234" y="384"/>
      <point x="1189" y="375"/>
      <point x="1189" y="307" type="curve" smooth="yes"/>
      <point x="1189" y="247"/>
      <point x="1199" y="233"/>
    </contour>
  </outline>
</glyph>
<glyph name="u109E0" format="2">
  <advance width="1502"/>
  <unicode hex="109E0"/>
  <outline>
    <contour>
      <point x="1214" y="233" type="curve" smooth="yes"/>
      <point x="1278" y="233" type="line" smooth="yes"/>
      <point x="1329" y="233"/>
      <point x="1400" y="222"/>
      <point x="1400" y="166" type="curve" smooth="yes"/>
      <point x="1400" y="73"/>
      <point x="1210" y="65"/>
      <point x="1145" y="65" type="curve" smooth="yes"/>
      <point x="906" y="65"/>
      <point x="669" y="86"/>
      <point x="404" y="86" type="curve" smooth="yes"/>
      <point x="273" y="86"/>
      <point x="156" y="62"/>
      <point x="45" y="3" type="curve" smooth="yes"/>
      <point x="35" y="-2"/>
      <point x="30" y="-15"/>
      <point x="30" y="-27" type="curve" smooth="yes"/>
      <point x="30" y="-43"/>
      <point x="39" y="-58"/>
      <point x="56" y="-58" type="curve" smooth="yes"/>
      <point x="61" y="-58"/>
      <point x="66" y="-57"/>
      <point x="72" y="-54" type="curve" smooth="yes"/>
      <point x="187" y="-2"/>
      <point x="283" y="18"/>
      <point x="403" y="18" type="curve" smooth="yes"/>
      <point x="651" y="18"/>
      <point x="914" y="-3"/>
      <point x="1148" y="-3" type="curve" smooth="yes"/>
      <point x="1317" y="-3"/>
      <point x="1472" y="18"/>
      <point x="1472" y="173" type="curve" smooth="yes"/>
      <point x="1472" y="264"/>
      <point x="1387" y="299"/>
      <point x="1285" y="299" type="curve" smooth="yes"/>
      <point x="1253" y="299" type="line"/>
      <point x="1254" y="323"/>
      <point x="1277" y="334"/>
      <point x="1314" y="340" type="curve" smooth="yes"/>
      <point x="1386" y="351"/>
      <point x="1441" y="372"/>
      <point x="1441" y="448" type="curve" smooth="yes"/>
      <point x="1441" y="548"/>
      <point x="1341" y="550"/>
      <point x="1268" y="550" type="curve" smooth="yes"/>
      <point x="1153" y="550" type="line" smooth="yes"/>
      <point x="1128" y="550"/>
      <point x="1122" y="533"/>
      <point x="1122" y="517" type="curve" smooth="yes"/>
      <point x="1122" y="506"/>
      <point x="1122" y="484"/>
      <point x="1154" y="484" type="curve" smooth="yes"/>
      <point x="1270" y="484" type="line" smooth="yes"/>
      <point x="1332" y="484"/>
      <point x="1369" y="472"/>
      <point x="1369" y="445" type="curve" smooth="yes"/>
      <point x="1369" y="413"/>
      <point x="1331" y="404"/>
      <point x="1293" y="396" type="curve" smooth="yes"/>
      <point x="1234" y="384"/>
      <point x="1189" y="375"/>
      <point x="1189" y="307" type="curve" smooth="yes"/>
      <point x="1189" y="247"/>
      <point x="1199" y="233"/>
    </contour>
    <contour>
      <point x="994" y="-319" type="curve"/>
      <point x="1127" y="-202" type="line" smooth="yes"/>
      <point x="1133" y="-196"/>
      <point x="1136" y="-190"/>
      <point x="1136" y="-183" type="curve" smooth="yes"/>
      <point x="1136" y="-167"/>
      <point x="1122" y="-152"/>
      <point x="1109" y="-152" type="curve" smooth="yes"/>
      <point x="1103" y="-152"/>
      <point x="1096" y="-157"/>
      <point x="1090" y="-162" type="curve" smooth="yes"/>
      <point x="906" y="-325" type="line" smooth="yes"/>
      <point x="901" y="-330"/>
      <point x="895" y="-339"/>
      <point x="895" y="-353" type="curve" smooth="yes"/>
      <point x="895" y="-370"/>
      <point x="911" y="-388"/>
      <point x="928" y="-388" type="curve" smooth="yes"/>
      <point x="935" y="-388"/>
      <point x="1049" y="-369"/>
      <point x="1105" y="-369" type="curve" smooth="yes"/>
      <point x="1227" y="-369"/>
      <point x="1326" y="-401"/>
      <point x="1332" y="-401" type="curve" smooth="yes"/>
      <point x="1341" y="-401"/>
      <point x="1355" y="-386"/>
      <point x="1355" y="-373" type="curve" smooth="yes"/>
      <point x="1355" y="-360"/>
      <point x="1350" y="-343"/>
      <point x="1328" y="-337" type="curve" smooth="yes"/>
      <point x="1258" y="-317"/>
      <point x="1186" y="-311"/>
      <point x="1112" y="-311" type="curve" smooth="yes"/>
      <point x="1073" y="-311"/>
      <point x="1034" y="-314"/>
    </contour>
    <contour>
      <point x="863" y="-294" type="curve" smooth="yes"/>
      <point x="1049" y="-128" type="line" smooth="yes"/>
      <point x="1055" y="-123"/>
      <point x="1057" y="-116"/>
      <point x="1057" y="-110" type="curve" smooth="yes"/>
      <point x="1057" y="-93"/>
      <point x="1043" y="-78"/>
      <point x="1031" y="-78" type="curve" smooth="yes"/>
      <point x="1025" y="-78"/>
      <point x="1017" y="-84"/>
      <point x="1011" y="-89" type="curve" smooth="yes"/>
      <point x="825" y="-254" type="line" smooth="yes"/>
      <point x="820" y="-259"/>
      <point x="817" y="-265"/>
      <point x="817" y="-272" type="curve" smooth="yes"/>
      <point x="817" y="-287"/>
      <point x="828" y="-302"/>
      <point x="843" y="-302" type="curve" smooth="yes"/>
      <point x="850" y="-302"/>
      <point x="857" y="-299"/>
    </contour>
    <contour>
      <point x="807" y="-209" type="curve" smooth="yes"/>
      <point x="815" y="-209"/>
      <point x="822" y="-206"/>
      <point x="828" y="-200" type="curve" smooth="yes"/>
      <point x="962" y="-82" type="line" smooth="yes"/>
      <point x="968" y="-76"/>
      <point x="971" y="-70"/>
      <point x="971" y="-63" type="curve" smooth="yes"/>
      <point x="971" y="-47"/>
      <point x="957" y="-33"/>
      <point x="945" y="-33" type="curve" smooth="yes"/>
      <point x="935" y="-33"/>
      <point x="928" y="-40"/>
      <point x="924" y="-43" type="curve" smooth="yes"/>
      <point x="789" y="-162" type="line" smooth="yes"/>
      <point x="784" y="-166"/>
      <point x="781" y="-172"/>
      <point x="781" y="-179" type="curve" smooth="yes"/>
      <point x="781" y="-193"/>
      <point x="792" y="-209"/>
    </contour>
  </outline>
</glyph>
<glyph name="u109E8" format="2">
  <advance width="1289"/>
  <unicode hex="109E8"/>
  <outline>
    <contour>
      <point x="136" y="0" type="curve" smooth="yes"/>
      <point x="1222" y="0" type="line" smooth="yes"/>
      <point x="1250" y="0"/>
      <point x="1259" y="28"/>
      <point x="1259" y="36" type="curve" smooth="yes"/>
      <point x="1259" y="66"/>
      <point x="1233" y="68"/>
      <point x="1215" y="68" type="curve" smooth="yes"/>
      <point x="147" y="68" type="line"/>
      <point x="147" y="222" type="line"/>
      <point x="250" y="277" type="line" smooth="yes"/>
      <point x="282" y="294"/>
      <point x="352" y="334"/>
      <point x="352" y="422" type="curve" smooth="yes"/>
      <point x="352" y="490"/>
      <point x="302" y="560"/>
      <point x="183" y="560" type="curve" smooth="yes"/>
      <point x="130" y="560"/>
      <point x="68" y="543"/>
      <point x="41" y="526" type="curve" smooth="yes"/>
      <point x="33" y="521"/>
      <point x="30" y="514"/>
      <point x="30" y="505" type="curve" smooth="yes"/>
      <point x="30" y="487"/>
      <point x="45" y="465"/>
      <point x="61" y="465" type="curve" smooth="yes"/>
      <point x="64" y="465"/>
      <point x="67" y="466"/>
      <point x="70" y="468" type="curve" smooth="yes"/>
      <point x="96" y="483"/>
      <point x="140" y="492"/>
      <point x="177" y="492" type="curve" smooth="yes"/>
      <point x="239" y="492"/>
      <point x="280" y="465"/>
      <point x="280" y="414" type="curve" smooth="yes"/>
      <point x="280" y="370"/>
      <point x="245" y="346"/>
      <point x="190" y="315" type="curve" smooth="yes"/>
      <point x="112" y="271" type="line" smooth="yes"/>
      <point x="88" y="257"/>
      <point x="77" y="238"/>
      <point x="77" y="213" type="curve" smooth="yes"/>
      <point x="77" y="61" type="line" smooth="yes"/>
      <point x="77" y="15"/>
      <point x="93" y="0"/>
    </contour>
    <contour>
      <point x="744" y="-285" type="curve" smooth="yes"/>
      <point x="467" y="-237" type="line"/>
      <point x="491" y="-219"/>
      <point x="508" y="-192"/>
      <point x="508" y="-151" type="curve" smooth="yes"/>
      <point x="508" y="-87"/>
      <point x="454" y="-51"/>
      <point x="399" y="-51" type="curve" smooth="yes"/>
      <point x="356" y="-51"/>
      <point x="317" y="-71"/>
      <point x="300" y="-96" type="curve" smooth="yes"/>
      <point x="296" y="-102"/>
      <point x="293" y="-108"/>
      <point x="293" y="-114" type="curve" smooth="yes"/>
      <point x="293" y="-128"/>
      <point x="306" y="-140"/>
      <point x="322" y="-140" type="curve" smooth="yes"/>
      <point x="328" y="-140"/>
      <point x="335" y="-139"/>
      <point x="341" y="-134" type="curve" smooth="yes"/>
      <point x="351" y="-126"/>
      <point x="364" y="-109"/>
      <point x="396" y="-109" type="curve" smooth="yes"/>
      <point x="431" y="-109"/>
      <point x="448" y="-135"/>
      <point x="448" y="-157" type="curve" smooth="yes"/>
      <point x="448" y="-203"/>
      <point x="392" y="-214"/>
      <point x="364" y="-219" type="curve" smooth="yes"/>
      <point x="350" y="-222"/>
      <point x="340" y="-236"/>
      <point x="340" y="-251" type="curve" smooth="yes"/>
      <point x="340" y="-262"/>
      <point x="347" y="-273"/>
      <point x="361" y="-275" type="curve" smooth="yes"/>
      <point x="734" y="-337" type="line" smooth="yes"/>
      <point x="739" y="-338"/>
      <point x="745" y="-339"/>
      <point x="748" y="-339" type="curve" smooth="yes"/>
      <point x="765" y="-339"/>
      <point x="775" y="-327"/>
      <point x="775" y="-314" type="curve" smooth="yes"/>
      <point x="775" y="-301"/>
      <point x="764" y="-288"/>
    </contour>
  </outline>
</glyph>
<glyph name="u109EA" format="2">
  <advance width="1289"/>
  <unicode hex="109EA"/>
  <outline>
    <contour>
      <point x="136" y="0" type="curve" smooth="yes"/>
      <point x="1222" y="0" type="line" smooth="yes"/>
      <point x="1250" y="0"/>
      <point x="1259" y="28"/>
      <point x="1259" y="36" type="curve" smooth="yes"/>
      <point x="1259" y="66"/>
      <point x="1233" y="68"/>
      <point x="1215" y="68" type="curve" smooth="yes"/>
      <point x="147" y="68" type="line"/>
      <point x="147" y="222" type="line"/>
      <point x="250" y="277" type="line" smooth="yes"/>
      <point x="282" y="294"/>
      <point x="352" y="334"/>
      <point x="352" y="422" type="curve" smooth="yes"/>
      <point x="352" y="490"/>
      <point x="302" y="560"/>
      <point x="183" y="560" type="curve" smooth="yes"/>
      <point x="130" y="560"/>
      <point x="68" y="543"/>
      <point x="41" y="526" type="curve" smooth="yes"/>
      <point x="33" y="521"/>
      <point x="30" y="514"/>
      <point x="30" y="505" type="curve" smooth="yes"/>
      <point x="30" y="487"/>
      <point x="45" y="465"/>
      <point x="61" y="465" type="curve" smooth="yes"/>
      <point x="64" y="465"/>
      <point x="67" y="466"/>
      <point x="70" y="468" type="curve" smooth="yes"/>
      <point x="96" y="483"/>
      <point x="140" y="492"/>
      <point x="177" y="492" type="curve" smooth="yes"/>
      <point x="239" y="492"/>
      <point x="280" y="465"/>
      <point x="280" y="414" type="curve" smooth="yes"/>
      <point x="280" y="370"/>
      <point x="245" y="346"/>
      <point x="190" y="315" type="curve" smooth="yes"/>
      <point x="112" y="271" type="line" smooth="yes"/>
      <point x="88" y="257"/>
      <point x="77" y="238"/>
      <point x="77" y="213" type="curve" smooth="yes"/>
      <point x="77" y="61" type="line" smooth="yes"/>
      <point x="77" y="15"/>
      <point x="93" y="0"/>
    </contour>
    <contour>
      <point x="380" y="-311" type="curve" smooth="yes"/>
      <point x="380" y="-322"/>
      <point x="387" y="-333"/>
      <point x="401" y="-335" type="curve" smooth="yes"/>
      <point x="773" y="-397" type="line" smooth="yes"/>
      <point x="778" y="-398"/>
      <point x="785" y="-399"/>
      <point x="788" y="-399" type="curve" smooth="yes"/>
      <point x="807" y="-399"/>
      <point x="815" y="-387"/>
      <point x="815" y="-374" type="curve" smooth="yes"/>
      <point x="815" y="-361"/>
      <point x="805" y="-348"/>
      <point x="785" y="-345" type="curve" smooth="yes"/>
      <point x="507" y="-297" type="line"/>
      <point x="531" y="-279"/>
      <point x="548" y="-252"/>
      <point x="548" y="-211" type="curve" smooth="yes"/>
      <point x="548" y="-150"/>
      <point x="499" y="-115"/>
      <point x="445" y="-111" type="curve"/>
      <point x="451" y="-99"/>
      <point x="458" y="-87"/>
      <point x="464" y="-74" type="curve" smooth="yes"/>
      <point x="465" y="-70"/>
      <point x="466" y="-66"/>
      <point x="466" y="-62" type="curve" smooth="yes"/>
      <point x="466" y="-45"/>
      <point x="452" y="-34"/>
      <point x="438" y="-34" type="curve" smooth="yes"/>
      <point x="429" y="-34"/>
      <point x="421" y="-38"/>
      <point x="417" y="-46" type="curve" smooth="yes"/>
      <point x="361" y="-154"/>
      <point x="299" y="-231"/>
      <point x="201" y="-298" type="curve" smooth="yes"/>
      <point x="195" y="-302"/>
      <point x="189" y="-311"/>
      <point x="189" y="-317" type="curve" smooth="yes"/>
      <point x="189" y="-331"/>
      <point x="201" y="-343"/>
      <point x="216" y="-343" type="curve" smooth="yes"/>
      <point x="222" y="-343"/>
      <point x="229" y="-340"/>
      <point x="235" y="-336" type="curve" smooth="yes"/>
      <point x="303" y="-293"/>
      <point x="362" y="-236"/>
      <point x="409" y="-170" type="curve"/>
      <point x="413" y="-169"/>
      <point x="418" y="-169"/>
      <point x="423" y="-169" type="curve" smooth="yes"/>
      <point x="471" y="-169"/>
      <point x="488" y="-195"/>
      <point x="488" y="-217" type="curve" smooth="yes"/>
      <point x="488" y="-263"/>
      <point x="432" y="-275"/>
      <point x="405" y="-279" type="curve" smooth="yes"/>
      <point x="391" y="-281"/>
      <point x="380" y="-296"/>
    </contour>
  </outline>
</glyph>
<glyph name="u109EB" format="2">
  <advance width="1289"/>
  <unicode hex="109EB"/>
  <outline>
    <contour>
      <point x="136" y="0" type="curve" smooth="yes"/>
      <point x="1222" y="0" type="line" smooth="yes"/>
      <point x="1250" y="0"/>
      <point x="1259" y="28"/>
      <point x="1259" y="36" type="curve" smooth="yes"/>
      <point x="1259" y="66"/>
      <point x="1233" y="68"/>
      <point x="1215" y="68" type="curve" smooth="yes"/>
      <point x="147" y="68" type="line"/>
      <point x="147" y="222" type="line"/>
      <point x="250" y="277" type="line" smooth="yes"/>
      <point x="282" y="294"/>
      <point x="352" y="334"/>
      <point x="352" y="422" type="curve" smooth="yes"/>
      <point x="352" y="490"/>
      <point x="302" y="560"/>
      <point x="183" y="560" type="curve" smooth="yes"/>
      <point x="130" y="560"/>
      <point x="68" y="543"/>
      <point x="41" y="526" type="curve" smooth="yes"/>
      <point x="33" y="521"/>
      <point x="30" y="514"/>
      <point x="30" y="505" type="curve" smooth="yes"/>
      <point x="30" y="487"/>
      <point x="45" y="465"/>
      <point x="61" y="465" type="curve" smooth="yes"/>
      <point x="64" y="465"/>
      <point x="67" y="466"/>
      <point x="70" y="468" type="curve" smooth="yes"/>
      <point x="96" y="483"/>
      <point x="140" y="492"/>
      <point x="177" y="492" type="curve" smooth="yes"/>
      <point x="239" y="492"/>
      <point x="280" y="465"/>
      <point x="280" y="414" type="curve" smooth="yes"/>
      <point x="280" y="370"/>
      <point x="245" y="346"/>
      <point x="190" y="315" type="curve" smooth="yes"/>
      <point x="112" y="271" type="line" smooth="yes"/>
      <point x="88" y="257"/>
      <point x="77" y="238"/>
      <point x="77" y="213" type="curve" smooth="yes"/>
      <point x="77" y="61" type="line" smooth="yes"/>
      <point x="77" y="15"/>
      <point x="93" y="0"/>
    </contour>
    <contour>
      <point x="546" y="-44" type="curve" smooth="yes"/>
      <point x="531" y="-44"/>
      <point x="521" y="-50"/>
      <point x="521" y="-60" type="curve" smooth="yes"/>
      <point x="521" y="-72"/>
      <point x="528" y="-98"/>
      <point x="528" y="-116" type="curve" smooth="yes"/>
      <point x="528" y="-157"/>
      <point x="512" y="-185"/>
      <point x="486" y="-212" type="curve" smooth="yes"/>
      <point x="341" y="-358" type="line" smooth="yes"/>
      <point x="334" y="-365"/>
      <point x="330" y="-374"/>
      <point x="330" y="-381" type="curve" smooth="yes"/>
      <point x="330" y="-397"/>
      <point x="344" y="-408"/>
      <point x="360" y="-408" type="curve" smooth="yes"/>
      <point x="367" y="-408"/>
      <point x="378" y="-405"/>
      <point x="391" y="-391" type="curve" smooth="yes"/>
      <point x="550" y="-224" type="line" smooth="yes"/>
      <point x="578" y="-195"/>
      <point x="589" y="-152"/>
      <point x="589" y="-113" type="curve" smooth="yes"/>
      <point x="589" y="-92"/>
      <point x="585" y="-76"/>
      <point x="578" y="-59" type="curve" smooth="yes"/>
      <point x="574" y="-49"/>
      <point x="559" y="-44"/>
    </contour>
    <contour>
      <point x="410" y="-64" type="curve" smooth="yes"/>
      <point x="410" y="-72" type="line" smooth="yes"/>
      <point x="410" y="-113"/>
      <point x="395" y="-141"/>
      <point x="368" y="-168" type="curve" smooth="yes"/>
      <point x="243" y="-296" type="line" smooth="yes"/>
      <point x="236" y="-303"/>
      <point x="232" y="-312"/>
      <point x="232" y="-319" type="curve" smooth="yes"/>
      <point x="232" y="-334"/>
      <point x="246" y="-346"/>
      <point x="262" y="-346" type="curve" smooth="yes"/>
      <point x="269" y="-346"/>
      <point x="279" y="-343"/>
      <point x="293" y="-329" type="curve" smooth="yes"/>
      <point x="432" y="-181" type="line" smooth="yes"/>
      <point x="458" y="-153"/>
      <point x="471" y="-114"/>
      <point x="471" y="-64" type="curve" smooth="yes"/>
      <point x="471" y="-49"/>
      <point x="455" y="-44"/>
      <point x="442" y="-44" type="curve" smooth="yes"/>
      <point x="421" y="-44"/>
      <point x="410" y="-50"/>
    </contour>
  </outline>
</glyph>
<glyph name="u109EE" format="2">
  <advance width="1427"/>
  <unicode hex="109EE"/>
  <outline>
    <contour>
      <point x="380" y="-230" type="curve" smooth="yes"/>
      <point x="398" y="-230"/>
      <point x="415" y="-217"/>
      <point x="415" y="-191" type="curve" smooth="yes"/>
      <point x="415" y="-2" type="line"/>
      <point x="515" y="1" type="line"/>
      <point x="515" y="-191" type="line" smooth="yes"/>
      <point x="515" y="-217"/>
      <point x="533" y="-230"/>
      <point x="550" y="-230" type="curve" smooth="yes"/>
      <point x="568" y="-230"/>
      <point x="585" y="-217"/>
      <point x="585" y="-191" type="curve" smooth="yes"/>
      <point x="585" y="3" type="line"/>
      <point x="792" y="12" type="line" smooth="yes"/>
      <point x="867" y="15"/>
      <point x="945" y="18"/>
      <point x="1024" y="18" type="curve" smooth="yes"/>
      <point x="1144" y="18"/>
      <point x="1240" y="-2"/>
      <point x="1355" y="-54" type="curve" smooth="yes"/>
      <point x="1361" y="-57"/>
      <point x="1366" y="-58"/>
      <point x="1371" y="-58" type="curve" smooth="yes"/>
      <point x="1388" y="-58"/>
      <point x="1397" y="-43"/>
      <point x="1397" y="-27" type="curve" smooth="yes"/>
      <point x="1397" y="-15"/>
      <point x="1392" y="-2"/>
      <point x="1382" y="3" type="curve" smooth="yes"/>
      <point x="1271" y="62"/>
      <point x="1154" y="86"/>
      <point x="1023" y="86" type="curve" smooth="yes"/>
      <point x="878" y="86"/>
      <point x="753" y="80"/>
      <point x="630" y="74" type="curve" smooth="yes"/>
      <point x="529" y="69"/>
      <point x="430" y="65"/>
      <point x="322" y="65" type="curve" smooth="yes"/>
      <point x="219" y="65"/>
      <point x="134" y="77"/>
      <point x="106" y="98" type="curve"/>
      <point x="249" y="220" type="line" smooth="yes"/>
      <point x="266" y="235"/>
      <point x="276" y="252"/>
      <point x="276" y="266" type="curve" smooth="yes"/>
      <point x="276" y="281"/>
      <point x="266" y="296"/>
      <point x="249" y="308" type="curve" smooth="yes"/>
      <point x="115" y="401" type="line"/>
      <point x="280" y="491" type="line" smooth="yes"/>
      <point x="298" y="501"/>
      <point x="301" y="515"/>
      <point x="301" y="526" type="curve" smooth="yes"/>
      <point x="301" y="544"/>
      <point x="284" y="556"/>
      <point x="267" y="556" type="curve" smooth="yes"/>
      <point x="261" y="556"/>
      <point x="255" y="555"/>
      <point x="250" y="552" type="curve" smooth="yes"/>
      <point x="68" y="451" type="line" smooth="yes"/>
      <point x="53" y="443"/>
      <point x="30" y="422"/>
      <point x="30" y="400" type="curve" smooth="yes"/>
      <point x="30" y="385"/>
      <point x="38" y="376"/>
      <point x="59" y="361" type="curve" smooth="yes"/>
      <point x="197" y="264" type="line"/>
      <point x="58" y="140" type="line" smooth="yes"/>
      <point x="39" y="123"/>
      <point x="30" y="105"/>
      <point x="30" y="87" type="curve" smooth="yes"/>
      <point x="30" y="27"/>
      <point x="120" y="-3"/>
      <point x="319" y="-3" type="curve" smooth="yes"/>
      <point x="345" y="-3" type="line"/>
      <point x="345" y="-191" type="line" smooth="yes"/>
      <point x="345" y="-217"/>
      <point x="363" y="-230"/>
    </contour>
  </outline>
</glyph>
<glyph name="u109EF" format="2">
  <advance width="1427"/>
  <unicode hex="109EF"/>
  <outline>
    <contour>
      <point x="415" y="-191" type="curve"/>
      <point x="415" y="-2" type="line"/>
      <point x="515" y="1" type="line"/>
      <point x="515" y="-191" type="line" smooth="yes"/>
      <point x="515" y="-217"/>
      <point x="533" y="-230"/>
      <point x="550" y="-230" type="curve" smooth="yes"/>
      <point x="568" y="-230"/>
      <point x="585" y="-217"/>
      <point x="585" y="-191" type="curve" smooth="yes"/>
      <point x="585" y="3" type="line"/>
      <point x="618" y="5"/>
      <point x="651" y="7"/>
      <point x="685" y="8" type="curve"/>
      <point x="685" y="-191" type="line" smooth="yes"/>
      <point x="685" y="-217"/>
      <point x="703" y="-230"/>
      <point x="720" y="-230" type="curve" smooth="yes"/>
      <point x="738" y="-230"/>
      <point x="755" y="-217"/>
      <point x="755" y="-191" type="curve" smooth="yes"/>
      <point x="755" y="11" type="line"/>
      <point x="842" y="15"/>
      <point x="931" y="18"/>
      <point x="1024" y="18" type="curve" smooth="yes"/>
      <point x="1144" y="18"/>
      <point x="1240" y="-2"/>
      <point x="1355" y="-54" type="curve" smooth="yes"/>
      <point x="1361" y="-57"/>
      <point x="1366" y="-58"/>
      <point x="1371" y="-58" type="curve" smooth="yes"/>
      <point x="1388" y="-58"/>
      <point x="1397" y="-43"/>
      <point x="1397" y="-27" type="curve" smooth="yes"/>
      <point x="1397" y="-15"/>
      <point x="1392" y="-2"/>
      <point x="1382" y="3" type="curve" smooth="yes"/>
      <point x="1271" y="62"/>
      <point x="1154" y="86"/>
      <point x="1023" y="86" type="curve" smooth="yes"/>
      <point x="914" y="86"/>
      <point x="817" y="82"/>
      <point x="724" y="78" type="curve" smooth="yes"/>
      <point x="590" y="72"/>
      <point x="463" y="65"/>
      <point x="322" y="65" type="curve" smooth="yes"/>
      <point x="219" y="65"/>
      <point x="134" y="77"/>
      <point x="106" y="98" type="curve"/>
      <point x="249" y="220" type="line" smooth="yes"/>
      <point x="266" y="235"/>
      <point x="276" y="251"/>
      <point x="276" y="266" type="curve" smooth="yes"/>
      <point x="276" y="281"/>
      <point x="266" y="296"/>
      <point x="249" y="308" type="curve" smooth="yes"/>
      <point x="115" y="401" type="line"/>
      <point x="280" y="491" type="line" smooth="yes"/>
      <point x="298" y="501"/>
      <point x="301" y="515"/>
      <point x="301" y="526" type="curve" smooth="yes"/>
      <point x="301" y="544"/>
      <point x="284" y="556"/>
      <point x="267" y="556" type="curve" smooth="yes"/>
      <point x="261" y="556"/>
      <point x="255" y="555"/>
      <point x="250" y="552" type="curve" smooth="yes"/>
      <point x="68" y="451" type="line" smooth="yes"/>
      <point x="53" y="443"/>
      <point x="30" y="422"/>
      <point x="30" y="400" type="curve" smooth="yes"/>
      <point x="30" y="387"/>
      <point x="36" y="377"/>
      <point x="58" y="362" type="curve" smooth="yes"/>
      <point x="197" y="264" type="line"/>
      <point x="58" y="140" type="line" smooth="yes"/>
      <point x="39" y="123"/>
      <point x="30" y="105"/>
      <point x="30" y="87" type="curve" smooth="yes"/>
      <point x="30" y="27"/>
      <point x="120" y="-3"/>
      <point x="319" y="-3" type="curve" smooth="yes"/>
      <point x="345" y="-3" type="line"/>
      <point x="345" y="-191" type="line" smooth="yes"/>
      <point x="345" y="-217"/>
      <point x="363" y="-230"/>
      <point x="380" y="-230" type="curve" smooth="yes"/>
      <point x="398" y="-230"/>
      <point x="415" y="-217"/>
    </contour>
  </outline>
</glyph>
<glyph name="u109F2" format="2">
  <advance width="1427"/>
  <unicode hex="109F2"/>
  <outline>
    <contour>
      <point x="250" y="552" type="curve" smooth="yes"/>
      <point x="68" y="451" type="line" smooth="yes"/>
      <point x="53" y="443"/>
      <point x="30" y="422"/>
      <point x="30" y="400" type="curve" smooth="yes"/>
      <point x="30" y="385"/>
      <point x="37" y="377"/>
      <point x="58" y="362" type="curve" smooth="yes"/>
      <point x="197" y="264" type="line"/>
      <point x="58" y="140" type="line" smooth="yes"/>
      <point x="39" y="123"/>
      <point x="30" y="105"/>
      <point x="30" y="87" type="curve" smooth="yes"/>
      <point x="30" y="27"/>
      <point x="120" y="-3"/>
      <point x="319" y="-3" type="curve" smooth="yes"/>
      <point x="433" y="-3"/>
      <point x="545" y="2"/>
      <point x="658" y="7" type="curve" smooth="yes"/>
      <point x="777" y="12"/>
      <point x="897" y="18"/>
      <point x="1024" y="18" type="curve" smooth="yes"/>
      <point x="1144" y="18"/>
      <point x="1240" y="-2"/>
      <point x="1355" y="-54" type="curve" smooth="yes"/>
      <point x="1361" y="-57"/>
      <point x="1366" y="-58"/>
      <point x="1371" y="-58" type="curve" smooth="yes"/>
      <point x="1388" y="-58"/>
      <point x="1397" y="-43"/>
      <point x="1397" y="-27" type="curve" smooth="yes"/>
      <point x="1397" y="-15"/>
      <point x="1392" y="-2"/>
      <point x="1382" y="3" type="curve" smooth="yes"/>
      <point x="1271" y="62"/>
      <point x="1154" y="86"/>
      <point x="1023" y="86" type="curve" smooth="yes"/>
      <point x="881" y="86"/>
      <point x="759" y="80"/>
      <point x="639" y="74" type="curve" smooth="yes"/>
      <point x="535" y="69"/>
      <point x="433" y="65"/>
      <point x="322" y="65" type="curve" smooth="yes"/>
      <point x="219" y="65"/>
      <point x="134" y="77"/>
      <point x="106" y="98" type="curve"/>
      <point x="250" y="221" type="line" smooth="yes"/>
      <point x="265" y="234"/>
      <point x="276" y="251"/>
      <point x="276" y="266" type="curve" smooth="yes"/>
      <point x="276" y="281"/>
      <point x="266" y="296"/>
      <point x="249" y="308" type="curve" smooth="yes"/>
      <point x="115" y="401" type="line"/>
      <point x="280" y="491" type="line" smooth="yes"/>
      <point x="298" y="501"/>
      <point x="301" y="515"/>
      <point x="301" y="526" type="curve" smooth="yes"/>
      <point x="301" y="544"/>
      <point x="284" y="556"/>
      <point x="267" y="556" type="curve" smooth="yes"/>
      <point x="261" y="556"/>
      <point x="255" y="555"/>
    </contour>
    <contour>
      <point x="492" y="-320" type="curve"/>
      <point x="625" y="-202" type="line" smooth="yes"/>
      <point x="631" y="-196"/>
      <point x="634" y="-190"/>
      <point x="634" y="-183" type="curve" smooth="yes"/>
      <point x="634" y="-167"/>
      <point x="620" y="-152"/>
      <point x="607" y="-152" type="curve" smooth="yes"/>
      <point x="598" y="-152"/>
      <point x="592" y="-158"/>
      <point x="588" y="-162" type="curve" smooth="yes"/>
      <point x="405" y="-325" type="line" smooth="yes"/>
      <point x="400" y="-330"/>
      <point x="393" y="-339"/>
      <point x="393" y="-353" type="curve" smooth="yes"/>
      <point x="393" y="-370"/>
      <point x="405" y="-387"/>
      <point x="426" y="-388" type="curve"/>
      <point x="489" y="-375"/>
      <point x="547" y="-369"/>
      <point x="603" y="-369" type="curve" smooth="yes"/>
      <point x="703" y="-369"/>
      <point x="815" y="-399"/>
      <point x="826" y="-399" type="curve" smooth="yes"/>
      <point x="841" y="-399"/>
      <point x="853" y="-386"/>
      <point x="853" y="-373" type="curve" smooth="yes"/>
      <point x="853" y="-360"/>
      <point x="846" y="-343"/>
      <point x="826" y="-337" type="curve" smooth="yes"/>
      <point x="774" y="-322"/>
      <point x="684" y="-311"/>
      <point x="610" y="-311" type="curve" smooth="yes"/>
      <point x="571" y="-311"/>
      <point x="532" y="-314"/>
    </contour>
    <contour>
      <point x="361" y="-294" type="curve" smooth="yes"/>
      <point x="547" y="-128" type="line" smooth="yes"/>
      <point x="553" y="-123"/>
      <point x="555" y="-116"/>
      <point x="555" y="-110" type="curve" smooth="yes"/>
      <point x="555" y="-93"/>
      <point x="541" y="-78"/>
      <point x="529" y="-78" type="curve" smooth="yes"/>
      <point x="518" y="-78"/>
      <point x="512" y="-87"/>
      <point x="509" y="-89" type="curve" smooth="yes"/>
      <point x="323" y="-254" type="line" smooth="yes"/>
      <point x="318" y="-259"/>
      <point x="315" y="-265"/>
      <point x="315" y="-272" type="curve" smooth="yes"/>
      <point x="315" y="-287"/>
      <point x="326" y="-302"/>
      <point x="341" y="-302" type="curve" smooth="yes"/>
      <point x="348" y="-302"/>
      <point x="355" y="-299"/>
    </contour>
    <contour>
      <point x="305" y="-209" type="curve" smooth="yes"/>
      <point x="313" y="-209"/>
      <point x="319" y="-207"/>
      <point x="325" y="-201" type="curve" smooth="yes"/>
      <point x="460" y="-82" type="line" smooth="yes"/>
      <point x="466" y="-76"/>
      <point x="469" y="-70"/>
      <point x="469" y="-63" type="curve" smooth="yes"/>
      <point x="469" y="-47"/>
      <point x="455" y="-33"/>
      <point x="443" y="-33" type="curve" smooth="yes"/>
      <point x="433" y="-33"/>
      <point x="426" y="-40"/>
      <point x="422" y="-43" type="curve" smooth="yes"/>
      <point x="287" y="-162" type="line" smooth="yes"/>
      <point x="282" y="-166"/>
      <point x="279" y="-172"/>
      <point x="279" y="-179" type="curve" smooth="yes"/>
      <point x="279" y="-193"/>
      <point x="290" y="-209"/>
    </contour>
  </outline>
</glyph>
<glyph name="u109F3" format="2">
  <advance width="1427"/>
  <unicode hex="109F3"/>
  <outline>
    <contour>
      <point x="250" y="552" type="curve" smooth="yes"/>
      <point x="68" y="451" type="line" smooth="yes"/>
      <point x="53" y="443"/>
      <point x="30" y="422"/>
      <point x="30" y="400" type="curve" smooth="yes"/>
      <point x="30" y="387"/>
      <point x="36" y="377"/>
      <point x="57" y="362" type="curve" smooth="yes"/>
      <point x="197" y="264" type="line"/>
      <point x="58" y="140" type="line" smooth="yes"/>
      <point x="39" y="123"/>
      <point x="30" y="105"/>
      <point x="30" y="87" type="curve" smooth="yes"/>
      <point x="30" y="27"/>
      <point x="120" y="-3"/>
      <point x="319" y="-3" type="curve" smooth="yes"/>
      <point x="553" y="-3"/>
      <point x="776" y="18"/>
      <point x="1024" y="18" type="curve" smooth="yes"/>
      <point x="1144" y="18"/>
      <point x="1240" y="-2"/>
      <point x="1355" y="-54" type="curve" smooth="yes"/>
      <point x="1361" y="-57"/>
      <point x="1366" y="-58"/>
      <point x="1371" y="-58" type="curve" smooth="yes"/>
      <point x="1388" y="-58"/>
      <point x="1397" y="-43"/>
      <point x="1397" y="-27" type="curve" smooth="yes"/>
      <point x="1397" y="-15"/>
      <point x="1392" y="-2"/>
      <point x="1382" y="3" type="curve" smooth="yes"/>
      <point x="1271" y="62"/>
      <point x="1154" y="86"/>
      <point x="1023" y="86" type="curve" smooth="yes"/>
      <point x="758" y="86"/>
      <point x="561" y="65"/>
      <point x="322" y="65" type="curve" smooth="yes"/>
      <point x="219" y="65"/>
      <point x="134" y="77"/>
      <point x="106" y="98" type="curve"/>
      <point x="249" y="220" type="line" smooth="yes"/>
      <point x="266" y="235"/>
      <point x="276" y="251"/>
      <point x="276" y="266" type="curve" smooth="yes"/>
      <point x="276" y="281"/>
      <point x="266" y="296"/>
      <point x="249" y="308" type="curve" smooth="yes"/>
      <point x="115" y="401" type="line"/>
      <point x="280" y="491" type="line" smooth="yes"/>
      <point x="298" y="501"/>
      <point x="301" y="515"/>
      <point x="301" y="526" type="curve" smooth="yes"/>
      <point x="301" y="544"/>
      <point x="284" y="556"/>
      <point x="267" y="556" type="curve" smooth="yes"/>
      <point x="261" y="556"/>
      <point x="255" y="555"/>
    </contour>
    <contour>
      <point x="360" y="-311" type="curve" smooth="yes"/>
      <point x="360" y="-322"/>
      <point x="367" y="-333"/>
      <point x="381" y="-335" type="curve" smooth="yes"/>
      <point x="753" y="-397" type="line" smooth="yes"/>
      <point x="756" y="-398"/>
      <point x="767" y="-399"/>
      <point x="770" y="-399" type="curve" smooth="yes"/>
      <point x="789" y="-399"/>
      <point x="795" y="-387"/>
      <point x="795" y="-374" type="curve" smooth="yes"/>
      <point x="795" y="-361"/>
      <point x="784" y="-348"/>
      <point x="764" y="-345" type="curve" smooth="yes"/>
      <point x="487" y="-297" type="line"/>
      <point x="511" y="-279"/>
      <point x="528" y="-252"/>
      <point x="528" y="-211" type="curve" smooth="yes"/>
      <point x="528" y="-150"/>
      <point x="479" y="-115"/>
      <point x="425" y="-111" type="curve"/>
      <point x="431" y="-99"/>
      <point x="438" y="-87"/>
      <point x="444" y="-74" type="curve" smooth="yes"/>
      <point x="445" y="-70"/>
      <point x="446" y="-66"/>
      <point x="446" y="-62" type="curve" smooth="yes"/>
      <point x="446" y="-45"/>
      <point x="432" y="-34"/>
      <point x="418" y="-34" type="curve" smooth="yes"/>
      <point x="409" y="-34"/>
      <point x="401" y="-38"/>
      <point x="397" y="-46" type="curve" smooth="yes"/>
      <point x="341" y="-154"/>
      <point x="279" y="-231"/>
      <point x="181" y="-298" type="curve" smooth="yes"/>
      <point x="175" y="-302"/>
      <point x="169" y="-311"/>
      <point x="169" y="-317" type="curve" smooth="yes"/>
      <point x="169" y="-331"/>
      <point x="181" y="-343"/>
      <point x="196" y="-343" type="curve" smooth="yes"/>
      <point x="202" y="-343"/>
      <point x="209" y="-340"/>
      <point x="215" y="-336" type="curve" smooth="yes"/>
      <point x="283" y="-293"/>
      <point x="342" y="-236"/>
      <point x="389" y="-170" type="curve"/>
      <point x="393" y="-169"/>
      <point x="398" y="-169"/>
      <point x="403" y="-169" type="curve" smooth="yes"/>
      <point x="451" y="-169"/>
      <point x="468" y="-195"/>
      <point x="468" y="-217" type="curve" smooth="yes"/>
      <point x="468" y="-263"/>
      <point x="413" y="-274"/>
      <point x="385" y="-279" type="curve" smooth="yes"/>
      <point x="371" y="-282"/>
      <point x="360" y="-296"/>
    </contour>
  </outline>
</glyph>
<glyph name="u109F4" format="2">
  <advance width="1427"/>
  <unicode hex="109F4"/>
  <outline>
    <contour>
      <point x="250" y="552" type="curve" smooth="yes"/>
      <point x="68" y="451" type="line" smooth="yes"/>
      <point x="53" y="443"/>
      <point x="30" y="422"/>
      <point x="30" y="400" type="curve" smooth="yes"/>
      <point x="30" y="386"/>
      <point x="37" y="377"/>
      <point x="58" y="362" type="curve" smooth="yes"/>
      <point x="197" y="264" type="line"/>
      <point x="58" y="140" type="line" smooth="yes"/>
      <point x="39" y="123"/>
      <point x="30" y="105"/>
      <point x="30" y="87" type="curve" smooth="yes"/>
      <point x="30" y="27"/>
      <point x="120" y="-3"/>
      <point x="319" y="-3" type="curve" smooth="yes"/>
      <point x="445" y="-3"/>
      <point x="568" y="3"/>
      <point x="693" y="9" type="curve" smooth="yes"/>
      <point x="800" y="14"/>
      <point x="909" y="18"/>
      <point x="1024" y="18" type="curve" smooth="yes"/>
      <point x="1144" y="18"/>
      <point x="1240" y="-2"/>
      <point x="1355" y="-54" type="curve" smooth="yes"/>
      <point x="1361" y="-57"/>
      <point x="1366" y="-58"/>
      <point x="1371" y="-58" type="curve" smooth="yes"/>
      <point x="1388" y="-58"/>
      <point x="1397" y="-43"/>
      <point x="1397" y="-27" type="curve" smooth="yes"/>
      <point x="1397" y="-15"/>
      <point x="1392" y="-2"/>
      <point x="1382" y="3" type="curve" smooth="yes"/>
      <point x="1271" y="62"/>
      <point x="1154" y="86"/>
      <point x="1023" y="86" type="curve" smooth="yes"/>
      <point x="898" y="86"/>
      <point x="788" y="81"/>
      <point x="681" y="76" type="curve" smooth="yes"/>
      <point x="562" y="70"/>
      <point x="448" y="65"/>
      <point x="322" y="65" type="curve" smooth="yes"/>
      <point x="219" y="65"/>
      <point x="134" y="77"/>
      <point x="106" y="98" type="curve"/>
      <point x="251" y="222" type="line" smooth="yes"/>
      <point x="267" y="236"/>
      <point x="276" y="251"/>
      <point x="276" y="266" type="curve" smooth="yes"/>
      <point x="276" y="281"/>
      <point x="266" y="296"/>
      <point x="249" y="308" type="curve" smooth="yes"/>
      <point x="115" y="401" type="line"/>
      <point x="280" y="491" type="line" smooth="yes"/>
      <point x="298" y="501"/>
      <point x="301" y="515"/>
      <point x="301" y="526" type="curve" smooth="yes"/>
      <point x="301" y="544"/>
      <point x="284" y="556"/>
      <point x="267" y="556" type="curve" smooth="yes"/>
      <point x="261" y="556"/>
      <point x="255" y="555"/>
    </contour>
    <contour>
      <point x="526" y="-44" type="curve" smooth="yes"/>
      <point x="511" y="-44"/>
      <point x="501" y="-50"/>
      <point x="501" y="-60" type="curve" smooth="yes"/>
      <point x="501" y="-72"/>
      <point x="508" y="-98"/>
      <point x="508" y="-116" type="curve" smooth="yes"/>
      <point x="508" y="-157"/>
      <point x="492" y="-185"/>
      <point x="466" y="-212" type="curve" smooth="yes"/>
      <point x="321" y="-358" type="line" smooth="yes"/>
      <point x="314" y="-365"/>
      <point x="310" y="-374"/>
      <point x="310" y="-381" type="curve" smooth="yes"/>
      <point x="310" y="-397"/>
      <point x="324" y="-408"/>
      <point x="340" y="-408" type="curve" smooth="yes"/>
      <point x="347" y="-408"/>
      <point x="358" y="-405"/>
      <point x="371" y="-391" type="curve" smooth="yes"/>
      <point x="530" y="-224" type="line" smooth="yes"/>
      <point x="558" y="-195"/>
      <point x="569" y="-152"/>
      <point x="569" y="-113" type="curve" smooth="yes"/>
      <point x="569" y="-92"/>
      <point x="565" y="-76"/>
      <point x="558" y="-59" type="curve" smooth="yes"/>
      <point x="554" y="-49"/>
      <point x="539" y="-44"/>
    </contour>
    <contour>
      <point x="390" y="-64" type="curve" smooth="yes"/>
      <point x="390" y="-72" type="line" smooth="yes"/>
      <point x="390" y="-113"/>
      <point x="375" y="-141"/>
      <point x="348" y="-168" type="curve" smooth="yes"/>
      <point x="223" y="-296" type="line" smooth="yes"/>
      <point x="216" y="-303"/>
      <point x="212" y="-312"/>
      <point x="212" y="-319" type="curve" smooth="yes"/>
      <point x="212" y="-334"/>
      <point x="226" y="-346"/>
      <point x="242" y="-346" type="curve" smooth="yes"/>
      <point x="249" y="-346"/>
      <point x="259" y="-343"/>
      <point x="273" y="-329" type="curve" smooth="yes"/>
      <point x="412" y="-181" type="line" smooth="yes"/>
      <point x="438" y="-153"/>
      <point x="451" y="-114"/>
      <point x="451" y="-64" type="curve" smooth="yes"/>
      <point x="451" y="-49"/>
      <point x="435" y="-44"/>
      <point x="422" y="-44" type="curve" smooth="yes"/>
      <point x="401" y="-44"/>
      <point x="390" y="-50"/>
    </contour>
  </outline>
</glyph>
